<svg width="156" height="475" viewBox="0 0 156 475" fill="none" xmlns="http://www.w3.org/2000/svg">
<path d="M83.8605 356.327V360.928L82.4119 359.547C82.0168 359.153 81.6875 358.89 81.4241 358.693C81.1607 358.496 80.8973 358.299 80.7656 358.233C80.5681 358.102 80.4364 358.036 80.3047 358.036C80.173 358.036 80.1072 357.97 80.0413 357.97C79.9755 357.97 79.8438 357.97 79.7779 358.036C79.7121 358.036 79.6462 358.102 79.5804 358.167C79.5145 358.233 79.4487 358.299 79.4487 358.364C79.317 358.364 79.317 358.496 79.317 358.562C79.317 358.759 79.3828 358.89 79.5145 359.022C79.6462 359.153 79.7779 359.219 79.9755 359.219C80.0413 359.219 80.1072 359.219 80.2389 359.219V360.862C79.9096 360.862 79.5804 360.796 79.317 360.73C79.0536 360.599 78.7902 360.468 78.5926 360.27C78.3951 360.073 78.2634 359.81 78.1317 359.547C78 359.285 78 358.956 78 358.693C78 358.364 78.0658 358.102 78.1317 357.839C78.2634 357.576 78.3951 357.313 78.5268 357.116C78.7243 356.919 78.9219 356.787 79.1853 356.656C79.4487 356.524 79.7121 356.459 79.9755 356.459C80.3047 356.459 80.5681 356.524 80.8315 356.656C81.0949 356.787 81.3583 356.984 81.6217 357.313L82.4777 358.233V356.393H83.8605V356.327Z" fill="white"/>
<path d="M81.029 355.867C80.568 355.867 80.173 355.801 79.7779 355.67C79.3828 355.538 79.1194 355.407 78.856 355.144C78.5926 354.947 78.395 354.684 78.2633 354.356C78.1316 354.093 78.0658 353.764 78.0658 353.37C78.0658 353.041 78.1316 352.712 78.2633 352.384C78.395 352.055 78.5926 351.858 78.856 351.595C79.1194 351.398 79.4486 351.201 79.7779 351.069C80.173 350.938 80.568 350.872 81.029 350.872C81.4899 350.872 81.885 350.938 82.2801 351.069C82.6752 351.201 82.9386 351.332 83.202 351.595C83.4654 351.792 83.6629 352.055 83.7946 352.384C83.9263 352.712 83.9922 352.975 83.9922 353.37C83.9922 353.698 83.9263 354.027 83.7946 354.356C83.6629 354.618 83.4654 354.881 83.202 355.144C82.9386 355.341 82.6093 355.538 82.2801 355.67C81.885 355.801 81.4899 355.867 81.029 355.867ZM81.029 354.356C81.2924 354.356 81.4899 354.355 81.6875 354.29C81.885 354.224 82.0826 354.158 82.2143 354.093C82.346 354.027 82.4777 353.895 82.5435 353.764C82.6093 353.633 82.6752 353.501 82.6752 353.37C82.6752 353.238 82.6093 353.107 82.5435 352.975C82.4777 352.844 82.346 352.778 82.2143 352.647C82.0826 352.581 81.885 352.515 81.6875 352.45C81.4899 352.384 81.2265 352.384 81.029 352.384C80.7656 352.384 80.568 352.384 80.3705 352.45C80.173 352.515 79.9754 352.581 79.8437 352.647C79.712 352.712 79.5803 352.844 79.5145 352.975C79.4486 353.107 79.3828 353.238 79.3828 353.37C79.3828 353.501 79.4486 353.633 79.5145 353.764C79.5803 353.895 79.712 353.961 79.8437 354.093C79.9754 354.158 80.173 354.224 80.3705 354.29C80.5022 354.355 80.7656 354.356 81.029 354.356Z" fill="white"/>
<path d="M83.8605 346.075V350.675L82.4119 349.295C82.0168 348.901 81.6875 348.638 81.4241 348.441C81.1607 348.243 80.8973 348.046 80.7656 347.981C80.5681 347.849 80.4364 347.783 80.3047 347.783C80.173 347.783 80.1072 347.718 80.0413 347.718C79.9755 347.718 79.8438 347.718 79.7779 347.783C79.7121 347.783 79.6462 347.849 79.5804 347.915C79.5145 347.981 79.4487 348.046 79.4487 348.112C79.317 348.112 79.317 348.178 79.317 348.309C79.317 348.506 79.3828 348.638 79.5145 348.769C79.6462 348.901 79.7779 348.966 79.9755 348.966C80.0413 348.966 80.1072 348.966 80.2389 348.966V350.609C79.9096 350.609 79.5804 350.544 79.317 350.478C79.0536 350.346 78.7902 350.215 78.5926 350.018C78.3951 349.821 78.2634 349.558 78.1317 349.295C78.0658 348.966 78 348.638 78 348.375C78 348.046 78.0658 347.783 78.1317 347.52C78.2634 347.258 78.3951 346.995 78.5268 346.798C78.7243 346.6 78.9219 346.469 79.1853 346.337C79.4487 346.206 79.7121 346.14 79.9755 346.14C80.3047 346.14 80.5681 346.206 80.8315 346.337C81.0949 346.469 81.3583 346.666 81.6217 346.995L82.4777 347.915V346.075H83.8605Z" fill="white"/>
<path d="M79.4488 344.169V345.023H78.1976V342.723H83.9265V344.169H79.4488Z" fill="white"/>
<path d="M83.8605 456.42V461.021L82.4119 459.641C82.0168 459.246 81.6875 458.984 81.4241 458.786C81.1607 458.589 80.8973 458.392 80.7656 458.326C80.5681 458.195 80.4364 458.129 80.3047 458.129C80.173 458.129 80.1072 458.063 80.0413 458.063C79.9755 458.063 79.8438 458.063 79.7779 458.129C79.7121 458.129 79.6462 458.195 79.5804 458.261C79.5145 458.326 79.4487 458.392 79.4487 458.458C79.317 458.458 79.317 458.523 79.317 458.655C79.317 458.852 79.3828 458.984 79.5145 459.115C79.6462 459.246 79.7779 459.312 79.9755 459.312C80.0413 459.312 80.1072 459.312 80.2389 459.312V460.955C79.9096 460.955 79.5804 460.889 79.317 460.824C79.0536 460.692 78.7902 460.561 78.5926 460.364C78.3951 460.167 78.2634 459.904 78.1317 459.641C78 459.378 78 459.049 78 458.786C78 458.458 78.0658 458.195 78.1317 457.932C78.2634 457.669 78.3951 457.406 78.5268 457.209C78.7243 457.012 78.9219 456.88 79.1853 456.749C79.4487 456.618 79.7121 456.552 79.9755 456.552C80.3047 456.552 80.5681 456.618 80.8315 456.749C81.0949 456.88 81.3583 457.078 81.6217 457.406L82.4777 458.326V456.42H83.8605Z" fill="white"/>
<path d="M81.029 455.895C80.568 455.895 80.173 455.829 79.7779 455.698C79.3828 455.566 79.1194 455.435 78.856 455.172C78.5926 454.975 78.395 454.712 78.2633 454.383C78.1316 454.12 78.0658 453.792 78.0658 453.397C78.0658 453.069 78.1316 452.74 78.2633 452.412C78.395 452.083 78.5926 451.886 78.856 451.623C79.1194 451.426 79.4486 451.229 79.7779 451.097C80.173 450.966 80.568 450.9 81.029 450.9C81.4899 450.9 81.885 450.966 82.2801 451.097C82.6752 451.229 82.9386 451.36 83.202 451.623C83.4654 451.82 83.6629 452.083 83.7946 452.412C83.9263 452.74 83.9922 453.003 83.9922 453.397C83.9922 453.726 83.9263 454.055 83.7946 454.383C83.6629 454.646 83.4654 454.909 83.202 455.172C82.9386 455.369 82.6093 455.566 82.2801 455.698C81.885 455.829 81.4899 455.895 81.029 455.895ZM81.029 454.449C81.2924 454.449 81.4899 454.449 81.6875 454.383C81.885 454.318 82.0826 454.252 82.2143 454.186C82.346 454.12 82.4777 453.989 82.5435 453.857C82.6093 453.726 82.6752 453.595 82.6752 453.463C82.6752 453.332 82.6093 453.2 82.5435 453.069C82.4777 452.937 82.346 452.872 82.2143 452.74C82.0826 452.675 81.885 452.609 81.6875 452.543C81.4899 452.477 81.2265 452.477 81.029 452.477C80.7656 452.477 80.568 452.477 80.3705 452.543C80.173 452.609 79.9754 452.675 79.8437 452.74C79.712 452.806 79.5803 452.937 79.5145 453.069C79.4486 453.2 79.3828 453.332 79.3828 453.463C79.3828 453.595 79.4486 453.726 79.5145 453.857C79.5803 453.989 79.712 454.055 79.8437 454.186C79.9754 454.252 80.173 454.318 80.3705 454.383C80.5022 454.449 80.7656 454.449 81.029 454.449Z" fill="white"/>
<path d="M83.8605 446.168V450.769L82.4119 449.388C82.0168 448.994 81.6875 448.731 81.4241 448.534C81.1607 448.337 80.8973 448.14 80.7656 448.074C80.5681 447.943 80.4364 447.877 80.3047 447.877C80.173 447.877 80.1072 447.811 80.0413 447.811C79.9755 447.811 79.8438 447.811 79.7779 447.877C79.7121 447.877 79.6462 447.943 79.5804 448.008C79.5145 448.074 79.4487 448.14 79.4487 448.205C79.317 448.205 79.317 448.271 79.317 448.403C79.317 448.6 79.3828 448.731 79.5145 448.863C79.6462 448.994 79.7779 449.06 79.9755 449.06C80.0413 449.06 80.1072 449.06 80.2389 449.06V450.703C79.9096 450.703 79.5804 450.637 79.317 450.571C79.0536 450.44 78.7902 450.309 78.5926 450.111C78.3951 449.914 78.2634 449.651 78.1317 449.388C78 449.126 78 448.797 78 448.534C78 448.205 78.0658 447.943 78.1317 447.68C78.2634 447.417 78.3951 447.154 78.5268 446.957C78.7243 446.76 78.9219 446.628 79.1853 446.497C79.4487 446.365 79.7121 446.3 79.9755 446.3C80.3047 446.3 80.5681 446.365 80.8315 446.497C81.0949 446.628 81.3583 446.825 81.6217 447.154L82.4777 448.074V446.234H83.8605V446.168Z" fill="white"/>
<path d="M83.8605 441.042V445.642L82.4119 444.262C82.0168 443.868 81.6875 443.605 81.4241 443.408C81.1607 443.211 80.8973 443.013 80.7656 442.948C80.5681 442.816 80.4364 442.751 80.3047 442.751C80.173 442.619 80.0413 442.619 79.9755 442.619C79.9096 442.619 79.7779 442.619 79.7121 442.685C79.6462 442.685 79.5804 442.751 79.5145 442.816C79.4487 442.882 79.3828 442.948 79.3828 443.013C79.317 443.079 79.317 443.145 79.317 443.276C79.317 443.473 79.3828 443.605 79.5145 443.736C79.6462 443.868 79.7779 443.933 79.9755 443.933C80.0413 443.933 80.1072 443.933 80.2389 443.933V445.576C79.9096 445.576 79.5804 445.511 79.317 445.445C79.0536 445.314 78.7902 445.182 78.5926 444.985C78.3951 444.788 78.2634 444.525 78.1317 444.262C78.0658 443.933 78 443.605 78 443.276C78 442.948 78.0658 442.685 78.1317 442.422C78.2634 442.159 78.3951 441.896 78.5268 441.699C78.7243 441.502 78.9219 441.37 79.1853 441.239C79.4487 441.108 79.7121 441.042 79.9755 441.042C80.3047 441.042 80.5681 441.108 80.8315 441.239C81.0949 441.37 81.3583 441.568 81.6217 441.896L82.4777 442.816V440.976H83.8605V441.042Z" fill="white"/>
<path d="M82.0167 365.265H81.6875V435.521H82.0167V365.265Z" fill="white"/>
<g clip-path="url(#clip0_239_993)">
<path d="M68.5706 94.8903H60.5745V102.443H68.5706V94.8903Z" fill="url(#paint0_linear_239_993)"/>
<path d="M47.3732 107.976L47.675 103.49H33.5686V109.173C35.1527 108.948 36.7369 108.799 38.3965 108.574C41.3384 108.2 44.3558 108.051 47.3732 107.976Z" fill="url(#paint1_linear_239_993)"/>
<path d="M64.7988 108.499C66.0812 108.649 67.2882 108.799 68.5706 108.948V103.415H53.9362L54.2379 107.901C57.7834 107.976 61.2534 108.2 64.7988 108.499Z" fill="url(#paint2_linear_239_993)"/>
<path d="M41.4894 94.8903H33.4933V102.443H41.4894V94.8903Z" fill="url(#paint3_linear_239_993)"/>
<path d="M68.5705 93.8435V86.3659H52.6537L53.1817 93.8435H68.5705Z" fill="url(#paint4_linear_239_993)"/>
<path d="M33.4933 86.3659V93.8435H48.4295L48.9575 86.3659H33.4933Z" fill="url(#paint5_linear_239_993)"/>
<path d="M0.377197 108.799V125.474L17.1992 125.698C7.84528 125.548 0.377197 117.996 0.377197 108.799Z" fill="url(#paint6_linear_239_993)"/>
<path d="M17.5764 91.8993L0.301758 91.675V108.799C0.377193 99.3769 8.14702 91.7498 17.5764 91.8993Z" fill="url(#paint7_linear_239_993)"/>
<path d="M17.1238 125.623L21.1219 125.698V91.9741L17.5764 91.8993C8.07158 91.7498 0.301758 99.3769 0.301758 108.724C0.377193 117.996 7.84528 125.548 17.1238 125.623Z" fill="white"/>
<path d="M71.4371 111.191L78.0754 111.117V110.743C74.9071 109.845 71.7389 109.322 68.5706 108.873C67.2882 108.724 66.0812 108.574 64.7988 108.425C61.2534 108.051 57.7833 107.901 54.2379 107.827L53.9361 103.34L53.1818 93.7687L52.6538 86.2164L52.0503 78.4397H49.5609L48.9574 86.3659L48.4294 93.9183L47.675 103.49L47.3733 107.976C44.3559 108.051 41.3385 108.2 38.3211 108.574C36.7369 108.724 35.1528 108.948 33.4932 109.173C30.7021 109.546 27.8356 110.145 25.0445 110.892V111.266L31.6828 111.341H38.3211L49.1837 111.416C48.8066 113.809 48.1276 116.127 47.147 118.37C45.7891 121.585 43.8278 124.427 41.4139 126.894C39 129.287 36.2089 131.231 33.116 132.428C30.0232 133.624 26.7795 134.222 23.5358 133.998V140.877C27.7601 140.728 31.9091 139.606 35.53 137.662C39.2263 135.718 42.3946 133.101 44.8839 129.96C47.3733 126.894 49.2592 123.305 50.4661 119.566C50.5416 119.267 50.617 118.968 50.6924 118.669C50.7679 118.968 50.8433 119.267 50.9187 119.566C52.1257 123.305 54.0116 126.82 56.5009 129.96C58.9903 133.026 62.1586 135.718 65.8549 137.662C69.4758 139.606 73.6247 140.728 77.8491 140.877V133.848C74.6054 134.073 71.3617 133.475 68.2688 132.278C65.176 131.082 62.3849 129.138 59.971 126.745C57.557 124.352 55.5957 121.436 54.2379 118.22C53.2572 116.052 52.5783 113.659 52.2011 111.266L64.5725 111.191H71.4371Z" fill="white"/>
<path d="M13.5784 171.61C17.6519 171.61 21.3482 173.405 23.8375 176.246C25.7234 174.003 26.8549 171.087 26.8549 167.871C26.8549 160.618 20.8956 154.711 13.5784 154.711C6.26114 154.711 0.301758 160.618 0.301758 167.871C0.301758 171.012 1.43329 173.928 3.31917 176.246C5.88396 173.405 9.50485 171.61 13.5784 171.61Z" fill="url(#paint8_linear_239_993)"/>
<path d="M23.3849 176.77C21.0464 174.078 17.5009 172.283 13.5783 172.283C9.65568 172.283 6.18566 174.003 3.77173 176.77C6.18566 179.387 9.65568 181.032 13.5783 181.032C17.5009 181.032 20.971 179.387 23.3849 176.77Z" fill="url(#paint9_linear_239_993)"/>
<path d="M13.5784 198.529C9.50485 198.529 5.80853 196.735 3.31917 193.893C1.43329 196.137 0.301758 199.053 0.301758 202.268C0.301758 209.521 6.26114 215.429 13.5784 215.429C20.8956 215.429 26.8549 209.521 26.8549 202.268C26.8549 199.128 25.7234 196.211 23.8375 193.893C21.3482 196.735 17.6519 198.529 13.5784 198.529Z" fill="url(#paint10_linear_239_993)"/>
<path d="M3.84717 193.37C6.18566 196.062 9.73111 197.856 13.6537 197.856C17.5764 197.856 21.0464 196.137 23.4603 193.37C21.0464 190.753 17.5764 189.108 13.6537 189.108C9.73111 189.108 6.26109 190.753 3.84717 193.37Z" fill="url(#paint11_linear_239_993)"/>
<path d="M13.5783 171.61C9.50483 171.61 5.80851 173.405 3.31915 176.246C1.2824 178.639 0 181.705 0 185.07C0 188.435 1.2824 191.575 3.39458 193.893C5.88395 196.735 9.58027 198.529 13.6538 198.529C17.7273 198.529 21.4236 196.735 23.913 193.893C26.0251 191.5 27.3075 188.435 27.3075 185.07C27.3075 181.705 26.0251 178.564 23.913 176.246C21.3482 173.405 17.6518 171.61 13.5783 171.61ZM23.3849 193.37C21.0464 196.062 17.501 197.856 13.5783 197.856C9.65571 197.856 6.18569 196.137 3.77176 193.37C1.81044 191.127 0.603482 188.21 0.603482 185.07C0.603482 181.854 1.81044 179.013 3.77176 176.77C6.11025 174.078 9.65571 172.283 13.5783 172.283C17.501 172.283 20.971 174.003 23.3849 176.77C25.3462 179.013 26.5532 181.929 26.5532 185.07C26.4778 188.285 25.3462 191.201 23.3849 193.37Z" fill="white"/>
<path d="M66.6847 174.676C64.3462 173.405 62.1586 171.535 60.4236 169.367C60.8008 166.6 61.9323 164.058 63.5919 162.188C64.4217 161.291 65.4023 160.543 66.383 160.17C67.3636 159.796 68.3443 159.721 69.1741 159.87V152.991C66.9864 153.141 64.8743 154.038 63.2901 155.234C61.706 156.431 60.499 158.001 59.6692 159.571C58.6131 161.515 58.0851 163.534 57.8588 165.628C56.9536 163.983 56.1992 162.263 55.5203 160.469C55.0677 159.123 54.6905 157.777 54.3888 156.356C54.5396 154.561 54.6151 152.841 54.6151 151.047H53.7099H51.2205H50.3153C50.1644 154.187 49.7118 157.328 48.7311 160.319C48.2785 161.815 47.675 163.31 46.9207 164.731C46.6189 163.011 46.0909 161.291 45.2611 159.646C44.4313 158.076 43.2244 156.58 41.6402 155.309C40.0561 154.113 38.0193 153.215 35.7563 153.066V159.945C36.5861 159.796 37.5667 159.87 38.5474 160.244C39.528 160.618 40.5087 161.366 41.3385 162.263C42.9226 163.983 43.9787 166.301 44.4313 168.843C42.6963 171.162 40.5087 173.18 38.1702 174.601C35.6808 176.022 32.9652 176.695 30.2495 176.62V183.5C34.323 183.425 38.2456 182.004 41.4894 179.91C44.7331 177.742 47.2979 174.9 49.2592 171.76C50.7679 169.367 51.8994 166.825 52.8046 164.207C53.559 166.75 54.6151 169.217 56.0483 171.535C57.9342 174.676 60.4236 177.517 63.5919 179.686C66.7601 181.854 70.6073 183.35 74.6808 183.5V176.62C71.9652 176.695 69.2495 176.097 66.6847 174.676Z" fill="white"/>
<path d="M66.6847 209.596C64.3462 208.325 62.1586 206.456 60.4236 204.287C60.8008 201.52 61.9323 198.978 63.5919 197.109C64.4217 196.211 65.4023 195.464 66.383 195.09C67.3636 194.716 68.3443 194.641 69.1741 194.791V187.911C66.9864 188.061 64.8743 188.958 63.2901 190.154C61.706 191.351 60.499 192.921 59.6692 194.491C58.6131 196.436 58.0851 198.455 57.8588 200.548C56.9536 198.903 56.1992 197.183 55.5203 195.389C55.0677 194.043 54.6905 192.697 54.3888 191.276C54.5396 189.482 54.6151 187.762 54.6151 185.967H53.7099H51.2205H50.3153C50.1644 189.108 49.7118 192.248 48.7311 195.239C48.2785 196.735 47.675 198.23 46.9207 199.651C46.6189 197.931 46.0909 196.211 45.2611 194.566C44.4313 192.996 43.2244 191.5 41.6402 190.229C40.0561 189.033 38.0193 188.136 35.7563 187.986V194.865C36.5861 194.716 37.5667 194.791 38.5474 195.164C39.528 195.538 40.5087 196.286 41.3385 197.183C42.9226 198.903 43.9787 201.221 44.4313 203.764C42.6963 206.082 40.5087 208.101 38.1702 209.521C35.6808 210.942 32.9652 211.615 30.2495 211.54V218.42C34.323 218.345 38.2456 216.924 41.4894 214.83C44.7331 212.662 47.2979 209.821 49.2592 206.68C50.7679 204.287 51.8994 201.745 52.8046 199.128C53.559 201.67 54.6151 204.138 56.0483 206.456C57.9342 209.596 60.4236 212.438 63.5919 214.606C66.7601 216.775 70.6073 218.27 74.6808 218.42V211.54C71.9652 211.615 69.2495 210.942 66.6847 209.596Z" fill="white"/>
<path d="M3.01746 265.454V265.828C3.01746 265.603 3.09289 265.304 3.09289 265.08C3.09289 265.229 3.09289 265.379 3.01746 265.454Z" fill="url(#paint12_radial_239_993)"/>
<path d="M3.01746 265.005C3.09289 265.005 3.09289 264.93 3.01746 265.005C3.09289 264.93 3.09289 264.93 3.01746 265.005C3.09289 264.93 3.09289 264.93 3.01746 265.005C3.09289 264.93 3.09289 264.93 3.01746 265.005C3.09289 264.93 3.09289 264.93 3.01746 265.005C3.09289 264.93 3.09289 264.93 3.09289 264.93L3.01746 265.005Z" fill="url(#paint13_radial_239_993)"/>
<path d="M3.01746 265.229C3.01746 265.229 3.01746 265.155 3.09289 265.08C3.09289 265.155 3.01746 265.155 3.01746 265.229Z" fill="url(#paint14_radial_239_993)"/>
<path d="M3.01732 241.226V249.676C3.01732 249.751 3.01732 249.9 3.01732 249.975C3.01732 250.199 3.01732 250.424 3.01732 250.648V263.958C3.16819 262.612 3.31906 261.266 3.54536 259.92C3.69623 259.098 3.8471 258.275 3.92254 257.453C4.07341 256.63 4.14885 255.808 4.22428 254.985C4.29972 254.163 4.45059 253.34 4.52602 252.517C4.60146 251.695 4.75233 250.872 4.82776 250.05C5.05407 248.405 5.35581 246.76 5.58211 245.115C5.43124 246.76 5.20494 248.405 4.97863 250.05C4.82776 250.872 4.75233 251.695 4.60146 252.517C4.67689 253.415 4.52602 254.237 4.37515 254.985C4.22428 255.808 4.14885 256.63 3.99797 257.453C3.92254 258.275 3.77167 259.098 3.69623 259.92C3.46993 261.416 3.24362 262.836 3.01732 264.332V264.407C3.39449 262.911 3.77167 261.416 4.22428 259.995C4.45059 259.172 4.75233 258.425 4.97863 257.602C5.20494 256.78 5.43124 256.032 5.65755 255.209C5.88386 254.387 6.11016 253.639 6.33647 252.817C6.56277 251.994 6.78908 251.246 7.01538 250.424C7.46799 248.853 7.99604 247.208 8.44865 245.638C8.07148 247.283 7.61886 248.853 7.16625 250.424C6.93995 251.246 6.71364 251.994 6.48734 252.817C6.26103 253.639 6.03473 254.387 5.73298 255.209C5.50668 256.032 5.28037 256.78 5.05407 257.602C4.82776 258.425 4.60146 259.172 4.37515 259.995C3.92254 261.491 3.46993 262.986 3.01732 264.482C3.6208 262.986 4.22428 261.565 4.9032 260.145C5.28037 259.397 5.65755 258.649 5.95929 257.901C6.33647 257.154 6.63821 256.406 6.93995 255.583C7.24169 254.835 7.61886 254.088 7.92061 253.265C8.22235 252.517 8.59952 251.77 8.90126 251.022C9.58018 249.526 10.2591 248.031 11.0134 246.535C10.41 248.106 9.73105 249.601 9.05213 251.097C8.75039 251.844 8.37322 252.592 7.99604 253.34C7.61887 254.088 7.31712 254.835 6.93995 255.583C6.56277 256.331 6.26103 257.079 5.88386 257.827C5.58211 258.574 5.20494 259.322 4.9032 260.145C4.29972 261.64 3.6208 263.061 2.86645 264.482C3.69623 263.136 4.52602 261.715 5.35581 260.369C5.80842 259.696 6.26103 258.948 6.71364 258.275C7.16625 257.602 7.61887 256.854 7.99604 256.181C8.44865 255.434 8.82583 254.761 9.27844 254.088C9.73105 253.415 10.1837 252.667 10.6363 251.994C11.5415 250.573 12.4467 249.227 13.3519 247.807C12.5222 249.227 11.6169 250.648 10.7871 252.069C10.3345 252.742 9.88192 253.49 9.42931 254.163C8.9767 254.835 8.52409 255.583 8.07148 256.256C7.61886 256.929 7.16625 257.677 6.71364 258.35C6.26103 259.023 5.88385 259.771 5.43124 260.518C4.60146 261.864 3.69623 263.21 2.79101 264.556C3.77167 263.285 4.82776 262.089 5.88386 260.818C6.4119 260.219 7.01538 259.546 7.54343 258.948C8.07148 258.35 8.59952 257.677 9.12757 257.004C9.65562 256.331 10.1837 255.733 10.7117 255.06C11.2398 254.387 11.7678 253.789 12.2958 253.116C13.3519 251.844 14.4835 250.573 15.615 249.377C14.5589 250.648 13.5028 251.994 12.4467 253.265C11.9187 253.938 11.3906 254.536 10.7871 255.135C10.2591 255.733 9.73105 256.406 9.12757 257.004C8.59952 257.602 7.99604 258.275 7.46799 258.873C6.93995 259.546 6.4119 260.145 5.88386 260.818C4.82776 262.014 3.8471 263.285 2.71558 264.407C3.8471 263.285 5.05407 262.238 6.26103 261.191C6.86451 260.668 7.54343 260.145 8.14691 259.546C8.75039 259.023 9.35388 258.425 10.0328 257.901C10.6363 257.303 11.2398 256.78 11.8432 256.181C12.4467 255.658 13.0502 255.06 13.7291 254.536C15.0115 253.415 16.2185 252.368 17.5009 251.246C16.2939 252.368 15.0869 253.49 13.8046 254.611C13.2011 255.135 12.5222 255.733 11.9187 256.256C11.3152 256.78 10.6363 257.378 10.0328 257.901C9.42931 258.425 8.75039 259.023 8.14691 259.546C7.54343 260.07 6.93995 260.668 6.33647 261.266C5.1295 262.313 3.92254 263.36 2.71558 264.407C3.99797 263.435 5.35581 262.537 6.71364 261.715C7.39256 261.266 8.14691 260.818 8.82583 260.369C9.50475 259.92 10.1837 259.472 10.8626 258.948C11.5415 258.499 12.2204 257.976 12.8993 257.527C13.5782 257.079 14.2572 256.555 15.0115 256.107C16.3693 255.209 17.8026 254.312 19.2359 253.415C17.8781 254.387 16.5202 255.359 15.087 256.256C14.408 256.705 13.7291 257.154 12.9748 257.602C12.2958 258.051 11.5415 258.499 10.8626 258.948C10.1837 259.397 9.42931 259.845 8.75039 260.294C8.07148 260.743 7.39256 261.266 6.71364 261.715C5.35581 262.612 4.07341 263.509 2.71558 264.332C4.14885 263.584 5.58211 262.837 7.01538 262.164C7.76974 261.79 8.52409 261.491 9.27844 261.117C10.0328 260.743 10.7871 260.369 11.5415 259.995C12.2958 259.621 13.0502 259.247 13.8046 258.873C14.5589 258.5 15.3133 258.126 16.0676 257.752C17.5763 257.004 19.085 256.331 20.5937 255.658C19.085 256.406 17.6517 257.154 16.143 257.901C15.3887 258.275 14.6343 258.649 13.88 258.948C13.1256 259.322 12.3713 259.696 11.6169 259.995C10.8626 260.369 10.1082 260.668 9.35387 261.042C8.59952 261.416 7.84517 261.79 7.09082 262.164C5.65755 262.837 4.22428 263.584 2.71558 264.182C4.22428 263.659 5.73298 263.136 7.31712 262.612C8.14691 262.388 8.90126 262.164 9.73105 261.864C10.5608 261.64 11.3152 261.341 12.145 261.042C12.8993 260.743 13.7291 260.518 14.5589 260.219C15.3887 259.92 16.143 259.696 16.9728 259.472C18.557 258.948 20.1411 258.5 21.8007 258.051C20.2165 258.649 18.6324 259.172 17.0483 259.696C16.2185 259.92 15.4641 260.219 14.6343 260.444C13.8046 260.668 13.0502 260.967 12.2204 261.191C11.3906 261.416 10.6363 261.715 9.80649 261.939C8.9767 262.238 8.22235 262.463 7.46799 262.762C5.95929 263.285 4.45059 263.734 2.86645 264.182C4.45059 263.883 6.03473 263.584 7.61887 263.285C8.44865 263.136 9.27844 263.061 10.1082 262.911C10.938 262.762 11.7678 262.612 12.5976 262.463C13.4274 262.313 14.2572 262.164 15.087 262.014C15.9167 261.864 16.7465 261.715 17.5763 261.565C19.2359 261.266 20.8955 261.042 22.555 260.818C20.8955 261.191 19.2359 261.491 17.6517 261.79C16.822 261.939 15.9922 262.089 15.1624 262.238C14.3326 262.388 13.5028 262.537 12.673 262.612C11.8432 262.762 11.0134 262.911 10.1837 263.061C9.35387 263.21 8.52409 263.36 7.6943 263.509C6.11016 263.809 4.52602 264.033 2.94188 264.257C4.52602 264.182 6.1856 264.108 7.76974 264.033C8.59952 264.033 9.42931 264.033 10.2591 263.958C11.0889 263.958 11.9187 263.883 12.7485 263.883C13.5782 263.809 14.408 263.809 15.2378 263.734C16.0676 263.734 16.8974 263.659 17.7272 263.659C19.3868 263.584 21.0463 263.584 22.7813 263.584C21.1218 263.734 19.4622 263.809 17.8026 263.809C16.9728 263.809 16.143 263.883 15.3133 263.883C14.4835 263.883 13.6537 263.958 12.8239 263.958C11.9941 263.958 11.1643 263.958 10.3345 264.033C9.50475 264.033 8.67496 264.108 7.84517 264.182C6.26103 264.257 4.60146 264.257 3.01732 264.257C4.60146 264.332 6.26103 264.482 7.84517 264.706C8.67496 264.781 9.50475 264.93 10.3345 265.005C11.1643 265.08 11.9941 265.155 12.8239 265.229C13.6537 265.304 14.4835 265.379 15.3133 265.454C16.143 265.528 16.9728 265.603 17.8026 265.678C19.4622 265.828 21.1218 266.052 22.7813 266.276C21.1218 266.127 19.4622 265.977 17.8026 265.828C16.9728 265.753 16.143 265.678 15.3133 265.528C14.4835 265.454 13.6537 265.304 12.8239 265.229C11.9941 265.155 11.1643 265.005 10.3345 264.93C9.50475 264.855 8.67496 264.781 7.84517 264.706C6.26103 264.556 4.67689 264.332 3.09275 264.182C4.67689 264.482 6.26103 264.855 7.76974 265.304C8.59952 265.528 9.35387 265.753 10.1837 265.977C11.0134 266.201 11.8432 266.351 12.5976 266.575C13.4274 266.725 14.2572 266.949 15.0115 267.173C15.8413 267.398 16.6711 267.547 17.4254 267.772C19.085 268.146 20.6692 268.594 22.2533 269.043C20.5937 268.669 19.0096 268.295 17.35 267.921C16.5202 267.697 15.6904 267.547 14.9361 267.323C14.1063 267.099 13.3519 266.874 12.5222 266.65C11.6924 266.426 10.938 266.201 10.1082 266.052C9.27844 265.828 8.44865 265.678 7.6943 265.528C6.11016 265.155 4.60146 264.781 3.01732 264.332C4.52602 264.855 6.03473 265.454 7.54343 266.052C8.29778 266.351 9.05213 266.725 9.88192 267.024C10.6363 267.323 11.4661 267.622 12.2204 267.921C12.9748 268.22 13.8046 268.519 14.5589 268.819C15.3133 269.118 16.143 269.417 16.8974 269.716C18.4815 270.314 19.9902 270.987 21.4989 271.66C19.9148 271.062 18.3307 270.464 16.822 269.865C16.0676 269.566 15.2378 269.267 14.4835 268.893C13.7291 268.594 12.9748 268.22 12.145 267.921C11.3906 267.622 10.6363 267.248 9.80649 266.949C9.05213 266.65 8.22235 266.351 7.46799 266.052C5.95929 265.454 4.52602 264.855 3.01732 264.182C4.45059 264.93 5.80842 265.678 7.24169 266.501C7.99604 266.949 8.67496 267.398 9.42931 267.772C10.1837 268.22 10.8626 268.594 11.6169 268.968C12.3713 269.342 13.0502 269.791 13.8046 270.165C14.5589 270.538 15.2378 270.987 15.9922 271.436C17.4254 272.258 18.8587 273.156 20.292 273.978C18.7833 273.23 17.35 272.408 15.9167 271.585C15.1624 271.137 14.4835 270.763 13.7291 270.314C12.9748 269.865 12.2958 269.492 11.5415 269.043C10.7871 268.594 10.1082 268.22 9.35387 267.772C8.59952 267.398 7.92061 266.949 7.16625 266.575C5.73298 265.828 4.37515 265.005 3.01732 264.108C4.29972 265.08 5.58211 265.977 6.86451 267.024C7.54343 267.547 8.14691 268.071 8.82583 268.594C9.50475 269.118 10.1837 269.641 10.7871 270.09C11.4661 270.613 12.145 271.062 12.8239 271.585C13.5028 272.109 14.1817 272.632 14.7852 273.081C16.0676 274.128 17.4254 275.174 18.7078 276.221C17.35 275.249 15.9922 274.277 14.7098 273.23C14.0309 272.707 13.4274 272.183 12.7485 271.66C12.0695 271.137 11.4661 270.613 10.7871 270.09C10.1082 269.566 9.50475 269.043 8.82583 268.519C8.14691 267.996 7.46799 267.547 6.78908 267.024C5.50668 266.052 4.29972 265.08 3.01732 264.033C4.14885 265.155 5.28037 266.276 6.4119 267.398C7.01538 267.996 7.54343 268.594 8.14691 269.192C8.75039 269.791 9.27844 270.389 9.88192 270.987C10.4854 271.585 11.0889 272.183 11.6169 272.782C12.2204 273.38 12.8239 273.978 13.3519 274.576C14.4835 275.773 15.6904 276.969 16.7465 278.24C15.5396 277.119 14.3326 275.922 13.2011 274.726C12.5976 274.128 12.0695 273.529 11.4661 272.931C10.8626 272.333 10.3345 271.735 9.73105 271.137C9.12757 270.538 8.59952 269.94 7.99604 269.342C7.39256 268.744 6.78908 268.146 6.1856 267.547C5.05407 266.426 3.99797 265.229 2.86645 264.108C3.8471 265.379 4.82776 266.65 5.73298 267.921C6.1856 268.594 6.71364 269.267 7.16625 269.94C7.61886 270.613 8.14691 271.286 8.67496 271.959C9.203 272.632 9.65562 273.305 10.1837 273.978C10.7117 274.651 11.1643 275.324 11.6924 275.997C12.673 277.343 13.6537 278.689 14.5589 280.11C13.5028 278.764 12.5222 277.493 11.5415 276.147C11.0134 275.474 10.5608 274.801 10.1082 274.128C9.65561 273.455 9.12757 272.782 8.67496 272.109C8.22235 271.436 7.6943 270.763 7.24169 270.09C6.71364 269.417 6.26103 268.744 5.73298 268.071C4.75233 266.8 3.8471 265.528 2.94188 264.182C3.77167 265.528 4.52602 266.949 5.28037 268.37C5.65755 269.118 6.03473 269.865 6.4119 270.613C6.78908 271.361 7.16625 272.109 7.61887 272.782C7.99604 273.529 8.44865 274.202 8.82583 274.95C9.203 275.698 9.65562 276.446 10.0328 277.119C10.7871 278.614 11.5415 280.035 12.2958 281.53C11.4661 280.11 10.6363 278.614 9.88192 277.193C9.50475 276.446 9.12757 275.698 8.75039 275.025C8.37322 274.277 7.99604 273.529 7.61887 272.782C7.24169 272.034 6.86451 271.286 6.48734 270.538C6.11016 269.791 5.65755 269.118 5.28037 268.37C4.52602 266.949 3.77167 265.528 3.09275 264.108C3.69623 265.603 4.29972 267.099 4.82776 268.594C5.1295 269.342 5.35581 270.165 5.65755 270.912C5.95929 271.66 6.26103 272.483 6.56277 273.23C6.86451 273.978 7.16625 274.801 7.46799 275.548C7.76973 276.296 8.07148 277.119 8.37322 277.866C8.90126 279.437 9.50475 281.007 10.0328 282.577C9.42931 281.007 8.82583 279.511 8.22235 277.941C7.92061 277.193 7.61886 276.371 7.39256 275.623C7.09082 274.875 6.86451 274.053 6.56277 273.305C6.26103 272.557 6.03473 271.735 5.73298 270.987C5.43124 270.239 5.1295 269.417 4.82776 268.669C4.29972 267.173 3.77167 265.678 3.24362 264.182C3.6208 265.753 3.99797 267.323 4.29972 268.819C4.45059 269.641 4.60146 270.464 4.75233 271.286C4.9032 272.109 5.1295 272.931 5.28037 273.679C5.50668 274.502 5.65755 275.324 5.80842 276.072C5.95929 276.894 6.1856 277.717 6.33647 278.539C6.63821 280.184 7.01538 281.755 7.31712 283.4C6.93995 281.755 6.56277 280.184 6.1856 278.539C6.03473 277.717 5.80842 276.894 5.65755 276.072C5.50668 275.249 5.35581 274.427 5.20494 273.604C5.05407 272.782 4.9032 271.959 4.67689 271.137C4.52602 270.314 4.29972 269.492 4.07341 268.744C3.69623 267.173 3.39449 265.603 3.16819 264.033C3.31906 265.603 3.46993 267.173 3.54536 268.819C3.6208 269.641 3.6208 270.464 3.69623 271.286C3.77167 272.109 3.8471 272.931 3.92254 273.754C3.99797 274.576 4.07341 275.399 4.14885 276.221C4.22428 277.044 4.29972 277.866 4.29972 278.689C4.37515 280.334 4.52602 281.979 4.52602 283.624C4.37515 281.979 4.22428 280.334 4.07341 278.689C3.99797 277.866 3.99797 277.044 3.92254 276.221C3.8471 275.399 3.8471 274.576 3.77167 273.754C3.69623 272.931 3.69623 272.109 3.6208 271.286C3.54536 270.464 3.46993 269.641 3.39449 268.819C3.24362 267.248 3.16819 265.678 3.09275 264.033C3.09275 264.781 3.01732 265.528 3.01732 266.276V287.737C16.2939 287.737 27.0057 277.119 27.0057 263.958C27.0057 251.844 16.2939 241.226 3.01732 241.226Z" fill="url(#paint15_radial_239_993)"/>
<path d="M3.99799 257.453C4.07343 256.63 4.2243 255.808 4.37517 254.985C4.52604 254.163 4.60147 253.34 4.75234 252.517C4.90321 251.695 4.97865 250.872 5.12952 250.05C5.35583 248.405 5.58213 246.76 5.733 245.115C5.43126 246.76 5.20495 248.405 4.97865 250.05C4.82778 250.872 4.75234 251.695 4.67691 252.517C4.60147 253.34 4.4506 254.163 4.37517 254.985C4.2243 255.808 4.07343 256.63 3.99799 257.453C3.84712 258.275 3.69625 259.098 3.54538 259.92C3.31907 261.266 3.1682 262.612 3.01733 263.958V264.332C3.24364 262.836 3.46995 261.416 3.69625 259.92C3.84712 259.098 3.92256 258.275 3.99799 257.453Z" fill="white"/>
<path d="M5.05408 257.677C5.28039 256.854 5.5067 256.107 5.733 255.284C5.95931 254.462 6.26105 253.714 6.48735 252.891C6.71366 252.069 6.93996 251.321 7.16627 250.499C7.61888 248.928 8.07149 247.283 8.44867 245.713C7.92062 247.283 7.46801 248.853 7.0154 250.499C6.78909 251.321 6.56279 252.069 6.33648 252.891C6.11018 253.714 5.88387 254.462 5.65757 255.284C5.43126 256.107 5.20495 256.854 5.05408 257.677C4.75234 258.425 4.52604 259.247 4.2243 260.07C3.77169 261.565 3.39451 262.986 3.01733 264.482V264.631C3.46995 263.136 3.99799 261.64 4.37517 260.145C4.60147 259.322 4.82778 258.499 5.05408 257.677Z" fill="white"/>
<path d="M3.39449 269.865C3.46993 270.688 3.54536 271.511 3.6208 272.333C3.69623 273.156 3.69623 273.978 3.77167 274.801C3.8471 275.623 3.8471 276.446 3.92254 277.268C3.99797 278.091 3.99797 278.913 4.07341 279.736C4.22428 281.381 4.29972 283.026 4.52602 284.671C4.45059 283.026 4.37515 281.381 4.29972 279.736C4.22428 278.913 4.14885 278.091 4.14885 277.268C4.07341 276.446 3.99797 275.623 3.92254 274.801C3.8471 273.978 3.77167 273.156 3.69623 272.333C3.6208 271.511 3.6208 270.688 3.54536 269.865C3.46993 268.295 3.31906 266.65 3.16819 265.08C3.46993 266.65 3.77167 268.22 4.07341 269.791C4.22428 270.613 4.45059 271.436 4.67689 272.183C4.82776 273.006 5.05407 273.829 5.20494 274.651C5.35581 275.474 5.50668 276.296 5.65755 277.119C5.80842 277.941 5.95929 278.764 6.1856 279.586C6.56277 281.231 6.93995 282.802 7.31712 284.447C7.01538 282.802 6.71364 281.157 6.33647 279.586C6.1856 278.764 5.95929 277.941 5.80842 277.119C5.65755 276.296 5.43124 275.474 5.28037 274.726C5.05407 273.903 4.9032 273.081 4.75233 272.333C4.60146 271.511 4.45059 270.688 4.29972 269.865C3.99797 268.295 3.6208 266.725 3.24362 265.229C3.77167 266.725 4.29972 268.22 4.82776 269.716C5.1295 270.464 5.43124 271.286 5.73298 272.034C6.03473 272.782 6.33647 273.604 6.56277 274.352C6.86451 275.175 7.09082 275.922 7.39256 276.67C7.6943 277.418 7.92061 278.24 8.22235 278.988C8.82583 280.558 9.42931 282.129 10.0328 283.624C9.50475 282.054 8.9767 280.484 8.37322 278.913C8.07148 278.166 7.76973 277.343 7.46799 276.595C7.16625 275.847 6.86451 275.025 6.56277 274.277C6.26103 273.529 5.95929 272.707 5.65755 271.959C5.35581 271.211 5.1295 270.389 4.82776 269.641C4.29972 268.146 3.69623 266.65 3.09275 265.155C3.77167 266.575 4.52602 267.996 5.28037 269.417C5.65755 270.165 6.11016 270.838 6.48734 271.585C6.86451 272.333 7.24169 273.081 7.61887 273.829C7.99604 274.576 8.37322 275.324 8.75039 276.072C9.12757 276.82 9.50475 277.567 9.88192 278.24C10.7117 279.736 11.4661 281.157 12.2958 282.577C11.5415 281.082 10.7871 279.586 10.0328 278.166C9.65562 277.418 9.27844 276.67 8.82583 275.997C8.44865 275.249 7.99604 274.576 7.61887 273.829C7.24169 273.081 6.78908 272.408 6.4119 271.66C6.03473 270.912 5.65755 270.165 5.28037 269.417C4.52602 267.996 3.77167 266.575 2.94188 265.229C3.8471 266.575 4.75233 267.846 5.73298 269.118C6.26103 269.791 6.71364 270.464 7.24169 271.137C7.76974 271.81 8.22235 272.483 8.67496 273.156C9.12757 273.829 9.65561 274.502 10.1082 275.175C10.5608 275.847 11.0889 276.52 11.5415 277.193C12.5222 278.539 13.5028 279.885 14.5589 281.157C13.6537 279.811 12.673 278.39 11.6924 277.044C11.2398 276.371 10.7117 275.698 10.1837 275.025C9.65562 274.352 9.203 273.679 8.67496 273.006C8.14691 272.333 7.6943 271.66 7.16625 270.987C6.71364 270.314 6.1856 269.641 5.73298 268.968C4.82776 267.697 3.8471 266.426 2.86645 265.155C3.92254 266.351 5.05407 267.473 6.1856 268.594C6.78908 269.192 7.39256 269.791 7.99604 270.389C8.59952 270.987 9.12757 271.585 9.73105 272.183C10.3345 272.782 10.8626 273.38 11.4661 273.978C12.0695 274.576 12.5976 275.175 13.2011 275.773C14.408 276.969 15.5396 278.166 16.7465 279.287C15.615 278.091 14.4835 276.82 13.3519 275.623C12.7485 275.025 12.2204 274.427 11.6169 273.829C11.0134 273.23 10.41 272.632 9.88192 272.034C9.27844 271.436 8.67496 270.838 8.14691 270.239C7.54343 269.641 7.01538 269.043 6.4119 268.445C5.28037 267.323 4.14885 266.127 3.01732 265.08C4.22428 266.127 5.50668 267.099 6.78908 268.071C7.46799 268.594 8.14691 269.043 8.82583 269.566C9.50475 270.09 10.1082 270.613 10.7871 271.137C11.4661 271.66 12.0695 272.183 12.7485 272.707C13.4274 273.23 14.0309 273.754 14.7098 274.277C16.0676 275.324 17.35 276.296 18.7078 277.268C17.4254 276.221 16.143 275.175 14.7852 274.128C14.1063 273.604 13.4274 273.081 12.8239 272.632C12.145 272.109 11.4661 271.66 10.7871 271.137C10.1082 270.613 9.42931 270.165 8.82583 269.641C8.14691 269.118 7.54343 268.594 6.86451 268.071C5.58211 267.099 4.29972 266.127 3.01732 265.155C4.37515 265.977 5.73298 266.8 7.16625 267.622C7.92061 267.996 8.59952 268.445 9.35387 268.819C10.1082 269.192 10.7871 269.641 11.5415 270.09C12.2204 270.538 12.9748 270.912 13.7291 271.361C14.4835 271.81 15.1624 272.183 15.9167 272.632C17.35 273.455 18.8587 274.277 20.292 275.025C18.8587 274.128 17.4254 273.305 15.9922 272.483C15.2378 272.034 14.5589 271.66 13.8046 271.211C13.0502 270.838 12.3713 270.389 11.6169 270.015C10.8626 269.641 10.1837 269.192 9.42931 268.819C8.67496 268.37 7.99604 267.996 7.24169 267.547C5.88386 266.725 4.45059 265.977 3.01732 265.229C4.45059 265.902 5.95929 266.501 7.46799 267.099C8.22235 267.398 9.05213 267.697 9.80649 267.996C10.5608 268.295 11.3906 268.594 12.145 268.968C12.8993 269.267 13.6537 269.641 14.4835 269.94C15.2378 270.239 16.0676 270.538 16.822 270.912C18.4061 271.51 19.9148 272.109 21.4989 272.707C19.9902 272.034 18.4061 271.361 16.8974 270.763C16.143 270.464 15.3133 270.165 14.5589 269.865C13.8046 269.566 12.9748 269.267 12.2204 268.968C11.4661 268.669 10.6363 268.37 9.88192 268.071C9.12757 267.772 8.37322 267.398 7.54343 267.099C6.03473 266.501 4.52602 265.902 3.01732 265.379C4.52602 265.828 6.11016 266.201 7.6943 266.575C8.52409 266.8 9.35387 266.949 10.1082 267.099C10.938 267.323 11.7678 267.473 12.5222 267.697C13.3519 267.921 14.1063 268.146 14.9361 268.37C15.7659 268.594 16.5202 268.819 17.35 268.968C19.0096 269.342 20.5937 269.716 22.2533 270.09C20.6692 269.641 19.0096 269.192 17.4254 268.819C16.5957 268.594 15.7659 268.445 15.0115 268.22C14.1817 267.996 13.3519 267.846 12.5976 267.622C11.7678 267.473 10.938 267.248 10.1837 267.024C9.35387 266.8 8.59952 266.575 7.76974 266.351C6.1856 265.977 4.67689 265.603 3.09275 265.229C4.67689 265.454 6.26103 265.603 7.84517 265.753C8.67496 265.828 9.50475 265.902 10.3345 265.977C11.1643 266.052 11.9941 266.127 12.8239 266.276C13.6537 266.351 14.4835 266.501 15.3133 266.575C16.143 266.65 16.9728 266.8 17.8026 266.874C19.4622 267.024 21.1218 267.174 22.7813 267.323C21.1218 267.099 19.4622 266.874 17.8026 266.725C16.9728 266.65 16.143 266.575 15.3133 266.501C14.4835 266.426 13.6537 266.351 12.8239 266.276C11.9941 266.201 11.1643 266.127 10.3345 266.052C9.50475 265.977 8.67496 265.828 7.84517 265.753C6.26103 265.603 4.67689 265.454 3.01732 265.304C4.60146 265.304 6.26103 265.304 7.84517 265.229C8.67496 265.155 9.50475 265.155 10.3345 265.08C11.1643 265.08 11.9941 265.005 12.8239 265.005C13.6537 265.005 14.4835 265.005 15.3133 264.93C16.143 264.93 16.9728 264.855 17.8026 264.855C19.4622 264.781 21.1218 264.706 22.7813 264.631C21.1218 264.631 19.4622 264.706 17.7272 264.706C16.8974 264.706 16.0676 264.781 15.2378 264.781C14.408 264.781 13.5782 264.855 12.7485 264.93C11.9187 265.005 11.0889 265.005 10.2591 265.005C9.42931 265.005 8.59952 265.005 7.76974 265.08C6.1856 265.155 4.52602 265.229 2.94188 265.304C4.52602 265.08 6.11016 264.855 7.6943 264.556C8.52409 264.407 9.35387 264.257 10.1837 264.108C11.0134 263.958 11.8432 263.809 12.673 263.659C13.5028 263.51 14.3326 263.435 15.1624 263.285C15.9922 263.136 16.822 262.986 17.6517 262.837C19.3113 262.537 20.9709 262.238 22.555 261.864C20.8955 262.089 19.2359 262.388 17.5763 262.612C16.7465 262.762 15.9167 262.911 15.087 263.061C14.2572 263.21 13.4274 263.36 12.5976 263.509C11.7678 263.659 10.938 263.809 10.1082 263.958C9.27844 264.108 8.44865 264.182 7.61887 264.332C6.03473 264.631 4.45059 264.855 2.86645 265.229C4.37515 264.781 5.95929 264.332 7.46799 263.809C8.22235 263.509 9.05213 263.285 9.80649 262.986C10.6363 262.762 11.3906 262.463 12.2204 262.238C13.0502 262.014 13.8046 261.79 14.6343 261.491C15.4641 261.266 16.2185 260.967 17.0483 260.743C18.6324 260.219 20.2165 259.696 21.8007 259.098C20.2165 259.546 18.557 260.07 16.9728 260.518C16.143 260.743 15.3887 261.042 14.5589 261.266C13.7291 261.491 12.9748 261.79 12.145 262.089C11.3906 262.388 10.5608 262.612 9.73105 262.911C8.90126 263.136 8.14691 263.36 7.31712 263.659C5.80842 264.108 4.22428 264.631 2.71558 265.229C4.14885 264.556 5.65755 263.883 7.09082 263.21C7.84517 262.837 8.59952 262.463 9.35387 262.089C10.1082 261.715 10.8626 261.341 11.6169 261.042C12.3713 260.668 13.1256 260.369 13.88 259.995C14.6343 259.621 15.3887 259.247 16.143 258.948C17.6517 258.2 19.1605 257.453 20.5937 256.705C19.085 257.378 17.5763 258.126 16.0676 258.799C15.3133 259.173 14.5589 259.546 13.8046 259.92C13.0502 260.294 12.2958 260.668 11.5415 261.042C10.7871 261.416 10.0328 261.79 9.27844 262.164C8.52409 262.537 7.76974 262.837 7.01538 263.21C6.03473 263.21 4.60146 263.958 3.16819 264.706C4.52602 263.883 5.88385 262.986 7.16625 262.089C7.84517 261.64 8.52409 261.117 9.203 260.668C9.88192 260.219 10.5608 259.771 11.3152 259.322C11.9941 258.873 12.7485 258.425 13.4274 257.976C14.1063 257.527 14.7852 257.079 15.5396 256.63C16.8974 255.658 18.3307 254.761 19.6885 253.789C18.2552 254.686 16.8974 255.583 15.4641 256.481C14.7852 256.929 14.1063 257.378 13.3519 257.901C12.673 258.35 11.9941 258.873 11.3152 259.322C10.6363 259.771 9.95736 260.294 9.27844 260.743C8.59952 261.191 7.84517 261.64 7.16625 262.089C5.80842 262.986 4.52602 263.883 3.16819 264.781C4.37515 263.734 5.58211 262.687 6.78908 261.64C7.39256 261.042 7.99604 260.518 8.59952 259.92C9.203 259.397 9.88192 258.799 10.4854 258.275C11.0889 257.752 11.7678 257.154 12.3713 256.63C12.9748 256.107 13.6537 255.508 14.2572 254.985C15.4641 253.863 16.7465 252.742 17.9535 251.62C16.6711 252.667 15.3887 253.789 14.1817 254.91C13.5782 255.434 12.9748 256.032 12.2958 256.555C11.6924 257.079 11.0889 257.677 10.4854 258.275C9.88192 258.873 9.27844 259.397 8.59952 259.92C7.99604 260.444 7.31712 261.042 6.71364 261.565C5.50668 262.612 4.29972 263.734 3.16819 264.781C4.22428 263.584 5.28037 262.388 6.33647 261.191C6.86451 260.518 7.39256 259.92 7.92061 259.247C8.44865 258.574 8.9767 257.976 9.58018 257.378C10.1082 256.78 10.7117 256.107 11.2398 255.509C11.7678 254.91 12.2958 254.237 12.8993 253.639C13.9554 252.368 15.0115 251.097 16.0676 249.751C14.9361 251.022 13.88 252.218 12.7485 253.49C12.2204 254.088 11.6924 254.761 11.1643 255.434C10.6363 256.107 10.1082 256.705 9.58018 257.378C9.05213 258.051 8.52409 258.649 7.99604 259.322C7.46799 259.92 6.86451 260.593 6.33647 261.191C5.28037 262.388 4.29972 263.659 3.24362 264.93C4.14885 263.584 4.97863 262.238 5.88386 260.892C6.33647 260.145 6.71364 259.472 7.16625 258.724C7.61886 258.051 8.07148 257.303 8.52409 256.63C8.9767 255.957 9.42931 255.209 9.88192 254.536C10.3345 253.863 10.7871 253.116 11.2398 252.443C12.145 251.022 12.9748 249.601 13.8046 248.18C12.8993 249.526 11.9941 250.947 11.0889 252.368C10.6363 253.041 10.1837 253.789 9.73105 254.462C9.27844 255.135 8.82583 255.882 8.44865 256.555C7.99604 257.303 7.61886 257.976 7.16625 258.649C6.71364 259.322 6.26103 260.07 5.80842 260.743C4.97863 262.089 4.07341 263.435 3.31906 264.855C3.99797 263.435 4.67689 262.014 5.35581 260.518C5.65755 259.771 6.03473 259.023 6.33647 258.2C6.63821 257.453 7.01538 256.705 7.39256 255.957C7.76974 255.209 8.07148 254.462 8.44865 253.714C8.82583 252.966 9.12757 252.218 9.50475 251.471C10.1837 249.975 10.8626 248.405 11.4661 246.909C10.7117 248.405 10.0328 249.9 9.35387 251.396C8.9767 252.144 8.67496 252.891 8.37322 253.639C8.07148 254.387 7.6943 255.135 7.39256 255.957C7.09082 256.705 6.71364 257.453 6.4119 258.275C6.03473 259.023 5.73298 259.771 5.35581 260.518C4.67689 261.939 4.07341 263.435 3.46993 264.855V265.005V265.155V265.229C3.46993 265.155 3.46993 265.155 3.54536 265.08C3.54536 265.155 3.54536 265.229 3.46993 265.229V265.454C3.46993 265.304 3.54536 265.229 3.54536 265.08C3.54536 265.304 3.46993 265.603 3.46993 265.828V267.248C3.54536 266.501 3.54536 265.753 3.54536 265.005C3.16819 266.65 3.31906 268.295 3.39449 269.865Z" fill="white"/>
<path d="M50.6924 265.005C50.6924 278.166 61.4042 288.784 74.6808 288.784V265.454C74.6808 265.304 74.6808 265.155 74.6808 265.08C74.6054 266.65 74.5299 268.295 74.379 269.865C74.3036 270.688 74.2282 271.511 74.1527 272.333C74.0773 273.156 74.0773 273.978 74.0019 274.801C73.9264 275.623 73.9264 276.446 73.851 277.268C73.7756 278.091 73.7756 278.913 73.7001 279.736C73.5493 281.381 73.4738 283.026 73.2475 284.671C73.323 283.026 73.3984 281.381 73.4738 279.736C73.5493 278.913 73.6247 278.091 73.6247 277.268C73.7001 276.446 73.7756 275.623 73.851 274.801C73.9264 273.978 74.0019 273.156 74.0773 272.333C74.1527 271.511 74.1527 270.688 74.2282 269.865C74.3036 268.295 74.4545 266.65 74.6054 265.08C74.3036 266.65 74.0019 268.22 73.7001 269.791C73.5493 270.613 73.323 271.436 73.0967 272.184C72.9458 273.006 72.7195 273.829 72.5686 274.651C72.4177 275.474 72.2669 276.296 72.116 277.119C71.9651 277.941 71.8143 278.764 71.5879 279.586C71.2108 281.231 70.8336 282.802 70.4564 284.447C70.7582 282.802 71.0599 281.157 71.4371 279.586C71.5879 278.764 71.8143 277.941 71.9651 277.119C72.116 276.296 72.3423 275.474 72.4932 274.726C72.7195 273.903 72.8703 273.081 73.0212 272.333C73.1721 271.511 73.323 270.688 73.4738 269.865C73.7756 268.295 74.1527 266.725 74.5299 265.229C74.0019 266.725 73.4738 268.22 72.9458 269.716C72.644 270.464 72.3423 271.286 72.0406 272.034C71.7388 272.782 71.4371 273.604 71.2108 274.352C70.909 275.175 70.6827 275.922 70.381 276.67C70.0792 277.418 69.8529 278.24 69.5512 278.988C68.9477 280.558 68.3442 282.129 67.7408 283.624C68.2688 282.054 68.7968 280.484 69.4003 278.913C69.7021 278.166 70.0038 277.343 70.3055 276.595C70.6073 275.848 70.909 275.025 71.2108 274.277C71.5125 273.529 71.8143 272.707 72.116 271.959C72.4177 271.211 72.644 270.389 72.9458 269.641C73.4738 268.146 74.0773 266.65 74.6808 265.155C74.0019 266.575 73.2475 267.996 72.4932 269.417C72.116 270.165 71.6634 270.838 71.2862 271.585C70.909 272.333 70.5319 273.081 70.1547 273.829C69.7775 274.576 69.4003 275.324 69.0231 276.072C68.646 276.82 68.2688 277.567 67.8916 278.24C67.0618 279.736 66.3075 281.157 65.4777 282.577C66.232 281.082 66.9864 279.586 67.7408 278.166C68.1179 277.418 68.4951 276.67 68.9477 275.997C69.3249 275.249 69.7775 274.576 70.1547 273.829C70.5319 273.081 70.9845 272.408 71.3616 271.66C71.7388 270.912 72.116 270.165 72.4932 269.417C73.2475 267.996 74.0019 266.575 74.8317 265.229C73.9264 266.575 73.0212 267.847 72.0406 269.118C71.5125 269.791 71.0599 270.464 70.5319 271.137C70.0038 271.81 69.5512 272.483 69.0986 273.156C68.646 273.829 68.1179 274.502 67.6653 275.175C67.2127 275.848 66.6847 276.521 66.232 277.193C65.2514 278.539 64.2707 279.885 63.2146 281.157C64.1199 279.811 65.1005 278.39 66.0812 277.044C66.5338 276.371 67.0618 275.698 67.5899 275.025C68.1179 274.352 68.5705 273.679 69.0986 273.006C69.6266 272.333 70.0792 271.66 70.6073 270.987C71.0599 270.314 71.5879 269.641 72.0406 268.968C72.9458 267.697 73.9264 266.426 74.9071 265.155C73.851 266.351 72.7195 267.473 71.5879 268.594C70.9845 269.192 70.381 269.791 69.7775 270.389C69.174 270.987 68.646 271.585 68.0425 272.184C67.439 272.782 66.911 273.38 66.3075 273.978C65.704 274.576 65.1759 275.175 64.5725 275.773C63.3655 276.969 62.234 278.166 61.027 279.287C62.1585 278.091 63.2901 276.82 64.4216 275.623C65.0251 275.025 65.5531 274.427 66.1566 273.829C66.7601 273.23 67.3636 272.632 67.8916 272.034C68.4951 271.436 69.0986 270.838 69.6266 270.239C70.2301 269.641 70.7582 269.043 71.3616 268.445C72.4932 267.323 73.6247 266.127 74.7562 265.08C73.5493 266.127 72.2669 267.099 70.9845 268.071C70.3055 268.594 69.6266 269.043 68.9477 269.566C68.2688 270.09 67.6653 270.613 66.9864 271.137C66.3075 271.66 65.704 272.184 65.0251 272.707C64.3462 273.23 63.7427 273.754 63.0638 274.277C61.7059 275.324 60.4235 276.296 59.0657 277.268C60.3481 276.221 61.6305 275.175 62.9883 274.128C63.6672 273.604 64.3462 273.081 64.9496 272.632C65.6286 272.109 66.3075 271.66 66.9864 271.137C67.6653 270.613 68.3442 270.165 68.9477 269.641C69.6266 269.118 70.2301 268.594 70.909 268.071C72.1914 267.099 73.4738 266.127 74.7562 265.155C73.3984 265.977 72.0406 266.8 70.6073 267.622C69.8529 267.996 69.174 268.445 68.4197 268.819C67.6653 269.192 66.9864 269.641 66.232 270.09C65.5531 270.538 64.7988 270.912 64.0444 271.361C63.2901 271.81 62.6112 272.184 61.8568 272.632C60.4235 273.455 58.9148 274.277 57.4816 275.025C58.9148 274.128 60.3481 273.305 61.7814 272.483C62.5357 272.034 63.2146 271.66 63.969 271.211C64.7233 270.838 65.4023 270.389 66.1566 270.015C66.911 269.641 67.5899 269.192 68.3442 268.819C69.0986 268.37 69.7775 267.996 70.5319 267.547C71.8897 266.725 73.323 265.977 74.7562 265.229C73.323 265.902 71.8142 266.501 70.3055 267.099C69.5512 267.398 68.7214 267.697 67.9671 267.996C67.2127 268.295 66.3829 268.594 65.6286 268.968C64.8742 269.267 64.1199 269.641 63.2901 269.94C62.5357 270.239 61.7059 270.538 60.9516 270.912C59.3674 271.511 57.8587 272.109 56.2746 272.707C57.7833 272.034 59.3674 271.361 60.8761 270.763C61.6305 270.464 62.4603 270.165 63.2146 269.865C63.969 269.566 64.7988 269.267 65.5531 268.968C66.3075 268.669 67.1373 268.37 67.8916 268.071C68.646 267.772 69.4003 267.398 70.2301 267.099C71.7388 266.501 73.2475 265.902 74.7562 265.379C73.2475 265.828 71.6634 266.201 70.0792 266.575C69.2495 266.8 68.4197 266.949 67.6653 267.099C66.8355 267.323 66.0057 267.473 65.2514 267.697C64.4216 267.921 63.6672 268.146 62.8375 268.37C62.0077 268.594 61.2533 268.819 60.4235 268.968C58.764 269.342 57.1798 269.716 55.5202 270.09C57.1044 269.641 58.764 269.192 60.3481 268.819C61.1779 268.594 62.0077 268.445 62.762 268.22C63.5918 267.996 64.4216 267.847 65.176 267.622C66.0057 267.473 66.8355 267.248 67.5899 267.024C68.4197 266.8 69.174 266.575 70.0038 266.351C71.5879 265.977 73.0967 265.603 74.6808 265.229C73.0967 265.454 71.5125 265.603 69.9284 265.753C69.0986 265.828 68.2688 265.902 67.439 265.977C66.6092 266.052 65.7794 266.127 64.9496 266.276C64.1199 266.351 63.2901 266.501 62.4603 266.575C61.6305 266.65 60.8007 266.8 59.9709 266.874C58.3113 267.024 56.6518 267.174 54.9922 267.323C56.6518 267.099 58.3113 266.874 59.9709 266.725C60.8007 266.65 61.6305 266.575 62.4603 266.501C63.2901 266.426 64.1199 266.351 64.9496 266.276C65.7794 266.201 66.6092 266.127 67.439 266.052C68.2688 265.977 69.0986 265.828 69.9284 265.753C71.5125 265.603 73.0966 265.454 74.7562 265.304C73.1721 265.304 71.5125 265.304 69.9284 265.229C69.0986 265.155 68.2688 265.155 67.439 265.08C66.6092 265.08 65.7794 265.005 64.9496 265.005C64.1199 265.005 63.2901 265.005 62.4603 264.93C61.6305 264.93 60.8007 264.855 59.9709 264.855C58.3113 264.781 56.6518 264.706 54.9922 264.631C56.6518 264.631 58.3113 264.706 60.0464 264.706C60.8761 264.706 61.7059 264.781 62.5357 264.781C63.3655 264.781 64.1953 264.855 65.0251 264.93C65.8549 265.005 66.6847 265.005 67.5144 265.005C68.3442 265.005 69.174 265.005 70.0038 265.08C71.5879 265.155 73.2475 265.229 74.8317 265.304C73.2475 265.08 71.6634 264.855 70.0792 264.556C69.2495 264.407 68.4197 264.257 67.5899 264.108C66.7601 263.958 65.9303 263.809 65.1005 263.659C64.2707 263.51 63.4409 263.435 62.6112 263.285C61.7814 263.136 60.9516 262.986 60.1218 262.837C58.4622 262.537 56.8026 262.238 55.2185 261.864C56.8781 262.089 58.5377 262.388 60.1972 262.612C61.027 262.762 61.8568 262.911 62.6866 263.061C63.5164 263.21 64.3462 263.36 65.176 263.51C66.0057 263.659 66.8355 263.809 67.6653 263.958C68.4951 264.108 69.3249 264.183 70.1547 264.332C71.7388 264.631 73.323 264.855 74.9071 265.229C73.3984 264.781 71.8142 264.332 70.3055 263.809C69.5512 263.51 68.7214 263.285 67.9671 262.986C67.1373 262.762 66.3829 262.463 65.5531 262.238C64.7233 262.014 63.969 261.79 63.1392 261.491C62.3094 261.266 61.5551 260.967 60.7253 260.743C59.1411 260.219 57.557 259.696 55.9728 259.098C57.557 259.546 59.2166 260.07 60.8007 260.518C61.6305 260.743 62.3848 261.042 63.2146 261.266C64.0444 261.491 64.7988 261.79 65.6286 262.089C66.3829 262.388 67.2127 262.612 68.0425 262.911C68.8723 263.136 69.6266 263.36 70.4564 263.659C71.9651 264.108 73.5493 264.631 75.058 265.229C73.6247 264.556 72.116 263.883 70.6827 263.21C69.9284 262.837 69.174 262.463 68.4197 262.089C67.6653 261.715 66.911 261.341 66.1566 261.042C65.4023 260.668 64.6479 260.369 63.8935 259.995C63.1392 259.621 62.3848 259.247 61.6305 258.948C60.1218 258.2 58.6131 257.453 57.1798 256.705C58.6885 257.378 60.1972 258.126 61.7059 258.799C62.4603 259.173 63.2146 259.546 63.969 259.92C64.7233 260.294 65.4777 260.668 66.232 261.042C66.9864 261.416 67.7408 261.79 68.4951 262.164C69.2495 262.537 70.0038 262.837 70.7582 263.21C72.1914 263.883 73.6247 264.631 75.058 265.379C73.7001 264.556 72.3423 263.659 71.0599 262.762C70.381 262.313 69.7021 261.79 69.0231 261.341C68.3442 260.892 67.6653 260.444 66.911 259.995C66.232 259.546 65.4777 259.098 64.7988 258.649C64.1199 258.2 63.4409 257.752 62.6866 257.303C61.3288 256.331 59.8955 255.434 58.5376 254.462C59.9709 255.359 61.3288 256.256 62.762 257.154C63.4409 257.602 64.1199 258.051 64.8742 258.574C65.5531 259.023 66.232 259.546 66.911 259.995C67.5899 260.444 68.2688 260.967 68.9477 261.416C69.6266 261.864 70.381 262.313 71.0599 262.762C72.4177 263.659 73.7001 264.556 75.058 265.454C73.851 264.407 72.644 263.36 71.4371 262.313C70.8336 261.715 70.2301 261.191 69.6266 260.593C69.0232 260.07 68.3442 259.472 67.7408 258.948C67.1373 258.425 66.4584 257.827 65.8549 257.303C65.2514 256.78 64.5725 256.181 63.969 255.658C62.762 254.536 61.4796 253.415 60.2727 252.293C61.5551 253.34 62.8375 254.462 64.0444 255.583C64.6479 256.107 65.2514 256.705 65.9303 257.228C66.5338 257.752 67.1373 258.35 67.7408 258.948C68.3442 259.546 68.9477 260.07 69.6266 260.593C70.2301 261.117 70.909 261.715 71.5125 262.238C72.7195 263.285 73.9264 264.407 75.058 265.454C74.0019 264.257 72.9458 263.061 71.8897 261.864C71.3616 261.191 70.8336 260.593 70.3055 259.92C69.7775 259.247 69.2495 258.649 68.646 258.051C68.1179 257.453 67.5144 256.78 66.9864 256.182C66.4584 255.583 65.9303 254.91 65.3268 254.312C64.2707 253.041 63.2146 251.77 62.1585 250.424C63.2901 251.695 64.3462 252.891 65.4777 254.163C66.0057 254.761 66.5338 255.434 67.0618 256.107C67.5899 256.78 68.1179 257.378 68.646 258.051C69.174 258.724 69.7021 259.322 70.2301 259.995C70.7582 260.593 71.3616 261.266 71.8897 261.864C72.9458 263.061 73.9264 264.257 74.9071 265.528C74.0019 264.257 73.1721 262.911 72.3423 261.565C71.8897 260.818 71.5125 260.145 71.0599 259.397C70.6073 258.724 70.1547 257.976 69.7021 257.303C69.2495 256.63 68.7968 255.882 68.3442 255.209C67.8916 254.536 67.439 253.789 66.9864 253.116C66.0812 251.695 65.2514 250.274 64.4216 248.853C65.3268 250.199 66.232 251.62 67.1373 253.041C67.5899 253.714 68.0425 254.462 68.4951 255.135C68.9477 255.808 69.4003 256.555 69.7775 257.228C70.2301 257.976 70.6073 258.649 71.0599 259.322C71.5125 259.995 71.9651 260.743 72.4177 261.416C73.2475 262.687 74.0773 264.033 74.8317 265.379C74.1527 264.033 73.4738 262.612 72.8703 261.191C72.5686 260.444 72.1914 259.696 71.8897 258.873C71.5879 258.126 71.2108 257.378 70.8336 256.63C70.4564 255.882 70.1547 255.135 69.7775 254.387C69.4003 253.639 69.0986 252.891 68.7214 252.144C68.0425 250.648 67.3636 249.078 66.7601 247.582C67.5144 249.078 68.1934 250.573 68.8723 252.069C69.2495 252.817 69.5512 253.564 69.8529 254.312C70.1547 255.06 70.5319 255.808 70.8336 256.63C71.1353 257.378 71.5125 258.126 71.8142 258.948C72.1914 259.696 72.4932 260.444 72.8703 261.191C73.4738 262.537 74.0773 263.958 74.6808 265.379V265.304C74.2282 263.883 73.7756 262.463 73.3984 261.042C73.1721 260.219 72.9458 259.472 72.7195 258.649C72.4932 257.827 72.2669 257.079 72.0406 256.256C71.8143 255.434 71.5125 254.686 71.2862 253.863C71.0599 253.041 70.8336 252.293 70.6073 251.471C70.1547 249.9 69.7021 248.255 69.3249 246.685C69.8529 248.255 70.3055 249.826 70.7582 251.471C70.9845 252.293 71.2108 253.041 71.4371 253.863C71.6634 254.686 71.8897 255.434 72.116 256.256C72.3423 257.079 72.5686 257.827 72.7949 258.649C73.0212 259.472 73.323 260.219 73.5493 261.042C73.9264 262.388 74.3036 263.809 74.6808 265.155V264.855C74.4545 263.584 74.2282 262.238 74.0773 260.967C74.0019 260.145 73.851 259.322 73.7756 258.5C73.7001 257.677 73.5493 256.854 73.3984 256.032C73.2475 255.209 73.1721 254.387 73.0212 253.564C72.8703 252.742 72.7949 251.919 72.644 251.097C72.4177 249.452 72.1914 247.807 72.0406 246.162C72.3423 247.807 72.5686 249.452 72.7949 251.097C72.9458 251.919 73.0212 252.742 73.0967 253.564C73.1721 254.387 73.323 255.209 73.3984 256.032C73.4738 256.854 73.6247 257.677 73.7001 258.5C73.851 259.322 74.0019 260.145 74.0773 260.967C74.2282 262.089 74.3791 263.21 74.5299 264.332V242.273C61.4796 241.226 50.6924 251.845 50.6924 265.005Z" fill="url(#paint16_radial_239_993)"/>
<path d="M73.8511 257.453C73.7002 256.63 73.6248 255.808 73.5494 254.985C73.4739 254.163 73.3231 253.34 73.2476 252.517C73.1722 251.695 73.0213 250.872 72.9459 250.05C72.7196 248.405 72.4178 246.76 72.1915 245.115C72.3424 246.76 72.5687 248.405 72.795 250.05C72.9459 250.872 73.0213 251.695 73.1722 252.517C73.3231 253.34 73.3985 254.163 73.5494 254.985C73.5494 255.808 73.7002 256.63 73.8511 257.453C73.9265 258.275 74.002 259.098 74.0774 259.92C74.2283 261.266 74.4546 262.537 74.6809 263.809V263.21C74.53 262.089 74.3791 260.967 74.2283 259.845C74.1528 259.098 74.002 258.275 73.8511 257.453Z" fill="white"/>
<path d="M72.795 257.677C72.5687 256.854 72.3424 256.107 72.1161 255.284C71.8897 254.462 71.6634 253.714 71.4371 252.891C71.2108 252.069 70.9845 251.321 70.7582 250.499C70.3056 248.928 69.7776 247.283 69.325 245.713C69.7021 247.358 70.1547 248.928 70.6073 250.499C70.8337 251.321 71.06 252.069 71.2863 252.891C71.5126 253.714 71.7389 254.462 72.0406 255.284C72.2669 256.107 72.5687 256.854 72.795 257.677C72.9458 258.5 73.1721 259.322 73.3985 260.07C73.7756 261.491 74.2282 262.911 74.6808 264.332V264.182C74.3037 262.836 73.9265 261.416 73.5493 260.07C73.323 259.247 73.0967 258.5 72.795 257.677Z" fill="white"/>
<path d="M71.8143 257.976C71.4371 257.228 71.1354 256.481 70.8336 255.658C70.5319 254.91 70.1547 254.162 69.853 253.34C69.5512 252.592 69.1741 251.844 68.8723 251.097C68.1934 249.601 67.5145 248.106 66.7601 246.61C67.3636 248.18 68.0425 249.676 68.7214 251.171C69.0232 251.919 69.4004 252.667 69.7775 253.415C70.1547 254.162 70.4565 254.91 70.8336 255.658C71.0599 256.555 71.4371 257.303 71.8143 257.976C72.116 258.724 72.4178 259.546 72.7195 260.294C73.323 261.715 74.0019 263.061 74.6808 264.482V264.407C74.0774 262.986 73.4739 261.64 72.8704 260.219C72.5686 259.546 72.1915 258.799 71.8143 257.976Z" fill="white"/>
<path d="M70.9091 258.499C70.4564 257.826 70.0038 257.079 69.6267 256.406C69.174 255.658 68.7969 254.985 68.3443 254.312C67.8916 253.639 67.439 252.891 66.9864 252.218C66.0812 250.798 65.176 249.452 64.2708 248.031C65.1005 249.452 66.0058 250.872 66.8356 252.293C67.2882 252.966 67.7408 253.714 68.1934 254.387C68.646 255.06 69.0986 255.808 69.5512 256.48C69.9284 257.079 70.381 257.826 70.9091 258.499C71.2862 259.247 71.7388 259.92 72.116 260.668C72.9458 262.014 73.7756 263.285 74.6808 264.631V264.556C73.9265 263.21 73.0967 261.864 72.2669 260.593C71.8143 259.845 71.3617 259.172 70.9091 258.499Z" fill="white"/>
<path d="M70.0038 259.098C69.4758 258.5 68.9477 257.827 68.4197 257.154C67.8916 256.481 67.3636 255.882 66.8355 255.209C66.3075 254.536 65.7794 253.938 65.2514 253.265C64.1953 251.994 63.0638 250.723 61.9323 249.526C62.9883 250.798 64.0444 252.144 65.1005 253.415C65.6286 254.088 66.1566 254.686 66.7601 255.284C67.2881 255.882 67.8162 256.555 68.4197 257.154C68.9477 257.827 69.4758 258.5 70.0038 259.098C70.4564 259.771 70.9845 260.444 71.5125 261.042C72.4932 262.238 73.5493 263.435 74.6808 264.631V264.556C73.7001 263.285 72.7195 262.089 71.6634 260.892C71.1353 260.369 70.6073 259.696 70.0038 259.098Z" fill="white"/>
<path d="M69.2495 259.771C68.6461 259.247 68.0426 258.649 67.3637 258.126C66.7602 257.527 66.1567 257.004 65.5532 256.406C64.9497 255.882 64.3462 255.284 63.6673 254.761C62.3849 253.639 61.178 252.592 59.8956 251.471C61.1025 252.592 62.3095 253.714 63.5919 254.835C64.1954 255.359 64.8743 255.957 65.4778 256.481C66.0813 257.004 66.7602 257.602 67.3637 258.126C67.9671 258.724 68.6461 259.247 69.2495 259.771C69.853 260.369 70.4565 260.967 71.06 261.491C72.2669 262.537 73.4739 263.584 74.6809 264.631C73.3985 263.659 72.0406 262.762 70.6828 261.939C70.0039 261.491 69.2495 261.042 68.5706 260.593C67.8917 260.145 67.2128 259.696 66.5339 259.172C65.8549 258.724 65.176 258.2 64.4971 257.752C63.8182 257.303 63.1393 256.78 62.3849 256.331C61.0271 255.434 59.5938 254.536 58.1606 253.639C59.5184 254.611 60.8762 255.583 62.3095 256.481C62.9884 256.929 63.6673 257.378 64.4217 257.827C65.1006 258.275 65.8549 258.724 66.5339 259.172C67.2128 259.621 67.9671 260.07 68.6461 260.518C69.325 260.967 70.0039 261.491 70.6828 261.939C72.0406 262.836 73.323 263.734 74.6809 264.556C73.2476 263.809 71.8143 263.061 70.3811 262.388C69.6267 262.014 68.8724 261.715 68.118 261.341C67.3637 260.967 66.6093 260.593 65.855 260.219C65.1006 259.845 64.3463 259.472 63.5919 259.098C62.8375 258.724 62.0832 258.35 61.3288 257.976C59.8201 257.228 58.3114 256.555 56.8027 255.882C58.3114 256.63 59.7447 257.378 61.2534 258.126C62.0078 258.5 62.7621 258.873 63.5165 259.172C64.2708 259.546 65.0252 259.92 65.7795 260.219C66.5339 260.593 67.2882 260.892 68.0426 261.266C68.7969 261.64 69.5513 262.014 70.3056 262.388C71.7389 263.061 73.1722 263.809 74.6809 264.407C73.1722 263.883 71.6635 263.36 70.0793 262.836C69.2495 262.612 68.4952 262.388 67.6654 262.089C66.8356 261.864 66.0813 261.565 65.2515 261.266C64.4971 260.967 63.6673 260.743 62.8375 260.444C62.0078 260.145 61.2534 259.92 60.4236 259.696C58.8395 259.172 57.2553 258.724 55.5958 258.275C57.1799 258.873 58.764 259.397 60.3482 259.92C61.178 260.145 61.9323 260.444 62.7621 260.668C63.5919 260.892 64.3462 261.191 65.176 261.416C66.0058 261.64 66.7602 261.939 67.59 262.164C68.4197 262.463 69.1741 262.687 69.9284 262.986C71.4372 263.509 72.9459 263.958 74.53 264.407C72.9459 264.108 71.3617 263.809 69.7776 263.509C68.9478 263.36 68.118 263.285 67.2882 263.136C66.4584 262.986 65.6286 262.836 64.7989 262.687C63.9691 262.537 63.1393 262.388 62.3095 262.238C61.4797 262.089 60.6499 261.939 59.8201 261.79C58.1606 261.491 56.501 261.266 54.8414 261.042C56.501 261.416 58.1606 261.715 59.7447 262.014C60.5745 262.164 61.4043 262.313 62.2341 262.463C63.0638 262.612 63.8936 262.762 64.7234 262.836C65.5532 262.986 66.383 263.136 67.2128 263.285C68.0426 263.435 68.8724 263.584 69.7021 263.734C71.2863 264.033 72.8704 264.257 74.4546 264.482C72.8704 264.407 71.2109 264.332 69.6267 264.257C68.7969 264.257 67.9671 264.257 67.1373 264.182C66.3076 264.182 65.4778 264.108 64.648 264.108C63.8182 264.033 62.9884 264.033 62.1586 263.958C61.3288 263.958 60.4991 263.883 59.6693 263.883C58.0097 263.809 56.3501 263.809 54.6151 263.809C56.2747 263.958 57.9343 264.033 59.5938 264.033C60.4236 264.033 61.2534 264.108 62.0832 264.108C62.913 264.108 63.7428 264.182 64.5726 264.182C65.4023 264.182 66.2321 264.182 67.0619 264.257C67.8917 264.257 68.7215 264.332 69.5513 264.407C71.1354 264.482 72.795 264.482 74.3791 264.482C72.795 264.556 71.1354 264.706 69.5513 264.93C68.7215 265.005 67.8917 265.155 67.0619 265.229C66.2321 265.304 65.4023 265.379 64.5726 265.454C63.7428 265.528 62.913 265.603 62.0832 265.678C61.2534 265.753 60.4236 265.828 59.5938 265.902C57.9343 266.052 56.2747 266.276 54.6151 266.5C56.2747 266.351 57.9343 266.201 59.5938 266.052C60.4236 265.977 61.2534 265.902 62.0832 265.753C62.913 265.678 63.7428 265.528 64.5726 265.454C65.4023 265.379 66.2321 265.229 67.0619 265.155C67.8917 265.08 68.7215 265.005 69.5513 264.93C71.1354 264.781 72.7196 264.556 74.3037 264.407C72.7196 264.706 71.1354 265.08 69.6267 265.528C68.7969 265.753 68.0426 265.977 67.2128 266.201C66.383 266.426 65.5532 266.575 64.7989 266.8C63.9691 266.949 63.1393 267.173 62.3849 267.398C61.5551 267.622 60.7254 267.772 59.971 267.996C58.3114 268.37 56.7273 268.819 55.1432 269.267C56.8027 268.893 58.3869 268.519 60.0464 268.146C60.8762 267.921 61.706 267.772 62.4604 267.547C63.2902 267.323 64.0445 267.099 64.8743 266.874C65.7041 266.65 66.4584 266.426 67.2882 266.276C68.118 266.052 68.9478 265.902 69.7021 265.753C71.2863 265.379 72.795 265.005 74.3791 264.556C72.8704 265.08 71.3617 265.678 69.853 266.276C69.0987 266.575 68.3443 266.949 67.5145 267.248C66.7602 267.547 65.9304 267.846 65.176 268.146C64.4217 268.445 63.5919 268.744 62.8375 269.043C62.0832 269.342 61.2534 269.641 60.4991 269.94C58.9149 270.538 57.4062 271.211 55.8975 271.884C57.4816 271.286 59.0658 270.688 60.5745 270.09C61.3288 269.791 62.1586 269.492 62.913 269.118C63.6673 268.819 64.4217 268.445 65.2515 268.146C66.0058 267.846 66.7602 267.473 67.59 267.173C68.3443 266.874 69.1741 266.575 69.9284 266.276C71.4372 265.678 72.8704 265.08 74.3791 264.407C72.9459 265.155 71.588 265.902 70.1548 266.725C69.4004 267.173 68.7215 267.622 67.9671 267.996C67.2128 268.445 66.5339 268.819 65.7795 269.192C65.0252 269.566 64.3463 270.015 63.5919 270.389C62.8375 270.763 62.1586 271.211 61.4043 271.66C59.971 272.483 58.5377 273.38 57.1045 274.202C58.6132 273.455 60.0464 272.632 61.4797 271.81C62.2341 271.361 62.913 270.987 63.6673 270.538C64.4217 270.09 65.1006 269.716 65.855 269.267C66.6093 268.819 67.2882 268.445 68.0426 267.996C68.7969 267.622 69.4758 267.173 70.2302 266.8C71.6635 266.052 73.0213 265.229 74.3791 264.332C73.0967 265.304 71.8143 266.201 70.5319 267.248C69.853 267.772 69.2495 268.295 68.5706 268.819C67.8917 269.342 67.2128 269.865 66.6093 270.314C65.9304 270.837 65.2515 271.286 64.5726 271.81C63.8936 272.333 63.2147 272.856 62.6112 273.305C61.3288 274.352 59.971 275.399 58.6886 276.446C60.0464 275.474 61.4043 274.502 62.6867 273.455C63.3656 272.931 63.9691 272.408 64.648 271.884C65.3269 271.361 65.9304 270.837 66.6093 270.314C67.2882 269.791 67.8917 269.267 68.5706 268.744C69.2495 268.22 69.9284 267.772 70.6074 267.248C71.8898 266.276 73.0967 265.304 74.3791 264.257C73.2476 265.379 72.1161 266.5 70.9845 267.622C70.3811 268.22 69.853 268.819 69.2495 269.417C68.6461 270.015 68.118 270.613 67.5145 271.211C66.911 271.81 66.3076 272.408 65.7795 273.006C65.176 273.604 64.5726 274.202 64.0445 274.801C62.913 275.997 61.706 277.193 60.6499 278.465C61.8569 277.343 63.0638 276.147 64.1954 274.95C64.7989 274.352 65.3269 273.754 65.9304 273.156C66.5339 272.557 67.0619 271.959 67.6654 271.361C68.2689 270.763 68.7969 270.165 69.4004 269.566C70.0039 268.968 70.6074 268.37 71.2108 267.772C72.3424 266.65 73.3985 265.454 74.53 264.332C73.5493 265.603 72.5687 266.874 71.6635 268.146C71.2108 268.819 70.6828 269.492 70.2302 270.165C69.7776 270.837 69.2495 271.51 68.7215 272.183C68.1934 272.856 67.7408 273.529 67.2128 274.202C66.6847 274.875 66.2321 275.548 65.7041 276.221C64.7234 277.567 63.7428 278.913 62.8375 280.334C63.8936 278.988 64.8743 277.717 65.855 276.371C66.383 275.698 66.8356 275.025 67.2882 274.352C67.7408 273.679 68.2689 273.006 68.7215 272.333C69.1741 271.66 69.7021 270.987 70.1548 270.314C70.6828 269.641 71.1354 268.968 71.6635 268.295C72.6441 267.024 73.5493 265.753 74.4546 264.407C73.6248 265.753 72.8704 267.173 72.1161 268.594C71.7389 269.342 71.3617 270.09 70.9845 270.838C70.6074 271.585 70.2302 272.333 69.7776 273.006C69.4004 273.754 68.9478 274.427 68.5706 275.174C68.1934 275.922 67.7408 276.67 67.3637 277.343C66.6093 278.838 65.855 280.259 65.1006 281.755C65.9304 280.334 66.7602 278.838 67.5145 277.418C67.8917 276.67 68.2689 275.922 68.6461 275.249C69.0232 274.502 69.4004 273.754 69.7776 273.006C70.1548 272.258 70.5319 271.51 70.9091 270.763C71.2863 270.015 71.7389 269.342 72.1161 268.594C72.8704 267.173 73.6248 265.753 74.3037 264.332C73.7002 265.828 73.0967 267.323 72.5687 268.819C72.2669 269.566 72.0406 270.389 71.7389 271.137C71.4372 271.884 71.1354 272.707 70.8337 273.455C70.5319 274.202 70.2302 275.025 69.9284 275.773C69.6267 276.52 69.325 277.343 69.0232 278.091C68.4952 279.661 67.8917 281.231 67.3637 282.802C67.9671 281.231 68.5706 279.736 69.1741 278.166C69.4758 277.418 69.7776 276.595 70.0039 275.847C70.3056 275.1 70.5319 274.277 70.8337 273.529C71.1354 272.782 71.3617 271.959 71.6635 271.211C71.9652 270.464 72.2669 269.641 72.5687 268.893C73.0967 267.398 73.6248 265.902 74.1528 264.407C73.7756 265.977 73.3985 267.547 73.0967 269.043C72.9459 269.865 72.795 270.688 72.6441 271.51C72.4932 272.333 72.2669 273.156 72.1161 273.903C71.8898 274.726 71.7389 275.548 71.588 276.296C71.4372 277.119 71.2108 277.941 71.06 278.764C70.7582 280.409 70.3811 281.979 70.0793 283.624C70.4565 281.979 70.8337 280.409 71.2108 278.764C71.3617 277.941 71.588 277.119 71.7389 276.296C71.8898 275.474 72.0406 274.651 72.1915 273.829C72.3424 273.006 72.4932 272.183 72.7196 271.361C72.8704 270.538 73.0967 269.716 73.323 268.968C73.7002 267.398 74.002 265.828 74.2283 264.257C74.0774 265.828 73.9265 267.398 73.8511 269.043C73.7756 269.865 73.7756 270.688 73.7002 271.51C73.6248 272.333 73.5493 273.156 73.4739 273.978C73.3985 274.801 73.323 275.623 73.2476 276.446C73.1722 277.268 73.0967 278.091 73.0967 278.913C73.0213 280.558 72.8704 282.203 72.8704 283.848C73.0213 282.203 73.1722 280.558 73.323 278.913C73.3985 278.091 73.3985 277.268 73.4739 276.446C73.5493 275.623 73.5493 274.801 73.6248 273.978C73.7002 273.156 73.7002 272.333 73.7756 271.51C73.8511 270.688 73.9265 269.865 74.0019 269.043C74.1528 267.473 74.2283 265.902 74.3037 264.257C74.3037 264.407 74.3037 264.556 74.3037 264.631V264.108V263.958C73.1722 262.836 71.9652 261.79 70.7582 260.743C70.5319 260.892 69.9285 260.369 69.2495 259.771Z" fill="white"/>
<path d="M30.7776 232.552L38.9246 260.369L46.9962 232.552H30.7776Z" fill="url(#paint17_linear_239_993)"/>
<path d="M27.3076 300H50.4662L38.9246 260.369L27.3076 300Z" fill="url(#paint18_linear_239_993)"/>
<path d="M38.9247 34.322L38.7738 34.6211L39.3773 33.7986H39.151L38.9247 34.322Z" fill="white"/>
<path d="M46.3927 0.897316C46.3927 0.897316 46.3173 0.897316 46.3927 0.897316C46.3173 0.897316 46.3173 0.897316 46.3927 0.897316C46.3173 0.82254 46.3173 0.82254 46.3927 0.897316C46.3173 0.897316 46.3173 0.897316 46.3173 0.897316C45.7138 0.747765 45.2612 0.672989 44.8086 0.598213C44.8086 0.598213 44.8086 0.598213 44.7332 0.598213C44.7332 0.598213 44.7332 0.598213 44.6577 0.598213C44.6577 0.598213 44.6577 0.598213 44.5823 0.598213C44.5069 0.598213 44.4314 0.598213 44.356 0.598213C44.356 0.598213 44.356 0.598213 44.2806 0.598213C44.2806 0.598213 44.2806 0.598213 44.2051 0.598213C44.2051 0.598213 44.2051 0.598213 44.1297 0.598213C44.1297 0.598213 44.1297 0.598213 44.0543 0.598213C44.0543 0.598213 44.0543 0.598213 43.9788 0.598213C43.9788 0.598213 43.9788 0.598213 43.9034 0.598213H43.8279C43.8279 0.598213 43.8279 0.598213 43.7525 0.598213C43.7525 0.598213 43.7525 0.598213 43.6771 0.598213C43.6771 0.598213 43.6771 0.598213 43.6016 0.598213C43.6016 0.598213 43.6016 0.598213 43.5262 0.598213C43.5262 0.598213 43.5262 0.598213 43.4508 0.598213C43.2999 0.598213 43.149 0.523438 42.9982 0.523438L38.472 36.0419H38.6229L46.3927 0.897316Z" fill="url(#paint19_linear_239_993)"/>
<path d="M63.8937 9.87041C63.8182 9.79564 63.6674 9.72086 63.5919 9.57131C63.5919 9.57131 63.5919 9.57131 63.5165 9.57131C63.5165 9.57131 63.5165 9.57131 63.4411 9.49654C63.4411 9.49654 63.4411 9.49654 63.3656 9.49654C63.3656 9.49654 63.3656 9.49654 63.2902 9.49654C62.9884 9.19743 62.6113 8.89833 62.2341 8.674C62.2341 8.674 62.2341 8.674 62.1587 8.59923C62.0832 8.52445 62.0078 8.52445 62.0078 8.44968C62.0078 8.44968 61.9324 8.44968 61.9324 8.3749C61.8569 8.30013 61.7815 8.22535 61.706 8.15057L39.8298 36.4158H40.1316L63.8937 9.87041Z" fill="url(#paint20_linear_239_993)"/>
<path d="M68.4198 14.7308C68.2689 14.5812 68.1935 14.4317 68.0426 14.2821L67.9672 14.2074C67.8917 14.1326 67.8917 14.0578 67.8163 14.0578C67.8163 14.0578 67.8163 14.0578 67.8163 13.983C67.6654 13.7587 67.5146 13.6092 67.2883 13.3848C67.2883 13.3848 67.2883 13.3848 67.2128 13.3101C67.1374 13.2353 67.1374 13.2353 67.062 13.1605C67.062 13.1605 67.062 13.1605 67.062 13.0857L66.9865 13.011C66.9111 12.9362 66.8356 12.7866 66.6848 12.7119L40.207 36.0419H40.5842L68.4198 14.7308Z" fill="url(#paint21_linear_239_993)"/>
<path d="M14.8609 7.92621C14.5591 8.15054 14.2574 8.37486 13.9556 8.59919C13.8802 8.67396 13.8802 8.67396 13.8048 8.74874C13.8048 8.74874 13.8048 8.74874 13.7293 8.74874L13.6539 8.82352C13.6539 8.82352 13.6539 8.82352 13.5785 8.82352C13.4276 8.97307 13.3522 9.04784 13.2013 9.19739L37.4914 35.2193H37.7932L14.8609 7.92621Z" fill="url(#paint22_linear_239_993)"/>
<path d="M52.7293 2.84148C52.5784 2.7667 52.503 2.7667 52.3521 2.69192C52.3521 2.69192 52.3521 2.69192 52.2767 2.69192C52.2767 2.69192 52.2767 2.69192 52.2013 2.69192C52.2013 2.69192 52.1258 2.69192 52.1258 2.61715C52.1258 2.61715 52.1258 2.61715 52.0504 2.61715C52.0504 2.61715 52.0504 2.61715 51.975 2.61715C51.2206 2.31805 50.3908 2.01894 49.561 1.79462L38.7738 36.0419H38.9247L52.7293 2.84148Z" fill="url(#paint23_linear_239_993)"/>
<path d="M72.0407 20.339C71.9653 20.1894 71.8899 20.0399 71.8144 19.8903C71.5881 19.5165 71.4373 19.1426 71.211 18.8435C71.211 18.8435 71.211 18.8435 71.211 18.7687C70.9846 18.4696 70.8338 18.1705 70.6075 17.8714L41.0369 36.0419H41.6403L72.0407 20.339Z" fill="url(#paint24_linear_239_993)"/>
<path d="M33.116 0.373901C33.0406 0.373901 32.8897 0.373901 32.8143 0.448677C32.8143 0.448677 32.8143 0.448677 32.7389 0.448677C32.7389 0.448677 32.7389 0.448677 32.6634 0.448677C32.6634 0.448677 32.6634 0.448677 32.588 0.448677C31.9845 0.523453 31.381 0.673004 30.7776 0.74778C30.7776 0.74778 30.7776 0.74778 30.7021 0.74778C30.7021 0.74778 30.7021 0.74778 30.6267 0.74778C30.4758 0.74778 30.3249 0.822555 30.1741 0.822555L38.0948 35.9671H38.2456L33.116 0.373901Z" fill="url(#paint25_linear_239_993)"/>
<path d="M26.6287 1.79462C26.4778 1.86939 26.4024 1.86939 26.2515 1.94417C26.2515 1.94417 26.2515 1.94417 26.1761 1.94417C26.1761 1.94417 26.1761 1.94417 26.1007 1.94417C26.1007 1.94417 26.1007 1.94417 26.0252 1.94417C26.0252 1.94417 26.0252 1.94417 25.9498 1.94417C25.9498 1.94417 25.9498 1.94417 25.8744 1.94417H25.7989C25.7989 1.94417 25.7989 1.94417 25.7235 1.94417C25.7235 1.94417 25.7235 1.94417 25.6481 1.94417C25.6481 1.94417 25.6481 1.94417 25.5726 1.94417C25.5726 1.94417 25.5726 1.94417 25.4972 1.94417C25.4972 1.94417 25.4972 1.94417 25.4217 1.94417C25.4217 1.94417 25.4217 1.94417 25.3463 1.94417C25.3463 1.94417 25.3463 1.94417 25.2709 1.94417C25.1954 1.94417 25.12 2.01894 25.0446 2.01894C25.0446 2.01894 25.0446 2.01894 24.9691 2.01894C24.9691 2.01894 24.9691 2.01894 24.8937 2.01894C24.8937 2.01894 24.8937 2.01894 24.8183 2.01894C24.2902 2.24327 23.7622 2.39282 23.1587 2.61715L37.1142 35.7428H37.2651L26.6287 1.79462Z" fill="url(#paint26_linear_239_993)"/>
<path d="M58.6133 5.90727C57.6326 5.30907 56.7274 4.78564 55.7467 4.26221L39.0756 36.0419H39.2264L58.6133 5.90727Z" fill="url(#paint27_linear_239_993)"/>
<path d="M39.7544 0C39.1509 0 38.6228 0 38.0194 0C38.0194 0 38.0194 0 37.9439 0C37.9439 0 37.9439 0 37.8685 0C37.8685 0 37.8685 0 37.793 0C37.793 0 37.793 0 37.7176 0C37.7176 0 37.7176 0 37.6422 0C37.5667 0 37.5667 0 37.4913 0C37.4913 0 37.4913 0 37.4159 0C37.4159 0 37.4159 0 37.3404 0C37.3404 0 37.3404 0 37.265 0H37.1896C37.1896 0 37.1896 0 37.1141 0H37.0387L38.6983 35.9671H38.8491L39.7544 0Z" fill="url(#paint28_linear_239_993)"/>
<path d="M20.4431 4.33698C20.0659 4.5613 19.6133 4.78563 19.2361 5.00996C19.2361 5.00996 19.2361 5.00996 19.1607 5.00996C19.1607 5.00996 19.1607 5.00996 19.0853 5.00996C19.0853 5.00996 19.0853 5.00996 19.0098 5.00996L18.9344 5.08473C18.5572 5.30906 18.1046 5.53339 17.7274 5.83249L37.1897 35.8923H37.3406L20.4431 4.33698Z" fill="url(#paint29_linear_239_993)"/>
<path d="M9.95754 12.4128C9.58036 12.7867 9.20318 13.2353 8.90144 13.684L8.82601 13.7587C8.82601 13.7587 8.82601 13.7587 8.82601 13.8335C8.82601 13.8335 8.82601 13.8335 8.82601 13.9083C8.5997 14.2074 8.29796 14.5065 8.07166 14.8804L35.9827 35.9671H36.209L9.95754 12.4128Z" fill="url(#paint30_linear_239_993)"/>
<path d="M5.95953 17.6471C5.65779 18.1705 5.35604 18.6192 5.0543 19.1426C5.0543 19.1426 5.0543 19.1426 5.0543 19.2174C4.97887 19.2922 4.97887 19.3669 4.90343 19.4417C4.90343 19.4417 4.90343 19.4417 4.90343 19.5165C4.90343 19.5165 4.90343 19.5165 4.90343 19.5913C4.90343 19.5913 4.90343 19.5913 4.90343 19.666L4.828 19.7408C4.828 19.7408 4.828 19.8156 4.75256 19.8156L34.7003 36.0419H35.3038L5.95953 17.6471Z" fill="url(#paint31_linear_239_993)"/>
<path d="M73.0213 33.7986H41.3386H40.8105H40.4333H40.0562H39.679H39.3772L38.7738 34.6211L38.9246 34.322C38.9246 34.322 38.8492 34.322 38.8492 34.2472L39.1509 33.7238H39.0001H38.8492H38.6983H38.5474H38.3966H38.2457H38.0948H37.944H37.7931H37.6422H37.4914H37.3405H37.1896H36.9633H36.737H36.3598H35.9827H35.53H35.002H3.31921V34.995C3.31921 34.995 3.31921 34.995 3.31921 35.0698V36.4905H29.3444C29.4198 39.8554 29.118 43.2203 28.3637 46.5105C27.5339 50.2492 26.1006 53.7637 23.913 56.9043C21.8008 60.0449 18.9343 62.662 15.5397 64.3818C12.1451 66.1765 8.2225 67.0738 4.22444 67.2981V69.7657C8.52424 69.9152 12.9749 69.317 17.0484 67.5972C21.1974 65.9521 24.8182 63.1107 27.6848 59.671C30.5513 56.2313 32.5881 52.1934 33.9459 48.006C35.1529 44.2672 35.8318 40.3789 36.1335 36.4157H41.942C41.942 40.0797 42.3192 43.8185 43.149 47.4825C44.1297 51.5952 45.7892 55.7079 48.4295 59.2971C48.7312 59.7458 49.1084 60.1944 49.4856 60.5683L50.5416 61.8395C51.296 62.662 52.2012 63.4098 53.031 64.1575C53.9362 64.8305 54.8415 65.5035 55.8221 66.1017L57.3308 66.9242C57.8589 67.2233 58.3115 67.5224 58.8395 67.672C62.9885 69.5414 67.4391 70.3639 71.8144 70.5134V63.6341C68.1935 63.7089 64.5726 63.2602 61.2534 61.989C60.8008 61.8395 60.4237 61.6151 60.0465 61.4656L58.8395 61.0917C58.0852 60.6431 57.3308 60.1944 56.5765 59.671C55.8975 59.0728 55.2186 58.5493 54.5397 57.9511L53.6345 56.979C53.3327 56.6799 53.031 56.3808 52.7293 56.007C50.4662 53.2403 48.8066 49.8754 47.7505 46.3609C46.7699 43.2203 46.3173 39.8554 46.091 36.4905H73.0213V33.7986V33.7986Z" fill="white"/>
</g>
<g clip-path="url(#clip1_239_993)">
<path d="M133.764 449.757C133.766 450.567 133.526 451.359 133.077 452.034C132.628 452.708 131.988 453.234 131.24 453.544C130.492 453.855 129.668 453.937 128.873 453.779C128.079 453.621 127.348 453.231 126.775 452.658C126.203 452.085 125.813 451.355 125.655 450.56C125.497 449.766 125.579 448.942 125.889 448.194C126.2 447.445 126.726 446.806 127.4 446.357C128.074 445.907 128.867 445.668 129.677 445.67C130.761 445.67 131.801 446.1 132.567 446.867C133.334 447.633 133.764 448.673 133.764 449.757V449.757Z" stroke="white" stroke-miterlimit="10"/>
<path d="M138.58 442.452C139.396 441.773 140.39 441.341 141.443 441.206C142.497 441.071 143.567 441.239 144.528 441.69C145.49 442.141 146.303 442.857 146.873 443.753C147.443 444.65 147.745 445.69 147.745 446.752C147.745 447.814 147.443 448.854 146.873 449.751C146.303 450.647 145.49 451.363 144.528 451.814C143.567 452.265 142.497 452.433 141.443 452.298C140.39 452.163 139.396 451.731 138.58 451.052V451.052C139.396 450.373 140.39 449.94 141.443 449.805C142.497 449.67 143.567 449.838 144.528 450.289C145.49 450.741 146.303 451.456 146.873 452.353C147.443 453.249 147.745 454.289 147.745 455.351C147.745 456.413 147.443 457.454 146.873 458.35C146.303 459.246 145.49 459.962 144.528 460.413C143.567 460.864 142.497 461.032 141.443 460.897C140.39 460.762 139.396 460.33 138.58 459.651" stroke="white" stroke-miterlimit="10"/>
<path d="M145.715 459.651C144.898 460.328 143.905 460.759 142.853 460.893C141.8 461.026 140.731 460.858 139.77 460.407C138.81 459.955 137.997 459.24 137.428 458.344C136.859 457.448 136.557 456.409 136.556 455.348" stroke="white" stroke-miterlimit="10"/>
<path d="M122.771 416.634C131.915 416.634 139.328 409.221 139.328 400.077C139.328 390.932 131.915 383.519 122.771 383.519C113.626 383.519 106.213 390.932 106.213 400.077C106.213 409.221 113.626 416.634 122.771 416.634Z" fill="url(#paint32_linear_239_993)"/>
<path d="M113.403 368.843L127.033 352.582" stroke="white" stroke-miterlimit="10"/>
<path d="M148.663 368.634C148.663 369.953 148.272 371.243 147.539 372.34C146.806 373.437 145.764 374.292 144.545 374.797C143.326 375.301 141.985 375.434 140.691 375.176C139.397 374.919 138.209 374.284 137.276 373.351C136.343 372.418 135.708 371.229 135.45 369.935C135.193 368.641 135.325 367.3 135.83 366.081C136.335 364.863 137.19 363.821 138.287 363.088C139.384 362.355 140.673 361.964 141.992 361.964C143.762 361.964 145.458 362.667 146.709 363.917C147.96 365.168 148.663 366.865 148.663 368.634V368.634Z" stroke="white" stroke-miterlimit="10"/>
<path d="M113.403 452.731L127.033 436.463" stroke="white" stroke-miterlimit="10"/>
<path d="M97 342.337H99.718V359.738" stroke="white" stroke-miterlimit="10"/>
<path d="M109.315 342.337H112.033V359.738" stroke="white" stroke-miterlimit="10"/>
<path d="M126.642 360.284H129.367V377.678" stroke="white" stroke-miterlimit="10"/>
<path d="M107.144 425.82H109.862V443.221" stroke="white" stroke-miterlimit="10"/>
</g>
<defs>
<linearGradient id="paint0_linear_239_993" x1="33.5045" y1="98.6519" x2="68.542" y2="98.6519" gradientUnits="userSpaceOnUse">
<stop stop-color="white" stop-opacity="0.6"/>
<stop offset="0.0113241" stop-color="white" stop-opacity="0.6045"/>
<stop offset="1" stop-color="white"/>
</linearGradient>
<linearGradient id="paint1_linear_239_993" x1="33.5043" y1="106.267" x2="68.5418" y2="106.267" gradientUnits="userSpaceOnUse">
<stop stop-color="white" stop-opacity="0.6"/>
<stop offset="0.0113241" stop-color="white" stop-opacity="0.6045"/>
<stop offset="1" stop-color="white"/>
</linearGradient>
<linearGradient id="paint2_linear_239_993" x1="33.5042" y1="106.201" x2="68.542" y2="106.201" gradientUnits="userSpaceOnUse">
<stop stop-color="white" stop-opacity="0.6"/>
<stop offset="0.0113241" stop-color="white" stop-opacity="0.6045"/>
<stop offset="1" stop-color="white"/>
</linearGradient>
<linearGradient id="paint3_linear_239_993" x1="33.5044" y1="98.6519" x2="68.542" y2="98.6519" gradientUnits="userSpaceOnUse">
<stop stop-color="white" stop-opacity="0.6"/>
<stop offset="0.0113241" stop-color="white" stop-opacity="0.6045"/>
<stop offset="1" stop-color="white"/>
</linearGradient>
<linearGradient id="paint4_linear_239_993" x1="33.5042" y1="90.0974" x2="68.5419" y2="90.0974" gradientUnits="userSpaceOnUse">
<stop stop-color="white" stop-opacity="0.6"/>
<stop offset="0.0113241" stop-color="white" stop-opacity="0.6045"/>
<stop offset="1" stop-color="white"/>
</linearGradient>
<linearGradient id="paint5_linear_239_993" x1="33.5044" y1="90.0974" x2="68.5421" y2="90.0974" gradientUnits="userSpaceOnUse">
<stop stop-color="white" stop-opacity="0.6"/>
<stop offset="0.0113241" stop-color="white" stop-opacity="0.6045"/>
<stop offset="1" stop-color="white"/>
</linearGradient>
<linearGradient id="paint6_linear_239_993" x1="8.74817" y1="125.683" x2="8.74817" y2="91.6692" gradientUnits="userSpaceOnUse">
<stop stop-color="white" stop-opacity="0.8"/>
<stop offset="0.4818" stop-color="white" stop-opacity="0"/>
<stop offset="1" stop-color="white"/>
</linearGradient>
<linearGradient id="paint7_linear_239_993" x1="8.97288" y1="125.683" x2="8.97288" y2="91.6694" gradientUnits="userSpaceOnUse">
<stop stop-color="white" stop-opacity="0.8"/>
<stop offset="0.4818" stop-color="white" stop-opacity="0"/>
<stop offset="1" stop-color="white"/>
</linearGradient>
<linearGradient id="paint8_linear_239_993" x1="13.5953" y1="181.031" x2="13.5953" y2="154.764" gradientUnits="userSpaceOnUse">
<stop stop-color="white" stop-opacity="0.3"/>
<stop offset="1" stop-color="white"/>
</linearGradient>
<linearGradient id="paint9_linear_239_993" x1="13.5952" y1="181.032" x2="13.5952" y2="154.764" gradientUnits="userSpaceOnUse">
<stop stop-color="white" stop-opacity="0.3"/>
<stop offset="1" stop-color="white"/>
</linearGradient>
<linearGradient id="paint10_linear_239_993" x1="13.5953" y1="215.388" x2="13.5953" y2="189.12" gradientUnits="userSpaceOnUse">
<stop stop-color="white" stop-opacity="0.3"/>
<stop offset="1" stop-color="white"/>
</linearGradient>
<linearGradient id="paint11_linear_239_993" x1="13.5952" y1="215.388" x2="13.5952" y2="189.12" gradientUnits="userSpaceOnUse">
<stop stop-color="white" stop-opacity="0.3"/>
<stop offset="1" stop-color="white"/>
</linearGradient>
<radialGradient id="paint12_radial_239_993" cx="0" cy="0" r="1" gradientUnits="userSpaceOnUse" gradientTransform="translate(2.74083 264.988) scale(22.2461 22.053)">
<stop stop-color="white" stop-opacity="0"/>
<stop offset="0.8549" stop-color="white" stop-opacity="0.8549"/>
<stop offset="1" stop-color="white"/>
</radialGradient>
<radialGradient id="paint13_radial_239_993" cx="0" cy="0" r="1" gradientUnits="userSpaceOnUse" gradientTransform="translate(2.74076 264.988) scale(22.2458 22.049)">
<stop stop-color="white" stop-opacity="0"/>
<stop offset="0.8549" stop-color="white" stop-opacity="0.8549"/>
<stop offset="1" stop-color="white"/>
</radialGradient>
<radialGradient id="paint14_radial_239_993" cx="0" cy="0" r="1" gradientUnits="userSpaceOnUse" gradientTransform="translate(2.74053 264.988) scale(22.2599 22.072)">
<stop stop-color="white" stop-opacity="0"/>
<stop offset="0.8549" stop-color="white" stop-opacity="0.8549"/>
<stop offset="1" stop-color="white"/>
</radialGradient>
<radialGradient id="paint15_radial_239_993" cx="0" cy="0" r="1" gradientUnits="userSpaceOnUse" gradientTransform="translate(2.74054 264.988) scale(22.2479 22.0534)">
<stop stop-color="white" stop-opacity="0"/>
<stop offset="0.8549" stop-color="white" stop-opacity="0.8549"/>
<stop offset="1" stop-color="white"/>
</radialGradient>
<radialGradient id="paint16_radial_239_993" cx="0" cy="0" r="1" gradientUnits="userSpaceOnUse" gradientTransform="translate(74.9936 264.988) rotate(180) scale(22.2479 22.0534)">
<stop stop-color="white" stop-opacity="0"/>
<stop offset="0.8549" stop-color="white" stop-opacity="0.8549"/>
<stop offset="1" stop-color="white"/>
</radialGradient>
<linearGradient id="paint17_linear_239_993" x1="38.9087" y1="232.58" x2="38.9087" y2="300.009" gradientUnits="userSpaceOnUse">
<stop stop-color="white"/>
<stop offset="0.9887" stop-color="white" stop-opacity="0.6045"/>
<stop offset="1" stop-color="white" stop-opacity="0.6"/>
</linearGradient>
<linearGradient id="paint18_linear_239_993" x1="38.9086" y1="232.58" x2="38.9086" y2="300.009" gradientUnits="userSpaceOnUse">
<stop stop-color="white"/>
<stop offset="0.9887" stop-color="white" stop-opacity="0.6045"/>
<stop offset="1" stop-color="white" stop-opacity="0.6"/>
</linearGradient>
<linearGradient id="paint19_linear_239_993" x1="42.4086" y1="37.6919" x2="42.4086" y2="3.6006e-05" gradientUnits="userSpaceOnUse">
<stop stop-color="white" stop-opacity="0"/>
<stop offset="1" stop-color="white"/>
</linearGradient>
<linearGradient id="paint20_linear_239_993" x1="51.715" y1="37.6919" x2="51.715" y2="0.000162981" gradientUnits="userSpaceOnUse">
<stop stop-color="white" stop-opacity="0"/>
<stop offset="1" stop-color="white"/>
</linearGradient>
<linearGradient id="paint21_linear_239_993" x1="54.3166" y1="37.6919" x2="54.3166" y2="-3.13598e-05" gradientUnits="userSpaceOnUse">
<stop stop-color="white" stop-opacity="0"/>
<stop offset="1" stop-color="white"/>
</linearGradient>
<linearGradient id="paint22_linear_239_993" x1="24.5867" y1="37.6919" x2="24.5867" y2="8.57972e-06" gradientUnits="userSpaceOnUse">
<stop stop-color="white" stop-opacity="0"/>
<stop offset="1" stop-color="white"/>
</linearGradient>
<linearGradient id="paint23_linear_239_993" x1="45.7494" y1="37.6919" x2="45.7494" y2="8.41165e-05" gradientUnits="userSpaceOnUse">
<stop stop-color="white" stop-opacity="0"/>
<stop offset="1" stop-color="white"/>
</linearGradient>
<linearGradient id="paint24_linear_239_993" x1="56.532" y1="37.6919" x2="56.532" y2="-7.72415e-06" gradientUnits="userSpaceOnUse">
<stop stop-color="white" stop-opacity="0"/>
<stop offset="1" stop-color="white"/>
</linearGradient>
<linearGradient id="paint25_linear_239_993" x1="33.8759" y1="37.6919" x2="33.8759" y2="-6.81354e-06" gradientUnits="userSpaceOnUse">
<stop stop-color="white" stop-opacity="0"/>
<stop offset="1" stop-color="white"/>
</linearGradient>
<linearGradient id="paint26_linear_239_993" x1="30.5298" y1="37.6919" x2="30.5298" y2="0.000118412" gradientUnits="userSpaceOnUse">
<stop stop-color="white" stop-opacity="0"/>
<stop offset="1" stop-color="white"/>
</linearGradient>
<linearGradient id="paint27_linear_239_993" x1="48.8646" y1="37.6919" x2="48.8646" y2="-1.83277e-06" gradientUnits="userSpaceOnUse">
<stop stop-color="white" stop-opacity="0"/>
<stop offset="1" stop-color="white"/>
</linearGradient>
<linearGradient id="paint28_linear_239_993" x1="38.0878" y1="37.6919" x2="38.0878" y2="-3.59458e-05" gradientUnits="userSpaceOnUse">
<stop stop-color="white" stop-opacity="0"/>
<stop offset="1" stop-color="white"/>
</linearGradient>
<linearGradient id="paint29_linear_239_993" x1="27.4137" y1="37.6919" x2="27.4137" y2="-3.65343e-06" gradientUnits="userSpaceOnUse">
<stop stop-color="white" stop-opacity="0"/>
<stop offset="1" stop-color="white"/>
</linearGradient>
<linearGradient id="paint30_linear_239_993" x1="22.0217" y1="37.6919" x2="22.0217" y2="-2.9035e-05" gradientUnits="userSpaceOnUse">
<stop stop-color="white" stop-opacity="0"/>
<stop offset="1" stop-color="white"/>
</linearGradient>
<linearGradient id="paint31_linear_239_993" x1="19.7736" y1="37.6919" x2="19.7736" y2="-3.2308e-05" gradientUnits="userSpaceOnUse">
<stop stop-color="white" stop-opacity="0"/>
<stop offset="1" stop-color="white"/>
</linearGradient>
<linearGradient id="paint32_linear_239_993" x1="122.771" y1="416.634" x2="122.771" y2="383.519" gradientUnits="userSpaceOnUse">
<stop stop-color="white" stop-opacity="0.3"/>
<stop offset="1" stop-color="white"/>
</linearGradient>
<clipPath id="clip0_239_993">
<rect width="78" height="300" fill="white"/>
</clipPath>
<clipPath id="clip1_239_993">
<rect width="52" height="119.276" fill="white" transform="translate(97 342)"/>
</clipPath>
</defs>
</svg>
