<svg width="264" height="99" viewBox="0 0 264 99" fill="none" xmlns="http://www.w3.org/2000/svg">
<path d="M8.13788 10.5452H0L2.49387 7.92C3.15015 7.20809 3.67517 6.62966 4.02519 6.14022C4.41896 5.65079 4.68147 5.25034 4.85648 4.89438C5.03149 4.53843 5.16274 4.27146 5.2065 4.09348C5.25025 3.87101 5.294 3.69303 5.294 3.55955C5.294 3.42607 5.25025 3.24809 5.2065 3.11461C5.16274 2.98112 5.07524 2.84764 4.98774 2.71416C4.90023 2.58067 4.76898 2.49169 4.63772 2.44719C4.50646 2.4027 4.33145 2.3582 4.15645 2.3582C3.80643 2.3582 3.50017 2.49169 3.32516 2.71416C3.1064 2.93663 3.01889 3.24809 3.01889 3.60405C3.01889 3.69303 3.01889 3.87101 3.06264 4.04899H0.21876C0.21876 3.47056 0.306264 2.89214 0.525025 2.4027C0.700033 1.91326 1.0063 1.51281 1.35631 1.15685C1.70633 0.800899 2.1001 0.533933 2.58137 0.355956C3.06264 0.177978 3.58767 0.0889893 4.15645 0.0889893C4.72522 0.0889893 5.25025 0.177978 5.73152 0.355956C6.21279 0.533933 6.60656 0.800899 6.95658 1.11236C7.26284 1.37933 7.52536 1.77978 7.70036 2.22472C7.91912 2.66966 8.00663 3.1591 8.00663 3.69303C8.00663 4.27146 7.87537 4.7609 7.65661 5.25034C7.43785 5.73978 7.04408 6.22921 6.51906 6.71865L4.85648 8.32045H8.13788V10.5452Z" fill="white"/>
<path d="M8.96915 5.42831C8.96915 4.62742 9.05665 3.87101 9.27541 3.2036C9.49417 2.53618 9.80044 1.95775 10.1505 1.51281C10.5442 1.02337 10.9817 0.667416 11.5068 0.400449C12.0318 0.133483 12.6006 0 13.2568 0C13.8694 0 14.4382 0.133483 14.9632 0.400449C15.4882 0.667416 15.9257 1.02337 16.3195 1.51281C16.7133 2.00225 16.9758 2.53618 17.1945 3.2036C17.4133 3.87101 17.5008 4.62742 17.5008 5.42831C17.5008 6.22921 17.4133 6.98562 17.1945 7.65303C16.9758 8.32045 16.7133 8.89888 16.3195 9.38832C15.9257 9.87775 15.4882 10.2337 14.9632 10.5007C14.4382 10.7676 13.8694 10.9011 13.2568 10.9011C12.6443 10.9011 12.0318 10.7676 11.5068 10.5007C10.9817 10.2337 10.5442 9.87775 10.1505 9.38832C9.75668 8.89888 9.49417 8.32045 9.27541 7.65303C9.1004 6.98562 8.96915 6.22921 8.96915 5.42831ZM11.5943 5.42831C11.5943 5.87326 11.638 6.27371 11.7255 6.67416C11.813 7.03011 11.9005 7.38607 12.0755 7.65303C12.2068 7.92 12.3818 8.14247 12.6006 8.27596C12.8193 8.40944 13.0381 8.49843 13.3006 8.49843C13.5631 8.49843 13.7819 8.40944 14.0006 8.27596C14.2194 8.14247 14.3944 7.92 14.5257 7.65303C14.6569 7.38607 14.7882 7.07461 14.8757 6.67416C14.9632 6.3182 15.0069 5.87326 15.0069 5.42831C15.0069 4.98337 14.9632 4.58292 14.8757 4.18247C14.7882 3.82652 14.7007 3.47056 14.5257 3.2036C14.3944 2.93663 14.2194 2.71416 14.0006 2.58067C13.7819 2.44719 13.5631 2.3582 13.3006 2.3582C13.0381 2.3582 12.8193 2.44719 12.6006 2.58067C12.3818 2.71416 12.2068 2.93663 12.0755 3.2036C11.9443 3.47056 11.813 3.78202 11.7255 4.18247C11.638 4.53843 11.5943 4.98337 11.5943 5.42831Z" fill="white"/>
<path d="M26.295 10.5452H18.2008L20.6947 7.92C21.351 7.20809 21.876 6.62966 22.226 6.14022C22.6198 5.65079 22.8823 5.25034 23.0573 4.89438C23.2323 4.53843 23.3636 4.27146 23.4073 4.09348C23.4511 3.87101 23.4948 3.69303 23.4948 3.55955C23.4948 3.42607 23.4511 3.24809 23.4073 3.11461C23.3636 2.98112 23.2761 2.84764 23.1886 2.71416C23.1011 2.58067 22.9698 2.49169 22.8386 2.44719C22.7073 2.3582 22.5323 2.3582 22.3573 2.3582C22.0073 2.3582 21.701 2.49169 21.526 2.71416C21.3072 2.93663 21.2197 3.24809 21.2197 3.60405C21.2197 3.69303 21.2197 3.87101 21.2635 4.04899H18.3758C18.3758 3.47056 18.4633 2.89214 18.6821 2.4027C18.8571 1.91326 19.1634 1.51281 19.5134 1.15685C19.8634 0.800899 20.2572 0.533933 20.7385 0.355956C21.2197 0.177978 21.7448 0.0889893 22.3135 0.0889893C22.8823 0.0889893 23.4073 0.177978 23.8886 0.355956C24.3699 0.533933 24.7637 0.800899 25.1137 1.11236C25.4199 1.37933 25.7262 1.77978 25.9012 2.22472C26.12 2.66966 26.2075 3.1591 26.2075 3.69303C26.2075 4.27146 26.0762 4.7609 25.8575 5.25034C25.6387 5.73978 25.2449 6.22921 24.7199 6.71865L23.0573 8.32045H26.3387V10.5452H26.295Z" fill="white"/>
<path d="M29.7077 2.53618H28.2201V0.311462H32.3328V10.5452H29.7077V2.53618Z" fill="white"/>
<path d="M235.386 10.5452H227.248L229.742 7.92C230.398 7.20809 230.923 6.62966 231.273 6.14022C231.667 5.65079 231.93 5.25034 232.105 4.89438C232.28 4.53843 232.411 4.27146 232.455 4.09348C232.499 3.87101 232.542 3.69303 232.542 3.55955C232.542 3.42607 232.499 3.24809 232.455 3.11461C232.411 2.98112 232.323 2.84764 232.236 2.71416C232.148 2.58067 232.017 2.49169 231.886 2.44719C231.755 2.4027 231.58 2.3582 231.405 2.3582C231.055 2.3582 230.748 2.49169 230.573 2.71416C230.355 2.93663 230.267 3.24809 230.267 3.60405C230.267 3.69303 230.267 3.87101 230.311 4.04899H227.467C227.467 3.47056 227.555 2.89214 227.773 2.4027C227.948 1.91326 228.255 1.51281 228.605 1.15685C228.955 0.800899 229.348 0.533933 229.83 0.355956C230.311 0.177978 230.836 0.0889893 231.405 0.0889893C231.973 0.0889893 232.499 0.177978 232.98 0.355956C233.461 0.533933 233.855 0.800899 234.205 1.11236C234.555 1.42382 234.817 1.82427 235.036 2.26921C235.255 2.71416 235.342 3.2036 235.342 3.73753C235.342 4.31596 235.211 4.80539 234.992 5.29483C234.774 5.78427 234.38 6.27371 233.855 6.76315L232.192 8.36494H235.474V10.5452H235.386Z" fill="white"/>
<path d="M236.261 5.42831C236.261 4.62742 236.349 3.87101 236.567 3.2036C236.786 2.53618 237.092 1.95775 237.442 1.51281C237.836 1.02337 238.274 0.667416 238.799 0.400449C239.324 0.133483 239.893 0 240.549 0C241.161 0 241.73 0.133483 242.255 0.400449C242.78 0.667416 243.218 1.02337 243.612 1.51281C244.005 2.00225 244.268 2.53618 244.487 3.2036C244.705 3.87101 244.793 4.62742 244.793 5.42831C244.793 6.22921 244.705 6.98562 244.487 7.65303C244.268 8.32045 244.005 8.89888 243.612 9.38832C243.218 9.87775 242.78 10.2337 242.255 10.5007C241.73 10.7676 241.161 10.9011 240.549 10.9011C239.936 10.9011 239.324 10.7676 238.799 10.5007C238.274 10.2337 237.836 9.87775 237.442 9.38832C237.049 8.89888 236.786 8.32045 236.567 7.65303C236.349 6.98562 236.261 6.22921 236.261 5.42831ZM238.843 5.42831C238.843 5.87326 238.886 6.27371 238.974 6.67416C239.061 7.03011 239.149 7.38607 239.324 7.65303C239.455 7.92 239.63 8.14247 239.849 8.27596C240.068 8.40944 240.286 8.49843 240.549 8.49843C240.811 8.49843 241.03 8.40944 241.249 8.27596C241.468 8.14247 241.643 7.92 241.774 7.65303C241.905 7.38607 242.036 7.07461 242.124 6.67416C242.211 6.3182 242.255 5.87326 242.255 5.42831C242.255 4.98337 242.211 4.58292 242.124 4.18247C242.036 3.82652 241.949 3.47056 241.774 3.2036C241.643 2.93663 241.468 2.71416 241.249 2.58067C241.03 2.44719 240.811 2.3582 240.549 2.3582C240.286 2.3582 240.068 2.44719 239.849 2.58067C239.63 2.71416 239.455 2.93663 239.324 3.2036C239.193 3.47056 239.061 3.78202 238.974 4.18247C238.886 4.53843 238.843 4.98337 238.843 5.42831Z" fill="white"/>
<path d="M253.587 10.5452H245.449L247.943 7.92C248.599 7.20809 249.124 6.62966 249.474 6.14022C249.868 5.65079 250.131 5.25034 250.306 4.89438C250.481 4.53843 250.612 4.27146 250.656 4.09348C250.699 3.87101 250.743 3.69303 250.743 3.55955C250.743 3.42607 250.699 3.24809 250.656 3.11461C250.612 2.98112 250.524 2.84764 250.437 2.71416C250.349 2.58067 250.218 2.49169 250.087 2.44719C249.956 2.3582 249.781 2.3582 249.606 2.3582C249.256 2.3582 248.949 2.49169 248.774 2.71416C248.555 2.93663 248.468 3.24809 248.468 3.60405C248.468 3.69303 248.468 3.87101 248.512 4.04899H245.668C245.668 3.47056 245.755 2.89214 245.974 2.4027C246.149 1.91326 246.455 1.51281 246.805 1.15685C247.155 0.800899 247.549 0.533933 248.03 0.355956C248.512 0.177978 249.037 0.0889893 249.606 0.0889893C250.174 0.0889893 250.699 0.177978 251.181 0.355956C251.662 0.533933 252.056 0.800899 252.406 1.11236C252.756 1.42382 253.018 1.82427 253.237 2.26921C253.456 2.71416 253.543 3.2036 253.543 3.73753C253.543 4.31596 253.412 4.80539 253.193 5.29483C252.974 5.78427 252.581 6.27371 252.056 6.76315L250.393 8.36494H253.674V10.5452H253.587Z" fill="white"/>
<path d="M262.687 10.5452H254.55L257.043 7.92C257.7 7.20809 258.225 6.62966 258.575 6.14022C258.969 5.65079 259.231 5.25034 259.406 4.89438C259.581 4.53843 259.712 4.27146 259.756 4.09348C259.8 3.87101 259.844 3.69303 259.844 3.55955C259.844 3.42607 259.8 3.24809 259.756 3.11461C259.712 2.98112 259.625 2.84764 259.537 2.71416C259.45 2.58067 259.319 2.49169 259.187 2.44719C259.056 2.3582 258.881 2.3582 258.706 2.3582C258.356 2.3582 258.05 2.49169 257.875 2.71416C257.656 2.93663 257.568 3.24809 257.568 3.60405C257.568 3.69303 257.568 3.87101 257.612 4.04899H254.768C254.768 3.47056 254.856 2.89214 255.075 2.4027C255.25 1.91326 255.556 1.51281 255.906 1.15685C256.256 0.800899 256.65 0.533933 257.131 0.355956C257.612 0.177978 258.137 0.0889893 258.706 0.0889893C259.275 0.0889893 259.8 0.177978 260.281 0.355956C260.762 0.533933 261.156 0.800899 261.506 1.11236C261.856 1.42382 262.119 1.82427 262.337 2.26921C262.556 2.71416 262.644 3.2036 262.644 3.73753C262.644 4.31596 262.512 4.80539 262.294 5.29483C262.075 5.78427 261.681 6.27371 261.156 6.76315L259.494 8.36494H262.775V10.5452H262.687Z" fill="white"/>
<path d="M217.229 6.49615H47.121V7.29705H217.229V6.49615Z" fill="white"/>
<path d="M230.53 85.2068C226.023 85.2068 222.348 81.4692 222.348 76.8863C222.348 72.3034 226.023 68.5659 230.53 68.5659C235.036 68.5659 238.711 72.3034 238.711 76.8863C238.711 81.4692 235.08 85.2068 230.53 85.2068ZM230.53 70.1677C226.898 70.1677 223.923 73.1933 223.923 76.8863C223.923 80.5793 226.898 83.605 230.53 83.605C234.161 83.605 237.136 80.5793 237.136 76.8863C237.136 73.1933 234.161 70.1677 230.53 70.1677Z" fill="white"/>
<path d="M253.106 98.2436C250.568 98.2436 248.074 97.3537 246.149 95.7074L247.155 94.4616C248.818 95.8854 250.918 96.6418 253.106 96.6418C258.225 96.6418 262.425 92.4149 262.425 87.1645C262.425 84.4504 261.331 82.0477 259.537 80.3124C257.743 81.6472 255.512 82.4481 253.106 82.4481C250.568 82.4481 248.074 81.5582 246.149 79.9119L245.405 79.289L246.149 78.6661C248.118 77.0198 250.568 76.1299 253.106 76.1299C255.512 76.1299 257.7 76.9308 259.537 78.2656C261.331 76.5304 262.425 74.1277 262.425 71.4135C262.425 66.2077 258.268 61.9362 253.106 61.9362C250.918 61.9362 248.818 62.6926 247.155 64.1164L246.149 62.8706C248.118 61.2243 250.568 60.3344 253.106 60.3344C259.1 60.3344 264 65.3178 264 71.4135C264 74.4836 262.731 77.2868 260.719 79.3335C262.731 81.3358 264 84.1389 264 87.2535C264 93.3047 259.1 98.2436 253.106 98.2436ZM247.987 79.289C249.518 80.3124 251.268 80.8463 253.106 80.8463C254.987 80.8463 256.737 80.2679 258.225 79.289C256.737 78.3101 254.987 77.7317 253.106 77.7317C251.268 77.6872 249.474 78.2656 247.987 79.289Z" fill="white"/>
<path d="M253.106 98.2437C247.112 98.2437 242.211 93.2603 242.211 87.1646H243.787C243.787 92.3704 247.943 96.6419 253.106 96.6419C255.293 96.6419 257.393 95.8855 259.056 94.4616L260.062 95.7075C258.093 97.3538 255.643 98.2437 253.106 98.2437Z" fill="white"/>
<path d="M139.307 99C155.835 99 169.233 85.3741 169.233 68.5658C169.233 51.7575 155.835 38.1317 139.307 38.1317C122.779 38.1317 109.38 51.7575 109.38 68.5658C109.38 85.3741 122.779 99 139.307 99Z" fill="url(#paint0_linear_90_4089)"/>
<path d="M53.6984 51.5902L29.0492 81.4963L30.2563 82.5253L54.9056 52.6192L53.6984 51.5902Z" fill="white"/>
<path d="M81.3351 94.6841C74.2473 94.6841 68.472 88.8108 68.472 81.6027C68.472 74.3946 74.2473 68.5214 81.3351 68.5214C88.4229 68.5214 94.1982 74.3946 94.1982 81.6027C94.1982 88.8108 88.4229 94.6841 81.3351 94.6841ZM81.3351 70.1677C75.1223 70.1677 70.0908 75.2845 70.0908 81.6027C70.0908 87.9209 75.1223 93.0378 81.3351 93.0378C87.5479 93.0378 92.5794 87.9209 92.5794 81.6027C92.5794 75.2845 87.5479 70.1677 81.3351 70.1677Z" fill="white"/>
<path d="M225.169 51.9317L200.52 81.8379L201.727 82.8669L226.376 52.9607L225.169 51.9317Z" fill="white"/>
<path d="M5.73152 65.2733H4.11269V34.0827H0V32.4809H5.73152V65.2733Z" fill="white"/>
<path d="M28.0013 65.2733H26.3825V34.0827H22.2698V32.4809H28.0013V65.2733Z" fill="white"/>
<path d="M59.3278 98.2436H57.709V67.0975H53.5963V65.4512H59.3278V98.2436Z" fill="white"/>
<path d="M195.528 64.8728H193.909V33.6822H189.797V32.0804H195.528V64.8728Z" fill="white"/>
<defs>
<linearGradient id="paint0_linear_90_4089" x1="139.326" y1="98.9887" x2="139.326" y2="38.1017" gradientUnits="userSpaceOnUse">
<stop stop-color="white" stop-opacity="0.3"/>
<stop offset="1" stop-color="white"/>
</linearGradient>
</defs>
</svg>
