<svg id="圖層_1" data-name="圖層 1" xmlns="http://www.w3.org/2000/svg" xmlns:xlink="http://www.w3.org/1999/xlink" viewBox="0 0 1440 300"><defs><style>.cls-1{fill:none;}.cls-2{clip-path:url(#clip-path);}.cls-3{fill:#2b323d;}.cls-4{fill:url(#未命名漸層_41);}.cls-5{fill:#48535f;}.cls-6{clip-path:url(#clip-path-2);}.cls-7{opacity:0.6;}.cls-8{fill:#fff;}</style><clipPath id="clip-path"><rect class="cls-1" x="-1460" y="-336" width="1440" height="769"/></clipPath><linearGradient id="未命名漸層_41" x1="721.54" y1="203.9" x2="721.54" y2="87.82" gradientUnits="userSpaceOnUse"><stop offset="0" stop-color="#ffd800" stop-opacity="0"/><stop offset="0.19" stop-color="#fdd000" stop-opacity="0.1"/><stop offset="0.6" stop-color="#f9ba00" stop-opacity="0.36"/><stop offset="1" stop-color="#f4a300" stop-opacity="0.64"/></linearGradient><clipPath id="clip-path-2"><rect class="cls-1" x="1499" y="2714" width="1439" height="1433.11"/></clipPath></defs><g class="cls-2"><g id="wave"><path class="cls-3" d="M-20.12,193.5v79.95h80A80,80,0,0,1-20.12,193.5Z"/></g></g><circle class="cls-4" cx="721.54" cy="145.86" r="58.04"/><path class="cls-5" d="M620.33,156.51c11.81,1.47,6.81,10.42,2.15,6.76a13.24,13.24,0,0,0-2.48-6.55Zm13.19-3.91c-1.51,5.46-4.07,15.54-4.62,18.11a19.06,19.06,0,0,0-.58,4.28c.08,2.48,2,3.78,1.93,7.73a3.85,3.85,0,0,1-4.08,3.82,2.71,2.71,0,0,1-2.73-2.22c.89-4.45.76-8.74-.29-9.45a4.62,4.62,0,0,0-2.27-.72v-.75h1.93c.68,0,.84,0,1.35-.89,1-1.68,1-1.68,8.73-20.08Zm-10.16-5.38c12.6.64,8.32,10.21,3.19,6.94a18.7,18.7,0,0,0-3.49-6.72Zm35.71,17.61c-.3.5-.72.63-1.77.75a32.66,32.66,0,0,1-6.26,11,37.38,37.38,0,0,0,9.83,4.62l-.08.46a6.76,6.76,0,0,0-5.25,4.91,26.74,26.74,0,0,1-8-6.72,37,37,0,0,1-14.79,6.77l-.25-.47a32.52,32.52,0,0,0,12.81-9.66,36.37,36.37,0,0,1-3.87-12H640.2c-.16,7.1-1.42,16.3-10,22.14l-.38-.3c4.33-7.14,4.66-16.17,4.66-23.77v-11l6.55,2.23h2.69v-7l7.65.59c-.09.71-.42,1.21-1.89,1.42v5h3.15l2.81-2.81,4.88,4.62a2.09,2.09,0,0,1-1.64.54,58.87,58.87,0,0,1-5.93,4.41l-.33-.21c.21-1.42.42-3.69.59-5.37h-3.53v8.31h1.43l3.1-3Zm-18.87-1.52h3.53V155H640.2v8.31Zm2,1.18a21.91,21.91,0,0,0,5.21,9,32.73,32.73,0,0,0,3.78-9Z"/><path class="cls-5" d="M708.84,179.11c1.55.67,1.89,1.38,1.89,2.6,0,2.44-2,3.66-9.08,3.66h-3.86c-4.79,0-5.93-1.05-5.93-5.13V164.66h-3.61c-.8,10.29-4.62,18.31-17.47,21.84l-.17-.42c8.57-5.21,10.54-12.73,10.71-21.42H670.94l-.33-1.18h16.72V146.64l7.85.63c-.08.59-.38,1-1.55,1.17v15h8.11l3.19-4s3.61,2.69,5.75,4.54c-.12.46-.58.67-1.21.67H698.08V178.6c0,.68.25.89,1.3.89h3c.88,0,1.76,0,2.31,0a1.29,1.29,0,0,0,1.13-.64,41,41,0,0,0,2.44-6h.38Zm-34.2-29.66c15,4,9.2,16,3.36,11a22.31,22.31,0,0,0-3.69-10.76Zm33.82,3.07c-.21.5-.84.84-1.85.71a50.8,50.8,0,0,1-10.33,8.53l-.38-.3c1.3-3,3.15-8.06,4.49-12.43Z"/><path class="cls-5" d="M760.5,157.89c-.21.42-.63.68-1.69.55a74.11,74.11,0,0,1-10.58,6.93,27.67,27.67,0,0,0,12.81,11l-.21.46c-2.52.5-4.37,2.69-5.21,5.5-6.3-5.58-9.87-12.26-11.55-26.08v23.23c0,4.16-1,6.38-7.9,7-.17-2-.46-3.4-1.3-4.37s-1.81-1.6-4.37-2.06v-.54s5.29.33,6.39.33c.71,0,1-.25,1-.75v-17.9c-.21,0-.5.09-.84.13-1.93,8.36-6.3,16.46-16,21.13l-.34-.42c5.92-5.3,9-13.61,10.17-21.59h-8.7l-.38-1.18h8.74l2.94-3.07,4.41,3.74V146.68l7.69.76c-.08.58-.38,1-1.47,1.13v4.91a34.25,34.25,0,0,0,3.53,10.72,78.61,78.61,0,0,0,6.09-10.72Z"/><path class="cls-5" d="M781.87,168.78c0,5.5-.84,13.1-10.21,17.51l-.25-.29c3.91-5,4.24-11.6,4.24-17.22V158.9l7.1,2.36H803l1.76-2.4a17.68,17.68,0,0,1-2.69.25h-1v-1.85H782.58l-1.76,2.57-6-2.94a8.71,8.71,0,0,1,1.6-1.47v-7.1l7.52.71c-.09.63-.42,1.05-1.56,1.22v5.84h6.3v-9.45l7.57.54c-.09.59-.38,1-1.52,1.22v7.69h6.35V148.4l7.64.63c-.08.55-.38,1-1.55,1.18V158c0,.09-.09.17-.3.25,1.1.93,2.82,2.35,4,3.49-.12.46-.58.67-1.17.67H781.87Zm24.07,2s3.15,2.6,5,4.37c-.13.46-.59.67-1.18.67H797.87v9.41c0,.29-1.89,1.3-5.12,1.3h-1.18V175.79h-9.41l-.33-1.18h9.74v-6.84h-7.69l-.33-1.18h17.39l2.69-3.74s3.11,2.52,4.91,4.24c-.12.47-.58.68-1.17.68h-9.5v6.84h5.25Z"/><g class="cls-6"><g class="cls-7"><path class="cls-8" d="M1405.39,25.61a2.72,2.72,0,1,1,2.72-2.71A2.71,2.71,0,0,1,1405.39,25.61Z"/><path class="cls-8" d="M1406.88,52.47a2.7,2.7,0,1,1,2.7-2.7A2.7,2.7,0,0,1,1406.88,52.47Z"/><path class="cls-8" d="M1408.57,79.31a2.68,2.68,0,1,1,2.68-2.68A2.68,2.68,0,0,1,1408.57,79.31Z"/><path class="cls-8" d="M1410.47,106.14a2.66,2.66,0,1,1,2.66-2.66A2.67,2.67,0,0,1,1410.47,106.14Z"/><path class="cls-8" d="M1412.56,133a2.65,2.65,0,1,1,2.65-2.65A2.65,2.65,0,0,1,1412.56,133Z"/><path class="cls-8" d="M1414.87,159.75a2.63,2.63,0,1,1,2.63-2.63A2.62,2.62,0,0,1,1414.87,159.75Z"/><path class="cls-8" d="M1417.37,186.53a2.61,2.61,0,1,1,2.62-2.61A2.61,2.61,0,0,1,1417.37,186.53Z"/><path class="cls-8" d="M1420.09,213.29a2.6,2.6,0,1,1,2.59-2.6A2.59,2.59,0,0,1,1420.09,213.29Z"/><path class="cls-8" d="M1423,240a2.58,2.58,0,1,1,2.58-2.58A2.58,2.58,0,0,1,1423,240Z"/><path class="cls-8" d="M1426.13,266.74a2.57,2.57,0,1,1,2.56-2.56A2.56,2.56,0,0,1,1426.13,266.74Z"/><path class="cls-8" d="M1429.46,293.42a2.55,2.55,0,1,1,2.55-2.54A2.54,2.54,0,0,1,1429.46,293.42Z"/><path class="cls-8" d="M1321.13,18a2.81,2.81,0,1,1,2.8-2.8A2.8,2.8,0,0,1,1321.13,18Z"/><path class="cls-8" d="M1322.66,45.25a2.79,2.79,0,1,1,2.78-2.79A2.79,2.79,0,0,1,1322.66,45.25Z"/><path class="cls-8" d="M1324.39,72.47a2.77,2.77,0,1,1,2.77-2.77A2.77,2.77,0,0,1,1324.39,72.47Z"/><path class="cls-8" d="M1326.33,99.67a2.75,2.75,0,1,1,2.76-2.75A2.75,2.75,0,0,1,1326.33,99.67Z"/><path class="cls-8" d="M1328.49,126.86a2.74,2.74,0,1,1,2.73-2.73A2.74,2.74,0,0,1,1328.49,126.86Z"/><path class="cls-8" d="M1330.85,154a2.72,2.72,0,1,1,2.72-2.72A2.72,2.72,0,0,1,1330.85,154Z"/><path class="cls-8" d="M1333.42,181.19a2.7,2.7,0,1,1,2.7-2.7A2.7,2.7,0,0,1,1333.42,181.19Z"/><path class="cls-8" d="M1336.2,208.32a2.68,2.68,0,1,1,2.69-2.68A2.68,2.68,0,0,1,1336.2,208.32Z"/><path class="cls-8" d="M1339.2,235.43a2.66,2.66,0,1,1,2.66-2.66A2.66,2.66,0,0,1,1339.2,235.43Z"/><path class="cls-8" d="M1342.41,262.52a2.65,2.65,0,1,1,2.64-2.65A2.65,2.65,0,0,1,1342.41,262.52Z"/><path class="cls-8" d="M1345.83,289.58a2.63,2.63,0,1,1,2.63-2.63A2.63,2.63,0,0,1,1345.83,289.58Z"/></g></g></svg>