<svg id="圖層_1" data-name="圖層 1" xmlns="http://www.w3.org/2000/svg" xmlns:xlink="http://www.w3.org/1999/xlink" viewBox="0 0 1440 300"><defs><style>.cls-1{fill:none;}.cls-2{fill:url(#未命名漸層_18);}.cls-3{fill:#fff;}.cls-4{clip-path:url(#clip-path);}.cls-5{opacity:0.6;}</style><linearGradient id="未命名漸層_18" x1="721.54" y1="203.9" x2="721.54" y2="87.82" gradientUnits="userSpaceOnUse"><stop offset="0" stop-color="#fff000" stop-opacity="0"/><stop offset="0.12" stop-color="#fff000" stop-opacity="0.05"/><stop offset="0.35" stop-color="#fff000" stop-opacity="0.2"/><stop offset="0.67" stop-color="#fff000" stop-opacity="0.43"/><stop offset="1" stop-color="#fff000" stop-opacity="0.7"/></linearGradient><clipPath id="clip-path"><rect class="cls-1" x="1499" y="3042" width="1439" height="1433.11"/></clipPath></defs><circle class="cls-2" cx="721.54" cy="145.86" r="58.04"/><path class="cls-3" d="M635.58,154.2v24.24c0,.37-2.64,1.51-4.53,1.51h-.89v-3.36h-3.31v3.82c0,.38-1.64,1.64-4.37,1.64h-1V148.78l5.92,2.56h2.31l2.52-2.77,5,4a1.92,1.92,0,0,1-.63.5h7.19v-6l7.39.59c0,.58-.34,1-1.51,1.17V153h2.52l2.77-3.74s3.11,2.52,4.92,4.25c-.09.46-.55.67-1.18.67h-9V161h.84l2.94-4s3.32,2.69,5.25,4.5c-.13.46-.59.67-1.22.67h-19.7l-.34-1.18h6.35V154.2Zm-8.73-1.68V163.1h3.31V152.52Zm3.31,22.89V164.28h-3.31v11.13Zm26.59-11.59s2.74,2.48,4.25,4.11c-.09.47-.55.68-1.14.68h-5.42v11.25c0,3.95-.88,6.1-7.35,6.68-.12-1.89-.33-3.23-1.09-4.15s-1.6-1.52-3.86-1.94v-.54s4.7.29,5.63.29c.58,0,.79-.21.79-.67V168.61H635.92l-.34-1.18h13v-5l7.31.63c-.08.63-.5,1-1.43,1.1v3.1Zm-18.69,5.5c12.73,2.44,6.85,12.1,1.85,7.73a15.83,15.83,0,0,0-2.18-7.52Z"/><path class="cls-3" d="M708.84,179.11c1.55.67,1.89,1.38,1.89,2.6,0,2.44-2,3.66-9.08,3.66h-3.86c-4.79,0-5.93-1.05-5.93-5.13V164.66h-3.61c-.8,10.29-4.62,18.31-17.47,21.84l-.17-.42c8.57-5.21,10.54-12.73,10.71-21.42H670.94l-.33-1.18h16.72V146.64l7.85.63c-.08.58-.38,1-1.55,1.17v15h8.11l3.19-4s3.61,2.69,5.75,4.54c-.12.46-.58.67-1.21.67H698.08V178.6c0,.68.25.89,1.3.89h3c.88,0,1.76,0,2.31-.05a1.26,1.26,0,0,0,1.13-.63,41,41,0,0,0,2.44-6h.38Zm-34.2-29.66c15,4,9.2,16,3.36,11a22.31,22.31,0,0,0-3.69-10.76Zm33.82,3.07c-.21.5-.84.84-1.85.71a50.8,50.8,0,0,1-10.33,8.53l-.38-.29c1.3-3,3.15-8.07,4.49-12.44Z"/><path class="cls-3" d="M752.85,159.79v4.32l2.27-2.43,5,3.82a2.4,2.4,0,0,1-1.52.8v18.35c0,.38-2.73,1.43-4.62,1.43h-1v-2.94h-6.47v1.51c0,.59-2.31,1.85-4.66,1.85h-.84V162.1l5.71,2.26h.5v-4.57h-7v3.78c0,7.18-.42,16.71-8.32,22.89l-.42-.42c3.19-6.72,3.28-15.25,3.28-22.64v-4.71c-.21.38-.63.59-1.56.51-1.05,1.34-2.35,2.85-3.78,4.41l3.28,1.22a1.49,1.49,0,0,1-1.3.79v18.95c0,.5-2.27,2-4.79,2h-1.1V167.47a41.15,41.15,0,0,1-4.28,3.45l-.38-.34a78.58,78.58,0,0,0,7-15.71,41.44,41.44,0,0,1-6.77,4l-.37-.38a48.14,48.14,0,0,0,6.72-12l6.59,3.91c-.21.42-.59.67-1.64.55a44.13,44.13,0,0,1-4.49,3.82l6.85,3.69v-7.85l6.26,1.93a73.55,73.55,0,0,0,12.89-5.92l6.09,5.21c-.54.46-1.55.54-3,.08a104.42,104.42,0,0,1-16.76,1.85v4.79h7v-5l6.93.67c-.08.5-.37.92-1.34,1.09v3.28h.25l2.73-3.66s3.11,2.48,4.92,4.16c-.09.47-.55.68-1.18.68Zm-6.3,5.75V170H753v-4.45Zm6.47,5.63h-6.47v4.54H753Zm0,10.8v-5.09h-6.47V182Z"/><path class="cls-3" d="M805.06,161.63c10.75,6.89,5.88,16.43,1.55,11.89a33.29,33.29,0,0,0-1.81-11v17.35c0,3.48-.84,5.92-6.51,6.34a6.48,6.48,0,0,0-.84-3.7c-.58-.8-1.42-1.38-3.48-1.72v-.55s3.9.26,4.79.26c.63,0,.79-.3.79-.8V156.3H798c-.21,14.2-.38,24.07-13.49,30.5l-.46-.63c7.35-6,8.53-13.28,8.7-22.73h0c-1.6,5.67-4,10.21-7.44,13.23l-.59-.33a35.41,35.41,0,0,0,1.94-6.22h-4.29V178l5.25-1,.09.46a144.75,144.75,0,0,1-13.45,7.31,1.8,1.8,0,0,1-1.17,1.09l-2.19-6c.46,0,1-.12,1.6-.21v-14l4.83.42c0,.38-.25.63-.84.76V179l1.22-.17V161.05h-.21v.79c0,.34-1.47,1.35-3.83,1.35h-.84V147.73l5.21,2.1h3.15l2.1-2.18,4.33,3.23a2.32,2.32,0,0,1-1.34.67v9.83c0,.34-2.4,1.18-3.91,1.18v6.38h.34l1.8-3.23s1.39,1.47,2.48,2.81a61.54,61.54,0,0,0,1-7.43l4.87,1V156.3h-5.71l-.34-1.18h17l2.82-3.86s3.15,2.6,5,4.37c-.13.46-.59.67-1.18.67H804.8v5.42Zm-27.6-1.8h4.07V151h-4.07Zm16.13-13.4c12.14,2,6.68,11.25,2,7.22a13,13,0,0,0-2.31-7Z"/><g class="cls-4"><g class="cls-5"><path class="cls-3" d="M1404.31,4.09a2.94,2.94,0,1,1,2.94-2.94A2.94,2.94,0,0,1,1404.31,4.09Z"/><path class="cls-3" d="M1403.2,31a2.92,2.92,0,1,1,2.92-2.92A2.92,2.92,0,0,1,1403.2,31Z"/><path class="cls-3" d="M1402.28,57.84a2.9,2.9,0,1,1,2.91-2.9A2.9,2.9,0,0,1,1402.28,57.84Z"/><path class="cls-3" d="M1401.57,84.73a2.89,2.89,0,1,1,2.88-2.89A2.89,2.89,0,0,1,1401.57,84.73Z"/><path class="cls-3" d="M1401.05,111.62a2.87,2.87,0,1,1,2.87-2.87A2.87,2.87,0,0,1,1401.05,111.62Z"/><path class="cls-3" d="M1400.74,138.52a2.86,2.86,0,1,1,2.85-2.85A2.86,2.86,0,0,1,1400.74,138.52Z"/><path class="cls-3" d="M1400.62,165.41a2.83,2.83,0,1,1,2.83-2.83A2.83,2.83,0,0,1,1400.62,165.41Z"/><path class="cls-3" d="M1400.7,192.31a2.82,2.82,0,1,1,2.81-2.82A2.82,2.82,0,0,1,1400.7,192.31Z"/><path class="cls-3" d="M1401,219.21a2.8,2.8,0,1,1,2.8-2.8A2.8,2.8,0,0,1,1401,219.21Z"/><path class="cls-3" d="M1401.46,246.1a2.79,2.79,0,1,1,2.78-2.78A2.77,2.77,0,0,1,1401.46,246.1Z"/><path class="cls-3" d="M1402.14,273a2.77,2.77,0,1,1,2.77-2.77A2.76,2.76,0,0,1,1402.14,273Z"/><path class="cls-3" d="M1403,299.87a2.75,2.75,0,1,1,2.74-2.75A2.75,2.75,0,0,1,1403,299.87Z"/><path class="cls-3" d="M1318.88,18.83a3,3,0,1,1,3-3A3,3,0,0,1,1318.88,18.83Z"/><path class="cls-3" d="M1317.94,46.09a3,3,0,1,1,3-3A3,3,0,0,1,1317.94,46.09Z"/><path class="cls-3" d="M1317.2,73.35a3,3,0,1,1,3-3A3,3,0,0,1,1317.2,73.35Z"/><path class="cls-3" d="M1316.67,100.62a3,3,0,1,1,3-3A3,3,0,0,1,1316.67,100.62Z"/><path class="cls-3" d="M1316.35,127.9a3,3,0,1,1,2.94-3A2.95,2.95,0,0,1,1316.35,127.9Z"/><path class="cls-3" d="M1316.23,155.17a2.93,2.93,0,1,1,2.92-2.93A2.93,2.93,0,0,1,1316.23,155.17Z"/><path class="cls-3" d="M1316.31,182.45a2.92,2.92,0,1,1,2.91-2.92A2.91,2.91,0,0,1,1316.31,182.45Z"/><path class="cls-3" d="M1316.6,209.72a2.9,2.9,0,1,1,2.89-2.89A2.9,2.9,0,0,1,1316.6,209.72Z"/><path class="cls-3" d="M1317.09,237a2.88,2.88,0,1,1,2.88-2.88A2.87,2.87,0,0,1,1317.09,237Z"/><path class="cls-3" d="M1317.79,264.26a2.86,2.86,0,1,1,2.86-2.86A2.86,2.86,0,0,1,1317.79,264.26Z"/><circle class="cls-3" cx="1318.7" cy="288.68" r="2.84"/></g></g></svg>