<svg id="圖層_1" data-name="圖層 1" xmlns="http://www.w3.org/2000/svg" xmlns:xlink="http://www.w3.org/1999/xlink" viewBox="0 0 1440 300"><defs><style>.cls-1{fill:none;}.cls-2{clip-path:url(#clip-path);}.cls-3{fill:#2b323f;}.cls-4{fill:url(#未命名漸層_18);}.cls-5{fill:#fff;}.cls-6{clip-path:url(#clip-path-2);}.cls-7{opacity:0.6;}</style><clipPath id="clip-path"><rect class="cls-1" x="-1460" y="-667" width="1440" height="769"/></clipPath><linearGradient id="未命名漸層_18" x1="721.54" y1="203.9" x2="721.54" y2="87.82" gradientUnits="userSpaceOnUse"><stop offset="0" stop-color="#fff000" stop-opacity="0"/><stop offset="0.12" stop-color="#fff000" stop-opacity="0.05"/><stop offset="0.35" stop-color="#fff000" stop-opacity="0.2"/><stop offset="0.67" stop-color="#fff000" stop-opacity="0.43"/><stop offset="1" stop-color="#fff000" stop-opacity="0.7"/></linearGradient><clipPath id="clip-path-2"><rect class="cls-1" x="1499" y="2383" width="1439" height="1433.11"/></clipPath></defs><g class="cls-2"><g id="wave"><path class="cls-3" d="M-20.12,22.39v80h80A80,80,0,0,1-20.12,22.39Z"/></g></g><circle class="cls-4" cx="721.54" cy="145.86" r="58.04"/><path class="cls-5" d="M658.56,157.73c-.17.42-.59.71-1.64.58A70,70,0,0,1,645.46,168c2.77,5.88,7.43,9.62,15.24,12l0,.46c-2.94.63-4.83,2.86-5.46,6.09-9.66-4.62-12.6-13.52-13.61-27-.76,12.1-4,21.18-21.21,27L620,186c16.26-9.75,15-21.93,15-39.11l8.4.75c-.13.68-.55,1.05-1.6,1.22v.63c.38,7.18,1.22,12.94,3.16,17.48a86.89,86.89,0,0,0,6.09-13.61Zm-37-3c15.5,5.67,10.8,17.6,4.92,12.94a43.22,43.22,0,0,0-5.34-12.73Z"/><path class="cls-5" d="M708.84,179.11c1.55.67,1.89,1.38,1.89,2.6,0,2.44-2,3.66-9.08,3.66h-3.86c-4.79,0-5.93-1.05-5.93-5.13V164.66h-3.61c-.8,10.29-4.62,18.31-17.47,21.84l-.17-.42c8.57-5.21,10.54-12.73,10.71-21.42H670.94l-.33-1.18h16.72V146.64l7.85.63c-.08.59-.38,1-1.55,1.17v15h8.11l3.19-4s3.61,2.69,5.75,4.54c-.12.46-.58.67-1.21.67H698.08V178.6c0,.68.25.89,1.3.89h3c.88,0,1.76,0,2.31,0a1.29,1.29,0,0,0,1.13-.64,41,41,0,0,0,2.44-6h.38Zm-34.2-29.66c15,4,9.2,16,3.36,11a22.31,22.31,0,0,0-3.69-10.76Zm33.82,3.07c-.21.5-.84.84-1.85.71a50.8,50.8,0,0,1-10.33,8.53l-.38-.3c1.3-3,3.15-8.06,4.49-12.43Z"/><path class="cls-5" d="M754.61,157.85s4,3.32,6.35,5.46c-.13.47-.63.68-1.26.68H744.15v19.95c0,.63-2.81,2.27-5.54,2.27h-1.18V164h-16l-.34-1.18h16.34V146.89l8.66.8c-.09.75-.47,1.3-1.94,1.51v13.61H751Z"/><path class="cls-5" d="M808.12,178.9c2.48.75,3.32,1.13,3.32,2.35,0,2.69-1.93,4.37-10.88,4.37H786.7c-7,0-10-1.81-10-7.86v-16a35.71,35.71,0,0,1-5.25,3.19l-.3-.29c4.42-4.2,8.83-11.93,10.8-18.27l8.23,2c-.16.51-.5.72-1.68.67-.54.89-1.17,1.81-1.8,2.69h5.79l3.07-3.11,5.34,4.5c-.34.42-.8.54-1.68.63a40,40,0,0,1-7.65,5H800l2.73-3,5.68,4.29a2.92,2.92,0,0,1-1.85,1v10.55c0,.34-3,1.51-5,1.51h-1v-2.77H782.62v7.6c0,1.52,1,2,3.91,2H800c2.35,0,3.57-.17,4.53-1a25.6,25.6,0,0,0,3.11-5.67h.42Zm-22.39-26a43.42,43.42,0,0,1-4.58,5.08l2.06.76h7.14a37.23,37.23,0,0,0,2.27-5.84Zm-3.11,16.21h5.89V160h-5.89Zm11.72-9.2v9.2h6.1V160Z"/><g class="cls-6"><g class="cls-7"><path class="cls-5" d="M1436.75,15.71a2.51,2.51,0,1,1,2.51-2.51A2.51,2.51,0,0,1,1436.75,15.71Z"/><path class="cls-5" d="M1440.71,42.31a2.5,2.5,0,1,1,2.5-2.49A2.5,2.5,0,0,1,1440.71,42.31Z"/><path class="cls-5" d="M1353.31,12.62a2.6,2.6,0,1,1,2.59-2.6A2.59,2.59,0,0,1,1353.31,12.62Z"/><path class="cls-5" d="M1357.37,39.59A2.58,2.58,0,1,1,1360,37,2.57,2.57,0,0,1,1357.37,39.59Z"/><path class="cls-5" d="M1361.65,66.53a2.56,2.56,0,1,1,2.56-2.56A2.56,2.56,0,0,1,1361.65,66.53Z"/><path class="cls-5" d="M1366.15,93.43a2.54,2.54,0,1,1,2.54-2.54A2.54,2.54,0,0,1,1366.15,93.43Z"/><path class="cls-5" d="M1370.86,120.3a2.53,2.53,0,1,1,2.53-2.53A2.52,2.52,0,0,1,1370.86,120.3Z"/><path class="cls-5" d="M1375.8,147.12a2.51,2.51,0,1,1,2.5-2.5A2.5,2.5,0,0,1,1375.8,147.12Z"/><circle class="cls-5" cx="1380.95" cy="171.42" r="2.49"/><path class="cls-5" d="M1386.32,200.65a2.47,2.47,0,1,1,2.47-2.47A2.48,2.48,0,0,1,1386.32,200.65Z"/><path class="cls-5" d="M1391.92,227.35a2.46,2.46,0,1,1,2.45-2.46A2.46,2.46,0,0,1,1391.92,227.35Z"/><path class="cls-5" d="M1397.73,254a2.44,2.44,0,1,1,2.44-2.44A2.43,2.43,0,0,1,1397.73,254Z"/><path class="cls-5" d="M1403.77,280.59a2.42,2.42,0,1,1,2.42-2.41A2.41,2.41,0,0,1,1403.77,280.59Z"/></g></g></svg>