<svg width="168" height="38" viewBox="0 0 168 38" fill="none" xmlns="http://www.w3.org/2000/svg">
<g clip-path="url(#clip0_87_1504)">
<path d="M76.4245 12.2679H72.3151V16.2662H76.4245V12.2679Z" fill="url(#paint0_linear_87_1504)"/>
<path d="M65.5162 19.205L65.6832 16.8129H58.3999V19.8201C59.2185 19.7005 60.0537 19.598 60.8722 19.5126C62.4091 19.3417 63.9626 19.2563 65.5162 19.205Z" fill="url(#paint1_linear_87_1504)"/>
<path d="M74.4867 19.5126C75.1382 19.5809 75.773 19.6493 76.4244 19.7347V16.8129H68.8906L69.0576 19.1879C70.8784 19.2221 72.6826 19.3246 74.4867 19.5126Z" fill="url(#paint2_linear_87_1504)"/>
<path d="M62.4759 12.2679H58.3665V16.2662H62.4759V12.2679Z" fill="url(#paint3_linear_87_1504)"/>
<path d="M76.4244 11.7212V7.72302H68.2391L68.523 11.7212H76.4244Z" fill="url(#paint4_linear_87_1504)"/>
<path d="M58.3665 7.72302V11.7212H66.0507L66.3514 7.72302H58.3665Z" fill="url(#paint5_linear_87_1504)"/>
<path d="M41.2943 19.6492V28.5L49.9473 28.6025C45.1531 28.5512 41.2943 24.553 41.2943 19.6492Z" fill="url(#paint6_linear_87_1504)"/>
<path d="M50.1812 10.6789L41.2943 10.5422V19.6493C41.2943 14.643 45.2867 10.6106 50.1812 10.6789Z" fill="url(#paint7_linear_87_1504)"/>
<path d="M49.9473 28.6196L52.002 28.6367V10.7131L50.1812 10.679C45.2867 10.6106 41.2943 14.643 41.2943 19.6493C41.2943 24.5531 45.1531 28.5513 49.9473 28.6196Z" fill="white"/>
<path d="M77.8945 20.9478L81.3023 20.8966V20.7086C79.6819 20.2473 78.0448 19.9568 76.4245 19.7347C75.773 19.6493 75.1382 19.5809 74.4867 19.5126C72.6826 19.3246 70.8618 19.2221 69.0576 19.1879L68.8906 16.8129L68.5231 11.7212L68.2391 7.72301L67.9384 3.51978H66.6522L66.3515 7.72301L66.0675 11.7212L65.7 16.8129L65.5329 19.205C63.9794 19.2563 62.4426 19.3417 60.889 19.5126C60.0705 19.598 59.2352 19.7005 58.4167 19.8201C56.9634 20.0252 55.5268 20.3156 54.0735 20.7257V20.9137L57.4812 20.9649L60.889 20.982L66.4851 20.9991C66.2847 22.2806 65.9339 23.5108 65.4494 24.6897C64.7311 26.3813 63.7288 27.9361 62.4927 29.2176C61.2565 30.4991 59.8032 31.5072 58.2162 32.1736C56.646 32.8228 54.9588 33.1133 53.2883 33.0108V36.6502C55.46 36.5647 57.5982 35.9496 59.4858 34.9415C61.3734 33.9334 63.0105 32.5153 64.2968 30.8579C65.5998 29.2005 66.5686 27.321 67.17 25.3561C67.2201 25.2023 67.2535 25.0486 67.3036 24.8948C67.3538 25.0486 67.3872 25.2023 67.4373 25.3561C68.0387 27.3381 69.0075 29.2176 70.3105 30.8579C71.6135 32.4982 73.2505 33.9164 75.1215 34.9415C77.0091 35.9667 79.1306 36.5647 81.319 36.6502V33.0108C79.6652 33.1133 77.978 32.8228 76.391 32.1736C74.8041 31.5243 73.3508 30.4991 72.1146 29.2176C70.8785 27.9361 69.8762 26.3984 69.1579 24.6897C68.6734 23.5279 68.3226 22.2806 68.1222 20.9991L74.5034 20.9649L77.8945 20.9478Z" fill="white"/>
<path d="M93.2962 13.1223C95.401 13.1223 97.2886 14.0791 98.5749 15.5827C99.5438 14.3696 100.128 12.8318 100.128 11.1574C100.128 7.29587 97.0715 4.16907 93.2962 4.16907C89.5209 4.16907 86.4639 7.29587 86.4639 11.1574C86.4639 12.8489 87.0486 14.3867 88.0175 15.5827C89.3038 14.0791 91.1914 13.1223 93.2962 13.1223Z" fill="url(#paint8_linear_87_1504)"/>
<path d="M98.3244 15.8561C97.1049 14.4038 95.3008 13.4811 93.2962 13.4811C91.2917 13.4811 89.4875 14.4038 88.2681 15.8561C89.521 17.2572 91.3084 18.1286 93.2962 18.1286C95.2841 18.1286 97.0715 17.2572 98.3244 15.8561Z" fill="url(#paint9_linear_87_1504)"/>
<path d="M93.2962 27.4577C91.1914 27.4577 89.3038 26.5009 88.0175 24.9973C87.0486 26.2104 86.4639 27.7482 86.4639 29.4227C86.4639 33.2842 89.5209 36.411 93.2962 36.411C97.0715 36.411 100.128 33.2842 100.128 29.4227C100.128 27.7311 99.5438 26.1934 98.5749 24.9973C97.2886 26.5009 95.401 27.4577 93.2962 27.4577Z" fill="url(#paint10_linear_87_1504)"/>
<path d="M88.2513 24.7069C89.4708 26.1592 91.2749 27.0819 93.2795 27.0819C95.2841 27.0819 97.0882 26.1592 98.3076 24.7069C97.0548 23.3058 95.2674 22.4344 93.2795 22.4344C91.2916 22.4344 89.5042 23.3229 88.2513 24.7069Z" fill="url(#paint11_linear_87_1504)"/>
<path d="M93.2962 13.1223C91.1914 13.1223 89.3037 14.0791 88.0175 15.5827C86.9484 16.8471 86.2802 18.4874 86.2802 20.2815C86.2802 22.0755 86.9317 23.7158 88.0175 24.9802C89.3037 26.4838 91.1914 27.4407 93.2962 27.4407C95.401 27.4407 97.2886 26.4838 98.5749 24.9802C99.644 23.7158 100.312 22.0755 100.312 20.2815C100.312 18.4874 99.6607 16.8471 98.5749 15.5827C97.2886 14.0791 95.401 13.1223 93.2962 13.1223ZM98.3243 24.7068C97.1049 26.1592 95.3008 27.0818 93.2962 27.0818C91.2916 27.0818 89.4875 26.1592 88.268 24.7068C87.2657 23.5108 86.6477 21.973 86.6477 20.2815C86.6477 18.5899 87.2657 17.0522 88.268 15.8561C89.4875 14.4038 91.2916 13.4811 93.2962 13.4811C95.3008 13.4811 97.1049 14.4038 98.3243 15.8561C99.3266 17.0522 99.9447 18.5899 99.9447 20.2815C99.9447 21.973 99.3266 23.5279 98.3243 24.7068Z" fill="white"/>
<path d="M120.642 14.7626C119.422 14.0963 118.32 13.1052 117.401 11.9263C117.602 10.4569 118.186 9.08996 119.038 8.11603C119.473 7.62053 119.974 7.24463 120.492 7.0396C120.993 6.83456 121.494 6.7833 121.928 6.88582V3.24643C120.792 3.34895 119.723 3.81028 118.905 4.45956C118.086 5.10884 117.468 5.9119 117.034 6.74913C116.499 7.79139 116.215 8.86783 116.115 9.96136C115.647 9.10704 115.246 8.18438 114.929 7.22754C114.695 6.50992 114.495 5.77521 114.344 5.02341C114.444 4.08366 114.478 3.14391 114.444 2.20416H113.96H112.674H112.189C112.122 3.87862 111.855 5.55308 111.371 7.12503C111.12 7.92808 110.819 8.71406 110.452 9.44877C110.318 8.52611 110.034 7.60344 109.583 6.73204C109.149 5.89481 108.531 5.09175 107.712 4.44247C106.894 3.79319 105.825 3.33186 104.689 3.22934V6.86873C105.123 6.7833 105.608 6.81747 106.125 7.02251C106.627 7.22754 107.144 7.60344 107.579 8.09895C108.381 9.00452 108.932 10.2518 109.166 11.6016C108.264 12.8489 107.161 13.9254 105.925 14.6601C104.639 15.4119 103.235 15.7878 101.832 15.7365V19.3759C103.937 19.3247 105.975 18.59 107.629 17.4452C109.299 16.3004 110.636 14.7797 111.655 13.1223C112.44 11.8579 113.024 10.491 113.476 9.10704C113.876 10.4398 114.428 11.7554 115.146 12.9856C116.115 14.643 117.401 16.1637 119.038 17.3256C120.659 18.4874 122.663 19.2734 124.768 19.3588V15.7536C123.381 15.8391 121.945 15.4973 120.642 14.7626Z" fill="white"/>
<path d="M120.642 33.3184C119.422 32.652 118.32 31.661 117.401 30.4821C117.602 29.0126 118.186 27.6457 119.038 26.6718C119.473 26.1763 119.974 25.8004 120.492 25.5954C120.993 25.3903 121.494 25.3391 121.928 25.4416V21.8022C120.792 21.9047 119.723 22.3661 118.905 23.0153C118.086 23.6646 117.468 24.4677 117.034 25.3049C116.499 26.3472 116.215 27.4236 116.115 28.5171C115.647 27.6628 115.246 26.7402 114.929 25.7833C114.695 25.0657 114.495 24.331 114.344 23.5792C114.444 22.6394 114.478 21.6997 114.444 20.7599H113.96H112.674H112.189C112.122 22.4344 111.855 24.1089 111.371 25.6808C111.12 26.4839 110.819 27.2698 110.452 28.0046C110.318 27.0819 110.034 26.1592 109.583 25.2878C109.149 24.4506 108.531 23.6475 107.712 22.9983C106.894 22.349 105.825 21.8876 104.689 21.7851V25.4245C105.123 25.3391 105.608 25.3733 106.125 25.5783C106.627 25.7833 107.144 26.1592 107.579 26.6547C108.381 27.5603 108.932 28.8076 109.166 30.1574C108.264 31.4047 107.161 32.4812 105.925 33.2159C104.639 33.9677 103.235 34.3436 101.832 34.2923V37.9317C103.937 37.8805 105.975 37.1457 107.629 36.001C109.299 34.8562 110.636 33.3355 111.655 31.6781C112.44 30.4137 113.024 29.0468 113.476 27.6628C113.876 28.9956 114.428 30.3112 115.146 31.5414C116.115 33.1988 117.401 34.7195 119.038 35.8814C120.659 37.0432 122.663 37.8292 124.768 37.9146V34.2752C123.381 34.3948 121.945 34.0531 120.642 33.3184Z" fill="white"/>
<path d="M131.067 19.6493V19.8543C131.084 19.7177 131.084 19.581 131.102 19.4614C131.084 19.5126 131.084 19.581 131.067 19.6493Z" fill="url(#paint12_radial_87_1504)"/>
<path d="M131.067 19.5126V19.5468C131.067 19.5126 131.084 19.4784 131.084 19.4614C131.084 19.4614 131.067 19.4784 131.067 19.5126Z" fill="url(#paint13_radial_87_1504)"/>
<path d="M131.066 6.74915V11.2429C131.066 11.2941 131.066 11.3454 131.066 11.3966C131.066 11.5162 131.066 11.6187 131.066 11.7384V18.8634C131.149 18.1457 131.233 17.4281 131.333 16.7105C131.4 16.2662 131.467 15.8391 131.534 15.4119C131.6 14.9677 131.65 14.5405 131.701 14.0963C131.751 13.652 131.801 13.2249 131.868 12.7806C131.918 12.3364 131.985 11.9092 132.035 11.465C132.152 10.5936 132.285 9.72217 132.436 8.85076H132.452C132.369 9.72217 132.252 10.6107 132.135 11.4821C132.068 11.9263 132.018 12.3535 131.951 12.7977C131.884 13.242 131.817 13.6691 131.751 14.1134C131.684 14.5405 131.617 14.9848 131.567 15.429C131.517 15.8732 131.467 16.3004 131.417 16.7446C131.316 17.5306 131.199 18.3166 131.066 19.0855V19.1367C131.266 18.3508 131.467 17.5648 131.701 16.7788C131.834 16.3517 131.951 15.9416 132.085 15.5144C132.202 15.0873 132.319 14.6601 132.436 14.233C132.552 13.8058 132.653 13.3786 132.77 12.9515C132.887 12.5243 133.004 12.0972 133.12 11.67C133.371 10.8157 133.605 9.97846 133.872 9.14123H133.889C133.672 9.99555 133.455 10.8499 133.221 11.7042C133.104 12.1313 132.987 12.5585 132.853 12.9686C132.736 13.3957 132.603 13.8058 132.486 14.233C132.352 14.6601 132.235 15.0702 132.118 15.4973C132.001 15.9245 131.901 16.3517 131.784 16.7788C131.567 17.5819 131.333 18.3849 131.082 19.1709C131.383 18.3849 131.717 17.6161 132.051 16.8643C132.235 16.4713 132.419 16.0612 132.603 15.6682C132.786 15.2581 132.953 14.8652 133.12 14.4551C133.288 14.045 133.455 13.6349 133.622 13.242C133.789 12.8319 133.972 12.4389 134.139 12.0288C134.49 11.2258 134.858 10.4227 135.225 9.63674H135.242C134.925 10.4569 134.574 11.2599 134.223 12.0801C134.056 12.4902 133.872 12.8831 133.688 13.2932C133.505 13.7033 133.321 14.0963 133.137 14.4893C132.953 14.8822 132.77 15.2923 132.603 15.6853C132.436 16.0954 132.269 16.5054 132.101 16.8984C131.767 17.6673 131.433 18.4362 131.066 19.2051C131.483 18.4704 131.918 17.7527 132.352 17.0351C132.586 16.6592 132.82 16.3004 133.054 15.9245C133.288 15.5486 133.505 15.1727 133.739 14.7968C133.956 14.4209 134.19 14.045 134.407 13.6691C134.641 13.2932 134.858 12.9173 135.092 12.5414C135.559 11.7896 136.027 11.0549 136.495 10.3202C136.06 11.0891 135.609 11.8409 135.158 12.5927C134.925 12.9686 134.707 13.3445 134.474 13.7033C134.24 14.0792 134.006 14.438 133.772 14.8139C133.538 15.1898 133.304 15.5486 133.07 15.9245C132.836 16.3004 132.636 16.6763 132.402 17.0522C131.968 17.7698 131.517 18.4875 131.066 19.188C131.584 18.5216 132.101 17.8553 132.636 17.2231C132.92 16.8813 133.204 16.5567 133.488 16.2321C133.772 15.8903 134.039 15.5486 134.306 15.2069C134.574 14.8652 134.841 14.5234 135.125 14.1817C135.392 13.84 135.676 13.4982 135.96 13.1565C136.512 12.4902 137.079 11.8238 137.664 11.1574C137.13 11.858 136.578 12.5414 136.044 13.2078C135.76 13.5495 135.493 13.8741 135.209 14.2159C134.925 14.5576 134.641 14.8822 134.357 15.224C134.073 15.5486 133.789 15.8903 133.521 16.2321C133.254 16.5738 132.987 16.9155 132.703 17.2572C132.185 17.9065 131.634 18.5558 131.082 19.188C131.684 18.6071 132.285 18.0261 132.903 17.4623C133.221 17.1718 133.555 16.8813 133.889 16.5909C134.206 16.3004 134.524 15.9929 134.841 15.7024C135.158 15.3948 135.476 15.1044 135.793 14.7968C136.111 14.5063 136.428 14.1988 136.745 13.9083C137.397 13.3274 138.032 12.7464 138.7 12.1655C138.082 12.7806 137.447 13.3786 136.812 13.9767C136.495 14.2671 136.177 14.5576 135.843 14.8652C135.526 15.1556 135.192 15.4461 134.874 15.7366C134.54 16.027 134.223 16.3175 133.906 16.608C133.588 16.8984 133.271 17.206 132.953 17.5135C132.352 18.0774 131.717 18.6412 131.082 19.188C131.751 18.6925 132.436 18.2141 133.12 17.7357C133.488 17.4964 133.839 17.2572 134.206 17.018C134.557 16.7788 134.925 16.5225 135.275 16.2662C135.626 16.0099 135.977 15.7536 136.344 15.5144C136.695 15.2581 137.063 15.0189 137.414 14.7626C138.132 14.2671 138.85 13.7887 139.585 13.3274C138.884 13.84 138.182 14.3526 137.464 14.8481C137.113 15.0873 136.745 15.3436 136.395 15.5828C136.044 15.822 135.676 16.0612 135.309 16.3004C134.941 16.5396 134.59 16.7788 134.223 17.0351C133.872 17.2914 133.521 17.5477 133.171 17.7869C132.486 18.2653 131.801 18.7267 131.099 19.1709C131.834 18.7779 132.569 18.3849 133.321 18.0261C133.705 17.8382 134.106 17.6502 134.49 17.4623C134.874 17.2743 135.259 17.0693 135.643 16.8643C136.027 16.6592 136.411 16.4713 136.796 16.2662C137.18 16.0783 137.564 15.8732 137.948 15.6853C138.733 15.3094 139.502 14.9335 140.287 14.5747V14.5918C139.518 15.0018 138.75 15.3948 137.982 15.7878C137.597 15.9758 137.213 16.1637 136.812 16.3688C136.428 16.5567 136.027 16.7446 135.643 16.9326C135.259 17.1205 134.858 17.3085 134.474 17.4964C134.089 17.7015 133.705 17.9065 133.321 18.0945C132.586 18.4704 131.834 18.8292 131.082 19.1709C131.868 18.8804 132.653 18.6071 133.438 18.3508C133.855 18.2141 134.256 18.0945 134.674 17.9578C135.092 17.8211 135.493 17.6844 135.893 17.5306C136.294 17.3939 136.712 17.2402 137.113 17.1035C137.514 16.9668 137.931 16.8301 138.349 16.6934C139.168 16.42 139.986 16.1637 140.821 15.9245V15.9416C140.003 16.2491 139.201 16.5225 138.382 16.7959C137.965 16.9326 137.564 17.0693 137.146 17.206C136.729 17.3427 136.328 17.4623 135.91 17.599C135.493 17.7357 135.092 17.8553 134.674 17.992C134.273 18.1286 133.855 18.2824 133.455 18.4191C132.669 18.6925 131.884 18.9317 131.082 19.1709C131.901 19 132.703 18.8292 133.521 18.6925C133.939 18.6241 134.373 18.5558 134.808 18.4875C135.225 18.4191 135.66 18.3337 136.077 18.2482C136.495 18.1628 136.929 18.0774 137.347 17.992C137.764 17.9065 138.199 17.8382 138.616 17.7527C139.468 17.599 140.32 17.4623 141.172 17.3427V17.3598C140.32 17.5477 139.485 17.7015 138.633 17.8723C138.215 17.9578 137.781 18.0261 137.363 18.0945C136.946 18.1628 136.512 18.2312 136.094 18.2995C135.66 18.3679 135.242 18.4362 134.824 18.5216C134.407 18.6071 133.972 18.6925 133.555 18.7779C132.736 18.9317 131.918 19.0684 131.099 19.188C131.934 19.1367 132.753 19.0855 133.588 19.0684C134.023 19.0684 134.457 19.0513 134.874 19.0513C135.309 19.0342 135.743 19.0171 136.161 19C136.595 18.983 137.029 18.9488 137.447 18.9317C137.881 18.9146 138.316 18.8975 138.733 18.8804C139.602 18.8463 140.454 18.8292 141.323 18.8292V18.8463C140.454 18.9146 139.602 18.9488 138.733 18.983C138.299 19 137.865 19.0171 137.447 19.0171C137.013 19.0342 136.578 19.0342 136.161 19.0513C135.726 19.0513 135.292 19.0684 134.874 19.0855C134.44 19.1026 134.006 19.1367 133.588 19.1538C132.77 19.188 131.934 19.2051 131.116 19.2051C131.951 19.2563 132.77 19.3418 133.588 19.4443C134.023 19.4955 134.44 19.5639 134.874 19.6152C135.309 19.6664 135.726 19.7006 136.161 19.7348C136.595 19.7689 137.013 19.8031 137.447 19.8544C137.881 19.9056 138.299 19.9398 138.733 19.9911C139.585 20.0936 140.454 20.1961 141.306 20.3157V20.3328C140.437 20.2644 139.585 20.1961 138.733 20.1107C138.299 20.0594 137.881 20.0081 137.447 19.974C137.013 19.9227 136.595 19.8714 136.161 19.8202C135.726 19.7689 135.309 19.7177 134.874 19.6664C134.44 19.6322 134.023 19.5981 133.588 19.5468C132.77 19.4614 131.951 19.3589 131.133 19.2563C131.951 19.4272 132.753 19.6322 133.555 19.8373C133.972 19.9569 134.39 20.0765 134.808 20.179C135.225 20.2815 135.643 20.384 136.06 20.4866C136.478 20.5891 136.896 20.6916 137.313 20.7941C137.731 20.8966 138.149 20.9991 138.566 21.1017C139.401 21.3238 140.237 21.5459 141.072 21.7851V21.8022C140.22 21.6143 139.385 21.4092 138.55 21.2042C138.132 21.1017 137.714 20.9821 137.297 20.8795C136.879 20.777 136.461 20.6574 136.044 20.5378C135.626 20.4182 135.209 20.3157 134.791 20.2132C134.373 20.1107 133.956 20.0252 133.538 19.9227C132.736 19.7177 131.934 19.5126 131.133 19.2734C131.918 19.5639 132.686 19.8714 133.455 20.1961C133.855 20.367 134.24 20.5378 134.641 20.7087C135.042 20.8795 135.442 21.0333 135.843 21.1871C136.244 21.3409 136.645 21.4947 137.046 21.6655C137.447 21.8193 137.848 21.9902 138.249 22.161C139.051 22.5027 139.836 22.8445 140.638 23.2033V23.2204C139.819 22.9128 139.017 22.6053 138.215 22.2635C137.815 22.0927 137.414 21.9389 137.013 21.768C136.612 21.5972 136.211 21.4263 135.827 21.2554C135.426 21.0846 135.025 20.9137 134.624 20.7429C134.223 20.5891 133.822 20.4353 133.421 20.2644C132.653 19.9569 131.884 19.6322 131.133 19.2905C131.868 19.6835 132.586 20.1107 133.304 20.5378C133.672 20.7599 134.039 20.9991 134.407 21.2213C134.774 21.4434 135.158 21.6655 135.526 21.8705C135.91 22.0756 136.278 22.2977 136.662 22.5198C137.029 22.742 137.414 22.947 137.781 23.1691C138.533 23.6134 139.268 24.0576 140.003 24.536C139.234 24.1259 138.483 23.6817 137.748 23.2545C137.38 23.0324 136.996 22.8103 136.628 22.5882C136.261 22.3661 135.893 22.1439 135.509 21.9047C135.142 21.6826 134.774 21.4605 134.39 21.2384C134.023 21.0162 133.638 20.8112 133.254 20.6062C132.536 20.1961 131.817 19.7518 131.116 19.3076C131.784 19.8031 132.452 20.3157 133.104 20.8454C133.438 21.1188 133.772 21.4092 134.106 21.6826C134.44 21.956 134.791 22.2294 135.125 22.4857C135.476 22.742 135.81 23.0153 136.161 23.2887C136.495 23.5621 136.846 23.8184 137.18 24.0918C137.865 24.6385 138.533 25.1853 139.184 25.7491C138.483 25.2366 137.798 24.6898 137.113 24.1601C136.779 23.8867 136.428 23.6134 136.094 23.34C135.76 23.0666 135.426 22.7932 135.092 22.5027C134.758 22.2294 134.423 21.956 134.073 21.6826C133.739 21.4092 133.388 21.1529 133.037 20.8795C132.385 20.367 131.734 19.8373 131.099 19.2905C131.701 19.8885 132.285 20.4866 132.853 21.1017C133.154 21.4263 133.438 21.7509 133.739 22.0756C134.039 22.4002 134.34 22.7078 134.641 23.0153C134.941 23.3229 135.259 23.6304 135.559 23.9551C135.86 24.2626 136.161 24.5873 136.461 24.8948C137.063 25.527 137.647 26.1763 138.232 26.8256C137.614 26.2105 137.013 25.5783 136.395 24.9461C136.094 24.6214 135.793 24.3139 135.493 23.9893C135.192 23.6646 134.908 23.34 134.607 23.0324C134.306 22.7078 134.023 22.3831 133.722 22.0756C133.421 21.768 133.104 21.4605 132.803 21.1358C132.218 20.5378 131.65 19.9227 131.099 19.2905C131.617 19.9569 132.101 20.6403 132.586 21.3238C132.836 21.6826 133.07 22.0414 133.321 22.4002C133.571 22.759 133.822 23.1179 134.089 23.4596C134.357 23.8184 134.607 24.1601 134.858 24.5189C135.108 24.8777 135.376 25.2366 135.626 25.5783C136.127 26.2959 136.628 27.0135 137.113 27.7482C136.578 27.0477 136.06 26.3472 135.559 25.6295C135.309 25.2707 135.058 24.9119 134.808 24.5531C134.557 24.1943 134.306 23.8355 134.056 23.4767C133.805 23.1179 133.555 22.759 133.304 22.4002C133.054 22.0414 132.786 21.6997 132.519 21.3409C132.035 20.6574 131.55 19.974 131.082 19.2734C131.5 20.0081 131.901 20.7599 132.285 21.5117C132.486 21.9047 132.669 22.2977 132.87 22.6907C133.07 23.0837 133.271 23.4767 133.488 23.8526C133.705 24.2456 133.906 24.6214 134.106 25.0144C134.306 25.4074 134.524 25.7833 134.724 26.1763C135.125 26.9623 135.526 27.7482 135.893 28.5342C135.459 27.7653 135.042 26.9964 134.641 26.2276C134.44 25.8346 134.24 25.4416 134.039 25.0486C133.839 24.6556 133.638 24.2626 133.455 23.8696C133.254 23.4767 133.054 23.0837 132.853 22.6907C132.653 22.2977 132.436 21.9218 132.218 21.5288C131.817 20.7941 131.45 20.0423 131.082 19.2734C131.4 20.0594 131.684 20.8454 131.968 21.6484C132.101 22.0585 132.252 22.4857 132.385 22.8957C132.536 23.3058 132.686 23.7159 132.836 24.143C132.987 24.5531 133.154 24.9632 133.304 25.3732C133.455 25.7833 133.605 26.1934 133.755 26.6205C134.039 27.4578 134.323 28.2779 134.59 29.1152H134.574C134.256 28.295 133.939 27.4749 133.638 26.6376C133.488 26.2276 133.338 25.8004 133.204 25.3903C133.054 24.9803 132.92 24.5531 132.786 24.143C132.653 23.733 132.502 23.3058 132.352 22.8957C132.202 22.4857 132.035 22.0756 131.884 21.6655C131.6 20.8795 131.316 20.0765 131.066 19.2734C131.266 20.0936 131.45 20.9308 131.617 21.7509C131.701 22.1781 131.784 22.6223 131.868 23.0495C131.951 23.4767 132.051 23.9038 132.152 24.3481C132.252 24.7752 132.352 25.2024 132.436 25.6466C132.536 26.0738 132.619 26.5009 132.703 26.9452C132.87 27.8166 133.054 28.6709 133.204 29.5423H133.187C132.987 28.688 132.786 27.8337 132.603 26.9623C132.519 26.5351 132.419 26.0909 132.335 25.6637C132.252 25.2366 132.168 24.7923 132.085 24.3652C132.001 23.938 131.918 23.4938 131.834 23.0666C131.734 22.6394 131.634 22.2123 131.55 21.7851C131.366 20.965 131.216 20.1277 131.066 19.2905C131.149 20.1277 131.216 20.9821 131.266 21.8193C131.283 22.2635 131.3 22.7078 131.333 23.1349C131.366 23.5792 131.4 24.0063 131.433 24.4506C131.467 24.8948 131.517 25.322 131.55 25.7662C131.584 26.2105 131.617 26.6376 131.65 27.0819C131.701 27.9704 131.751 28.8418 131.784 29.7303H131.767C131.684 28.8589 131.6 27.9704 131.534 27.099C131.5 26.6547 131.483 26.2105 131.45 25.7833C131.417 25.3391 131.4 24.8948 131.383 24.4677C131.366 24.0234 131.333 23.5792 131.3 23.152C131.266 22.7078 131.216 22.2806 131.183 21.8364C131.116 20.9991 131.066 20.1448 131.049 19.3076C131.032 19.7006 131.016 20.0936 130.999 20.4866V31.8831C137.814 31.8831 143.344 26.2276 143.344 19.2563C143.411 12.4047 137.881 6.74915 131.066 6.74915Z" fill="url(#paint14_radial_87_1504)"/>
<path d="M131.568 15.3948C131.618 14.9506 131.685 14.5234 131.752 14.0792C131.818 13.652 131.885 13.2078 131.952 12.7635C132.019 12.3193 132.086 11.8921 132.136 11.4479C132.253 10.5765 132.353 9.70508 132.453 8.81659H132.437C132.286 9.68799 132.153 10.5594 132.036 11.4308C131.969 11.875 131.919 12.3022 131.869 12.7464C131.818 13.1907 131.752 13.6178 131.702 14.0621C131.651 14.5063 131.601 14.9335 131.535 15.3777C131.468 15.822 131.401 16.2491 131.334 16.6763C131.234 17.3939 131.134 18.1116 131.067 18.8292V19.0342C131.2 18.2482 131.317 17.4794 131.418 16.6934C131.468 16.2662 131.518 15.822 131.568 15.3948Z" fill="white"/>
<path d="M132.103 15.4974C132.22 15.0702 132.337 14.643 132.471 14.233C132.604 13.8058 132.721 13.3957 132.838 12.9686C132.955 12.5414 133.089 12.1143 133.206 11.7042C133.439 10.8499 133.673 9.99555 133.874 9.14124H133.857C133.59 9.97847 133.339 10.8328 133.105 11.67C132.988 12.0972 132.871 12.5243 132.755 12.9515C132.638 13.3786 132.521 13.8058 132.42 14.233C132.304 14.6601 132.203 15.0873 132.07 15.5144C131.953 15.9416 131.819 16.3517 131.685 16.7788C131.452 17.5648 131.251 18.3508 131.051 19.1367V19.2051C131.301 18.4191 131.535 17.6161 131.752 16.813C131.886 16.3517 131.986 15.9245 132.103 15.4974Z" fill="white"/>
<path d="M131.266 21.9731C131.3 22.4173 131.35 22.8445 131.383 23.2887C131.417 23.733 131.433 24.1772 131.467 24.6044C131.483 25.0486 131.517 25.4929 131.533 25.92C131.567 26.3643 131.584 26.8085 131.617 27.2357C131.684 28.1071 131.751 28.9956 131.851 29.867H131.868C131.834 28.9785 131.784 28.1071 131.734 27.2186C131.701 26.7743 131.667 26.3472 131.634 25.9029C131.6 25.4587 131.567 25.0315 131.517 24.5873C131.483 24.143 131.45 23.7159 131.417 23.2716C131.383 22.8274 131.366 22.3831 131.35 21.956C131.3 21.1017 131.233 20.2644 131.149 19.4272C131.3 20.2644 131.45 21.0846 131.634 21.9218C131.734 22.349 131.834 22.7761 131.918 23.2033C132.018 23.6304 132.101 24.0747 132.168 24.5019C132.252 24.929 132.335 25.3733 132.419 25.8004C132.502 26.2276 132.586 26.6718 132.686 27.099C132.87 27.9533 133.054 28.8247 133.271 29.679H133.287C133.137 28.8076 132.97 27.9362 132.786 27.0819C132.703 26.6547 132.603 26.2276 132.519 25.7833C132.419 25.3562 132.335 24.929 132.235 24.4848C132.135 24.0576 132.035 23.6304 131.951 23.1862C131.868 22.759 131.784 22.3148 131.701 21.8876C131.533 21.0504 131.35 20.2303 131.149 19.4101C131.4 20.2132 131.684 21.0162 131.968 21.8022C132.118 22.2123 132.285 22.6224 132.436 23.0324C132.586 23.4425 132.736 23.8697 132.87 24.2797C133.004 24.6898 133.154 25.117 133.287 25.527C133.438 25.9371 133.571 26.3643 133.722 26.7743C134.022 27.5945 134.323 28.4317 134.657 29.2519H134.674C134.407 28.4146 134.123 27.5774 133.839 26.7572C133.688 26.3472 133.538 25.9371 133.388 25.5099C133.237 25.0999 133.087 24.6898 132.92 24.2797C132.77 23.8697 132.619 23.4596 132.469 23.0324C132.319 22.6224 132.185 22.1952 132.051 21.7851C131.767 20.9821 131.483 20.1961 131.166 19.4101C131.533 20.179 131.901 20.9308 132.302 21.6655C132.502 22.0585 132.72 22.4344 132.937 22.8274C133.137 23.2204 133.338 23.6134 133.538 24.0063C133.739 24.3993 133.922 24.7923 134.123 25.1853C134.323 25.5783 134.524 25.9713 134.724 26.3643C135.125 27.1331 135.543 27.9191 135.977 28.6709C135.593 27.8849 135.209 27.099 134.808 26.313C134.607 25.92 134.407 25.527 134.19 25.1511C133.989 24.7581 133.772 24.3822 133.571 23.9893C133.354 23.5963 133.154 23.2204 132.953 22.8274C132.753 22.4344 132.569 22.0414 132.369 21.6484C131.985 20.8966 131.584 20.1448 131.166 19.4101C131.634 20.1107 132.101 20.7941 132.603 21.4776C132.853 21.8364 133.12 22.1781 133.388 22.5369C133.638 22.8957 133.889 23.2545 134.139 23.6134C134.39 23.9722 134.641 24.331 134.891 24.6898C135.142 25.0486 135.392 25.4074 135.643 25.7662C136.161 26.4839 136.662 27.1844 137.196 27.8849C136.712 27.1502 136.211 26.4326 135.71 25.715C135.459 25.3562 135.209 24.9974 134.941 24.6556C134.691 24.2968 134.423 23.9551 134.173 23.5963C133.906 23.2375 133.655 22.8957 133.404 22.5369C133.154 22.1781 132.903 21.8193 132.669 21.4605C132.185 20.777 131.684 20.0936 131.183 19.4272C131.734 20.0594 132.302 20.6745 132.887 21.2725C133.187 21.5801 133.505 21.8876 133.805 22.2123C134.106 22.5198 134.407 22.8445 134.691 23.1691C134.991 23.4938 135.275 23.8184 135.576 24.126C135.877 24.4506 136.177 24.7581 136.478 25.0828C137.079 25.715 137.681 26.3472 138.316 26.9623C137.731 26.313 137.146 25.6637 136.545 25.0315C136.244 24.7069 135.944 24.3993 135.643 24.0918C135.342 23.7842 135.041 23.4596 134.724 23.152C134.423 22.8445 134.123 22.5198 133.822 22.2123C133.521 21.8876 133.237 21.563 132.937 21.2384C132.369 20.6233 131.784 20.0252 131.183 19.4272C131.817 19.974 132.469 20.5037 133.12 21.0162C133.471 21.2896 133.805 21.5459 134.156 21.8193C134.49 22.0927 134.841 22.3661 135.175 22.6394C135.509 22.9128 135.843 23.2033 136.177 23.4767C136.512 23.7501 136.846 24.0234 137.196 24.2968C137.881 24.8436 138.566 25.3733 139.268 25.8858C138.6 25.322 137.931 24.7752 137.263 24.2285C136.929 23.9551 136.578 23.6817 136.244 23.4254C135.91 23.152 135.559 22.8957 135.209 22.6224C134.858 22.349 134.524 22.0927 134.19 21.8193C133.855 21.5459 133.521 21.2555 133.187 20.9821C132.536 20.4524 131.884 19.9398 131.199 19.4443C131.901 19.8885 132.619 20.3328 133.338 20.7429C133.722 20.965 134.089 21.17 134.474 21.3751C134.841 21.5972 135.225 21.8193 135.593 22.0414C135.96 22.2635 136.328 22.5028 136.712 22.7249C137.079 22.947 137.447 23.1691 137.831 23.3912C138.583 23.8355 139.335 24.2626 140.086 24.6727C139.351 24.2114 138.616 23.7501 137.865 23.3058C137.497 23.0837 137.113 22.8616 136.745 22.6565C136.378 22.4344 135.994 22.2294 135.609 22.0072C135.225 21.8022 134.858 21.5801 134.49 21.358C134.123 21.1358 133.755 20.8966 133.388 20.6745C132.669 20.2474 131.951 19.8373 131.216 19.4272C131.968 19.7689 132.736 20.0936 133.505 20.4011C133.906 20.5549 134.306 20.7087 134.707 20.8796C135.108 21.0504 135.509 21.2042 135.91 21.3921C136.311 21.563 136.712 21.7339 137.096 21.9047C137.497 22.0756 137.898 22.2465 138.299 22.4002C139.101 22.7249 139.903 23.0495 140.721 23.3571V23.34C139.936 22.9812 139.134 22.6394 138.332 22.2977C137.931 22.1269 137.531 21.9731 137.13 21.8022C136.729 21.6313 136.328 21.4776 135.927 21.3238C135.526 21.17 135.125 20.9992 134.724 20.8454C134.323 20.6745 133.939 20.5037 133.538 20.3328C132.77 20.0081 132.001 19.7006 131.216 19.4101C132.018 19.6493 132.803 19.8544 133.622 20.0594C134.039 20.1619 134.457 20.2474 134.874 20.3499C135.292 20.4524 135.71 20.572 136.127 20.6745C136.545 20.7941 136.963 20.8966 137.38 21.0162C137.798 21.1188 138.215 21.2384 138.633 21.3409C139.468 21.5459 140.304 21.751 141.155 21.9389V21.9218C140.32 21.6826 139.485 21.4605 138.65 21.2384C138.232 21.1358 137.814 21.0333 137.397 20.9308C136.979 20.8283 136.562 20.7258 136.144 20.6233C135.726 20.5207 135.309 20.4182 134.891 20.3157C134.474 20.2132 134.056 20.0936 133.638 19.974C132.836 19.7689 132.035 19.5639 131.216 19.393C132.035 19.5126 132.853 19.6152 133.672 19.6835C134.106 19.7177 134.524 19.7519 134.958 19.8031C135.392 19.8544 135.81 19.9056 136.244 19.9569C136.679 20.0081 137.096 20.0594 137.531 20.1107C137.965 20.1619 138.382 20.2132 138.817 20.2474C139.669 20.3328 140.537 20.4182 141.389 20.4695V20.4524C140.537 20.3328 139.685 20.2303 138.817 20.1278C138.382 20.0765 137.965 20.0423 137.531 19.9911C137.096 19.9398 136.679 19.9056 136.244 19.8715C135.81 19.8373 135.392 19.786 134.958 19.7519C134.524 19.7006 134.106 19.6493 133.672 19.581C132.853 19.4785 132.018 19.4101 131.199 19.3418C132.035 19.3418 132.853 19.3247 133.672 19.2905C134.106 19.2734 134.54 19.2393 134.958 19.2222C135.392 19.2051 135.827 19.188 136.244 19.188C136.679 19.188 137.113 19.1709 137.531 19.1538C137.965 19.1367 138.399 19.1367 138.817 19.1197C139.685 19.0855 140.537 19.0342 141.406 18.983V18.9659C140.537 18.9659 139.685 18.983 138.817 19.0171C138.382 19.0342 137.948 19.0513 137.531 19.0684C137.096 19.0855 136.662 19.1026 136.244 19.1367C135.81 19.1538 135.376 19.188 134.958 19.188C134.524 19.2051 134.089 19.2051 133.672 19.2051C132.836 19.2222 132.018 19.2734 131.183 19.3247C132.001 19.2051 132.82 19.0684 133.638 18.9146C134.056 18.8292 134.49 18.7438 134.908 18.6583C135.325 18.5729 135.76 18.5046 136.177 18.4362C136.612 18.3679 137.029 18.2995 137.447 18.2312C137.865 18.1628 138.299 18.0774 138.717 18.009C139.568 17.8553 140.42 17.6844 141.256 17.4965V17.4794C140.404 17.599 139.552 17.7528 138.7 17.8894C138.282 17.9578 137.848 18.0432 137.43 18.1287C137.013 18.2141 136.578 18.2995 136.161 18.3849C135.743 18.4704 135.309 18.5558 134.891 18.6242C134.474 18.6925 134.039 18.7608 133.605 18.8292C132.786 18.9659 131.968 19.1197 131.166 19.3076C131.968 19.0684 132.753 18.8292 133.538 18.5558C133.939 18.4191 134.357 18.2653 134.758 18.1287C135.175 17.992 135.576 17.8553 135.994 17.7357C136.411 17.6161 136.812 17.4794 137.23 17.3427C137.647 17.206 138.048 17.0693 138.466 16.9326C139.285 16.6592 140.103 16.3688 140.905 16.0783V16.0612C140.07 16.3004 139.251 16.5738 138.433 16.8301C138.015 16.9668 137.614 17.1035 137.196 17.2402C136.795 17.3769 136.378 17.5135 135.977 17.6673C135.576 17.804 135.158 17.9578 134.758 18.0945C134.34 18.2312 133.939 18.3508 133.521 18.4875C132.736 18.7438 131.951 19.0171 131.166 19.3076C131.918 18.9659 132.669 18.6071 133.404 18.2312C133.789 18.0261 134.173 17.8211 134.557 17.6331C134.941 17.4452 135.325 17.2402 135.726 17.0693C136.111 16.8813 136.512 16.6934 136.896 16.5054C137.28 16.3175 137.681 16.1296 138.065 15.9245C138.833 15.5315 139.602 15.1385 140.37 14.7285V14.7114C139.585 15.0702 138.8 15.4461 138.032 15.822C137.647 16.0099 137.263 16.215 136.879 16.4029C136.495 16.5909 136.111 16.7959 135.726 17.001C135.342 17.206 134.958 17.3939 134.574 17.599C134.19 17.7869 133.789 17.9749 133.404 18.1628C132.653 18.5216 131.918 18.9146 131.183 19.3076C131.884 18.8634 132.569 18.402 133.254 17.9236C133.605 17.6673 133.956 17.411 134.306 17.1718C134.657 16.9155 135.025 16.6763 135.392 16.4371C135.76 16.1979 136.111 15.9587 136.478 15.7195C136.846 15.4803 137.196 15.224 137.547 14.9848C138.266 14.4893 138.967 13.9767 139.669 13.4641C138.934 13.9254 138.215 14.4209 137.497 14.8993C137.146 15.1385 136.779 15.3948 136.428 15.6511C136.077 15.9074 135.726 16.1466 135.359 16.4029C135.008 16.6592 134.657 16.9155 134.29 17.1547C133.922 17.3939 133.571 17.6331 133.204 17.8724C132.519 18.3337 131.834 18.8292 131.166 19.3247C131.801 18.7779 132.419 18.2312 133.037 17.6502C133.354 17.3427 133.672 17.0522 133.989 16.7447C134.306 16.4542 134.624 16.1637 134.958 15.8733C135.292 15.5828 135.609 15.2923 135.927 15.0019C136.244 14.7114 136.578 14.4209 136.896 14.1134C137.531 13.5153 138.165 12.9173 138.783 12.3022C138.115 12.8661 137.48 13.447 136.829 14.045C136.512 14.3355 136.194 14.643 135.877 14.9335C135.559 15.224 135.242 15.5315 134.925 15.8391C134.607 16.1466 134.29 16.4371 133.972 16.7276C133.655 17.018 133.321 17.3085 132.987 17.599C132.369 18.1628 131.751 18.7438 131.166 19.3247C131.717 18.6925 132.252 18.0603 132.786 17.3939C133.054 17.0522 133.321 16.7105 133.605 16.3688C133.872 16.027 134.156 15.7024 134.44 15.3607C134.724 15.036 135.008 14.6943 135.292 14.3526C135.576 14.0108 135.86 13.6862 136.127 13.3445C136.679 12.661 137.23 11.9776 137.748 11.2941C137.163 11.9434 136.612 12.6269 136.044 13.2932C135.76 13.6349 135.493 13.9767 135.209 14.3184C134.941 14.6601 134.657 15.0019 134.39 15.3436C134.123 15.6853 133.839 16.027 133.571 16.3688C133.287 16.7105 133.003 17.0351 132.72 17.3598C132.185 18.009 131.65 18.6583 131.149 19.3247C131.617 18.6242 132.051 17.9065 132.486 17.1889C132.703 16.813 132.92 16.4371 133.154 16.0612C133.388 15.6853 133.605 15.3094 133.855 14.9506C134.089 14.5747 134.323 14.2159 134.557 13.84C134.791 13.4641 135.025 13.0882 135.242 12.7294C135.693 11.9776 136.144 11.2258 136.578 10.4569C136.094 11.1916 135.626 11.9263 135.175 12.6781C134.941 13.054 134.724 13.4299 134.49 13.8058C134.256 14.1817 134.039 14.5576 133.822 14.9335C133.605 15.3094 133.371 15.6853 133.137 16.0612C132.903 16.4371 132.669 16.7959 132.436 17.1718C131.985 17.8894 131.567 18.6071 131.149 19.3418C131.517 18.5729 131.851 17.8211 132.185 17.0351C132.352 16.6251 132.519 16.215 132.686 15.822C132.853 15.4119 133.037 15.0189 133.221 14.626C133.404 14.233 133.588 13.8229 133.772 13.4299C133.956 13.0198 134.123 12.6269 134.306 12.2168C134.657 11.4137 134.991 10.5936 135.325 9.77344H135.309C134.925 10.5594 134.574 11.3625 134.223 12.1655C134.039 12.5756 133.872 12.9686 133.705 13.3787C133.538 13.7887 133.371 14.1817 133.204 14.5918C133.037 15.0019 132.87 15.3948 132.686 15.8049C132.502 16.1979 132.319 16.608 132.135 17.001C131.801 17.7698 131.467 18.5387 131.166 19.3076V19.4101V19.4956C131.166 19.4956 131.166 19.4956 131.166 19.4785V19.4956V19.5468C131.166 19.5297 131.183 19.4956 131.183 19.4785C131.183 19.5126 131.166 19.5468 131.166 19.5639V19.6664C131.183 19.5981 131.199 19.5297 131.199 19.4614C131.183 19.5981 131.183 19.7348 131.166 19.8544V20.6233C131.183 20.2303 131.199 19.8373 131.216 19.4443C131.149 20.2815 131.199 21.1188 131.266 21.9731Z" fill="white"/>
<path d="M167.983 19.3076C167.983 19.3263 167.983 19.3263 167.983 19.3076C167.983 19.3263 167.983 19.3263 167.983 19.3263V19.3076C167.983 19.3076 168.003 19.3076 167.983 19.3076Z" fill="url(#paint15_radial_87_1504)"/>
<path d="M155.638 19.3759C155.638 26.3472 161.168 32.0027 167.983 32.0027V19.6493C167.983 19.581 167.983 19.5126 167.967 19.4443C167.933 20.2815 167.883 21.1358 167.833 21.9731C167.8 22.4173 167.749 22.8445 167.716 23.2887C167.683 23.733 167.666 24.1772 167.633 24.6044C167.616 25.0486 167.582 25.4928 167.566 25.92C167.532 26.3643 167.516 26.8085 167.482 27.2357C167.415 28.1071 167.349 28.9955 167.248 29.867H167.232C167.265 28.9785 167.315 28.1071 167.365 27.2186C167.399 26.7743 167.432 26.3472 167.465 25.9029C167.499 25.4587 167.532 25.0315 167.582 24.5873C167.616 24.143 167.649 23.7159 167.683 23.2716C167.716 22.8274 167.733 22.3831 167.749 21.956C167.8 21.1017 167.866 20.2644 167.95 19.4272C167.8 20.2644 167.649 21.0846 167.465 21.9218C167.365 22.349 167.265 22.7761 167.181 23.2033C167.081 23.6304 166.998 24.0747 166.931 24.5018C166.847 24.929 166.764 25.3732 166.68 25.8004C166.597 26.2276 166.513 26.6718 166.413 27.099C166.229 27.9533 166.046 28.8247 165.828 29.679H165.812C165.962 28.8076 166.129 27.9362 166.313 27.0819C166.396 26.6547 166.497 26.2276 166.58 25.7833C166.68 25.3562 166.764 24.929 166.864 24.4848C166.964 24.0576 167.065 23.6304 167.148 23.1862C167.232 22.759 167.315 22.3148 167.399 21.8876C167.566 21.0504 167.749 20.2303 167.95 19.4101C167.699 20.2132 167.415 21.0162 167.131 21.8022C166.981 22.2123 166.814 22.6223 166.664 23.0324C166.513 23.4425 166.363 23.8696 166.229 24.2797C166.096 24.6898 165.945 25.1169 165.812 25.527C165.661 25.9371 165.528 26.3643 165.377 26.7743C165.077 27.5945 164.776 28.4317 164.442 29.2518H164.425C164.692 28.4146 164.976 27.5774 165.26 26.7572C165.411 26.3472 165.561 25.9371 165.711 25.5099C165.862 25.0999 166.012 24.6898 166.179 24.2797C166.33 23.8696 166.48 23.4596 166.63 23.0324C166.781 22.6223 166.914 22.1952 167.048 21.7851C167.332 20.9821 167.616 20.1961 167.933 19.4101C167.566 20.179 167.198 20.9137 166.797 21.6655C166.597 22.0585 166.38 22.4344 166.163 22.8274C165.962 23.2204 165.762 23.6134 165.561 24.0063C165.361 24.3993 165.177 24.7923 164.976 25.1853C164.776 25.5783 164.576 25.9713 164.375 26.3643C163.974 27.1331 163.557 27.9191 163.122 28.6709C163.506 27.8849 163.891 27.099 164.292 26.313C164.492 25.92 164.692 25.527 164.91 25.1511C165.11 24.7581 165.327 24.3822 165.528 23.9893C165.745 23.5963 165.945 23.2204 166.146 22.8274C166.346 22.4344 166.53 22.0414 166.73 21.6484C167.115 20.8966 167.516 20.1448 167.933 19.4101C167.465 20.1107 166.998 20.7941 166.497 21.4776C166.246 21.8364 165.979 22.1781 165.711 22.5369C165.461 22.8957 165.21 23.2545 164.96 23.6134C164.709 23.9722 164.459 24.331 164.208 24.6898C163.957 25.0486 163.707 25.4074 163.456 25.7662C162.938 26.4839 162.437 27.1844 161.903 27.8849C162.387 27.1502 162.888 26.4326 163.39 25.715C163.64 25.3562 163.891 24.9973 164.158 24.6556C164.409 24.2968 164.676 23.9551 164.926 23.5963C165.194 23.2375 165.444 22.8957 165.695 22.5369C165.945 22.1781 166.196 21.8193 166.43 21.4605C166.914 20.777 167.415 20.0936 167.917 19.4272C167.365 20.0594 166.797 20.6745 166.213 21.2725C165.912 21.5801 165.595 21.8876 165.294 22.2123C164.993 22.5198 164.692 22.8445 164.409 23.1691C164.108 23.4938 163.824 23.8184 163.523 24.1259C163.222 24.4506 162.922 24.7581 162.621 25.0828C162.02 25.715 161.418 26.3472 160.784 26.9623C161.368 26.313 161.953 25.6637 162.554 25.0315C162.855 24.7069 163.156 24.3993 163.456 24.0918C163.757 23.7842 164.058 23.4596 164.375 23.152C164.676 22.8445 164.976 22.5198 165.277 22.2123C165.578 21.8876 165.862 21.563 166.163 21.2384C166.73 20.6232 167.315 20.0252 167.917 19.4272C167.282 19.974 166.63 20.5036 165.979 21.0162C165.628 21.2896 165.294 21.5459 164.943 21.8193C164.609 22.0927 164.258 22.3661 163.924 22.6394C163.59 22.9128 163.256 23.2033 162.922 23.4767C162.588 23.75 162.254 24.0234 161.903 24.2968C161.218 24.8436 160.533 25.3732 159.831 25.8858C160.5 25.322 161.168 24.7752 161.836 24.2285C162.17 23.9551 162.521 23.6817 162.855 23.4254C163.189 23.152 163.54 22.8957 163.891 22.6223C164.241 22.349 164.576 22.0927 164.91 21.8193C165.244 21.5459 165.578 21.2554 165.912 20.9821C166.563 20.4524 167.215 19.9398 167.9 19.4443C167.198 19.8885 166.48 20.3328 165.762 20.7429C165.377 20.965 165.01 21.17 164.626 21.375C164.258 21.5972 163.874 21.8193 163.506 22.0414C163.139 22.2635 162.771 22.5027 162.387 22.7249C162.02 22.947 161.652 23.1691 161.268 23.3912C160.516 23.8355 159.765 24.2626 159.013 24.6727C159.748 24.2114 160.483 23.75 161.235 23.3058C161.602 23.0837 161.986 22.8616 162.354 22.6565C162.721 22.4344 163.106 22.2294 163.49 22.0072C163.874 21.8022 164.241 21.5801 164.609 21.358C164.976 21.1358 165.344 20.8966 165.711 20.6745C166.43 20.2473 167.148 19.8373 167.883 19.4272C167.131 19.7689 166.363 20.0936 165.595 20.4011C165.194 20.5549 164.793 20.7087 164.392 20.8795C163.991 21.0504 163.59 21.2042 163.189 21.3921C162.788 21.563 162.387 21.7339 162.003 21.9047C161.602 22.0756 161.201 22.2464 160.8 22.4002C159.998 22.7249 159.197 23.0495 158.378 23.3571V23.34C159.163 22.9812 159.965 22.6394 160.767 22.2977C161.168 22.1268 161.569 21.9731 161.97 21.8022C162.371 21.6313 162.771 21.4776 163.172 21.3238C163.573 21.17 163.974 20.9991 164.375 20.8454C164.776 20.6745 165.16 20.5036 165.561 20.3328C166.33 20.0081 167.098 19.7006 167.883 19.4101C167.081 19.6493 166.296 19.8544 165.478 20.0594C165.06 20.1619 164.642 20.2473 164.225 20.3499C163.807 20.4524 163.39 20.572 162.972 20.6745C162.554 20.7941 162.137 20.8966 161.719 21.0162C161.301 21.1187 160.884 21.2384 160.466 21.3409C159.631 21.5459 158.796 21.7509 157.944 21.9389V21.9218C158.779 21.6826 159.614 21.4605 160.449 21.2384C160.867 21.1358 161.285 21.0333 161.702 20.9308C162.12 20.8283 162.538 20.7258 162.955 20.6232C163.373 20.5207 163.79 20.4182 164.208 20.3157C164.626 20.2132 165.043 20.0936 165.461 19.974C166.263 19.7689 167.065 19.5639 167.883 19.393C167.065 19.5126 166.246 19.6152 165.427 19.6835C164.993 19.7177 164.576 19.7518 164.141 19.8031C163.707 19.8544 163.289 19.9056 162.855 19.9569C162.421 20.0081 162.003 20.0594 161.569 20.1107C161.134 20.1619 160.717 20.2132 160.282 20.2473C159.43 20.3328 158.562 20.4182 157.71 20.4695V20.4524C158.562 20.3328 159.414 20.2303 160.282 20.1277C160.717 20.0765 161.134 20.0423 161.569 19.9911C162.003 19.9398 162.421 19.9056 162.855 19.8714C163.289 19.8373 163.707 19.786 164.141 19.7518C164.576 19.7006 164.993 19.6493 165.427 19.581C166.246 19.4785 167.081 19.4101 167.9 19.3418C167.065 19.3418 166.246 19.3247 165.427 19.2905C164.993 19.2734 164.559 19.2393 164.141 19.2222C163.707 19.2051 163.273 19.188 162.855 19.188C162.421 19.188 161.986 19.1709 161.569 19.1538C161.134 19.1367 160.7 19.1367 160.282 19.1196C159.414 19.0855 158.562 19.0342 157.693 18.983V18.9659C158.562 18.9659 159.414 18.983 160.282 19.0171C160.717 19.0342 161.151 19.0513 161.569 19.0684C162.003 19.0855 162.437 19.1026 162.855 19.1367C163.289 19.1538 163.724 19.188 164.141 19.188C164.576 19.2051 165.01 19.2051 165.427 19.2051C166.263 19.2222 167.081 19.2734 167.917 19.3247C167.098 19.2051 166.279 19.0684 165.461 18.9146C165.043 18.8292 164.609 18.7437 164.191 18.6583C163.774 18.5729 163.339 18.5045 162.922 18.4362C162.487 18.3679 162.07 18.2995 161.652 18.2312C161.235 18.1628 160.8 18.0774 160.383 18.009C159.531 17.8553 158.679 17.6844 157.844 17.4964V17.4794C158.695 17.599 159.547 17.7527 160.399 17.8894C160.817 17.9578 161.251 18.0432 161.669 18.1286C162.087 18.2141 162.521 18.2995 162.938 18.3849C163.356 18.4704 163.79 18.5558 164.208 18.6241C164.626 18.6925 165.06 18.7608 165.494 18.8292C166.313 18.9659 167.131 19.1196 167.933 19.3076C167.131 19.0684 166.346 18.8292 165.561 18.5558C165.16 18.4191 164.743 18.2653 164.342 18.1286C163.941 17.992 163.523 17.8553 163.106 17.7357C162.688 17.6161 162.287 17.4794 161.869 17.3427C161.452 17.206 161.051 17.0693 160.633 16.9326C159.815 16.6592 158.996 16.3687 158.194 16.0783V16.0612C159.03 16.3004 159.848 16.5738 160.667 16.8301C161.084 16.9668 161.485 17.1035 161.903 17.2402C162.32 17.3768 162.721 17.5135 163.122 17.6673C163.523 17.804 163.941 17.9578 164.342 18.0945C164.759 18.2312 165.16 18.3508 165.578 18.4875C166.363 18.7437 167.148 19.0171 167.933 19.3076C167.181 18.9659 166.43 18.6071 165.695 18.2312C165.311 18.0261 164.926 17.8211 164.542 17.6331C164.158 17.4452 163.774 17.2402 163.373 17.0693C162.989 16.8813 162.588 16.6934 162.203 16.5054C161.819 16.3175 161.418 16.1295 161.034 15.9245C160.266 15.5315 159.497 15.1385 158.729 14.7285V14.7114C159.514 15.0702 160.299 15.4461 161.068 15.822C161.452 16.0099 161.836 16.215 162.22 16.4029C162.604 16.5909 162.989 16.7959 163.373 17.0009C163.757 17.206 164.141 17.3939 164.525 17.599C164.91 17.7869 165.311 17.9749 165.695 18.1628C166.446 18.5216 167.181 18.9146 167.917 19.3076C167.215 18.8634 166.53 18.402 165.845 17.9236C165.494 17.6673 165.144 17.411 164.793 17.1718C164.442 16.9155 164.074 16.6763 163.707 16.4371C163.339 16.1979 162.989 15.9587 162.621 15.7195C162.254 15.4803 161.903 15.224 161.552 14.9848C160.834 14.4893 160.132 13.9767 159.43 13.4641C160.165 13.9254 160.884 14.4209 161.602 14.8993C161.953 15.1385 162.32 15.3948 162.671 15.6511C163.022 15.9074 163.373 16.1466 163.74 16.4029C164.091 16.6592 164.442 16.9155 164.809 17.1547C165.177 17.3939 165.528 17.6331 165.895 17.8723C166.58 18.3337 167.265 18.8292 167.933 19.3247C167.298 18.7779 166.68 18.2312 166.062 17.6502C165.745 17.3427 165.427 17.0522 165.11 16.7446C164.793 16.4542 164.475 16.1637 164.141 15.8732C163.807 15.5828 163.49 15.2923 163.172 15.0018C162.855 14.7114 162.521 14.4209 162.203 14.1134C161.569 13.5153 160.934 12.9173 160.316 12.3022C160.984 12.8661 161.619 13.447 162.27 14.045C162.588 14.3355 162.905 14.643 163.222 14.9335C163.54 15.224 163.857 15.5315 164.175 15.8391C164.492 16.1466 164.809 16.4371 165.127 16.7276C165.444 17.018 165.778 17.3085 166.112 17.599C166.73 18.1628 167.332 18.7267 167.933 19.3247C167.382 18.6925 166.847 18.0603 166.313 17.411C166.046 17.0693 165.778 16.7276 165.494 16.3858C165.227 16.0441 164.943 15.7195 164.659 15.3777C164.375 15.0531 164.091 14.7114 163.807 14.3696C163.523 14.0279 163.239 13.7033 162.972 13.3616C162.421 12.6781 161.869 11.9946 161.352 11.3112C161.936 11.9605 162.487 12.6439 163.055 13.3103C163.339 13.652 163.607 13.9937 163.891 14.3355C164.158 14.6772 164.442 15.0189 164.709 15.3607C164.976 15.7024 165.26 16.0441 165.528 16.3858C165.812 16.7276 166.096 17.0522 166.38 17.3768C166.914 18.009 167.432 18.6583 167.933 19.3247C167.482 18.6412 167.031 17.9407 166.614 17.2231C166.396 16.8472 166.179 16.4713 165.945 16.0954C165.711 15.7195 165.494 15.3436 165.244 14.9848C165.01 14.6089 164.776 14.25 164.542 13.8741C164.308 13.4982 164.074 13.1223 163.857 12.7635C163.406 12.0117 162.955 11.2599 162.521 10.4911C163.005 11.2258 163.473 11.9605 163.924 12.7123C164.158 13.0882 164.375 13.4641 164.609 13.84C164.843 14.2159 165.06 14.5918 165.277 14.9677C165.494 15.3436 165.728 15.7195 165.962 16.0954C166.196 16.4713 166.43 16.8301 166.664 17.206C167.098 17.9065 167.516 18.6071 167.917 19.3247V19.1367C167.566 18.402 167.232 17.6673 166.914 16.9155C166.747 16.5054 166.58 16.0954 166.413 15.7024C166.246 15.2923 166.062 14.8993 165.879 14.5063C165.695 14.1134 165.511 13.7033 165.327 13.3103C165.144 12.9002 164.976 12.5072 164.793 12.0972C164.442 11.2941 164.108 10.474 163.774 9.65382H163.79C164.175 10.4398 164.525 11.2429 164.876 12.0459C165.06 12.456 165.227 12.849 165.394 13.259C165.561 13.6691 165.728 14.0621 165.895 14.4722C166.062 14.8822 166.229 15.2752 166.413 15.6853C166.597 16.0783 166.781 16.4884 166.964 16.8813C167.282 17.6161 167.599 18.3508 167.9 19.0855V19.0513C167.666 18.2995 167.449 17.5477 167.232 16.7959C167.115 16.3687 167.014 15.9416 166.898 15.5144C166.781 15.0873 166.664 14.6601 166.53 14.25C166.396 13.8229 166.279 13.4128 166.163 12.9857C166.046 12.5585 165.912 12.1313 165.795 11.7213C165.561 10.867 165.327 10.0126 165.127 9.15832H165.144C165.411 9.99555 165.661 10.8499 165.895 11.6871C166.012 12.1143 166.129 12.5414 166.246 12.9686C166.363 13.3957 166.48 13.8229 166.58 14.25C166.697 14.6772 166.797 15.1044 166.931 15.5315C167.048 15.9587 167.181 16.3687 167.315 16.7959C167.532 17.5135 167.716 18.2482 167.9 18.983V18.795C167.783 18.0945 167.683 17.411 167.599 16.7105C167.549 16.2662 167.499 15.8391 167.449 15.3948C167.399 14.9506 167.332 14.5234 167.265 14.0792C167.198 13.652 167.131 13.2078 167.065 12.7635C166.998 12.3193 166.931 11.8921 166.881 11.4479C166.764 10.5765 166.664 9.70508 166.563 8.81659H166.58C166.73 9.68799 166.864 10.5594 166.981 11.4308C167.048 11.875 167.098 12.3022 167.148 12.7464C167.198 13.1907 167.265 13.6179 167.315 14.0621C167.365 14.5063 167.415 14.9335 167.482 15.3777C167.549 15.822 167.616 16.2491 167.683 16.6763C167.766 17.2743 167.85 17.8553 167.917 18.4533V6.74915C161.168 6.74915 155.638 12.4047 155.638 19.3759Z" fill="url(#paint16_radial_87_1504)"/>
<path d="M167.566 15.3777C167.499 14.9334 167.449 14.5063 167.399 14.062C167.349 13.6178 167.298 13.1906 167.232 12.7464C167.181 12.3021 167.115 11.875 167.065 11.4307C166.948 10.5593 166.814 9.68793 166.664 8.81653H166.647C166.73 9.68793 166.847 10.5764 166.964 11.4478C167.031 11.8921 167.081 12.3192 167.148 12.7635C167.215 13.2077 167.282 13.6349 167.349 14.0791C167.415 14.5063 167.482 14.9505 167.532 15.3948C167.582 15.839 167.633 16.2662 167.683 16.7104C167.766 17.411 167.883 18.0944 167.983 18.7949V18.4874C167.917 17.8894 167.833 17.2914 167.749 16.7104C167.699 16.2491 167.616 15.8219 167.566 15.3777Z" fill="white"/>
<path d="M167.031 15.4973C166.914 15.0701 166.797 14.643 166.68 14.2158C166.563 13.7887 166.463 13.3615 166.346 12.9343C166.229 12.5072 166.112 12.08 165.995 11.6529C165.745 10.7985 165.511 9.96132 165.244 9.12408H165.227C165.444 9.9784 165.661 10.8327 165.895 11.687C166.012 12.1142 166.129 12.5414 166.263 12.9514C166.38 13.3786 166.513 13.7887 166.63 14.2158C166.764 14.643 166.881 15.053 166.998 15.4802C167.115 15.9074 167.215 16.3345 167.332 16.7617C167.532 17.5135 167.766 18.2653 168 19.0171V18.9146C167.816 18.1798 167.616 17.4622 167.415 16.7275C167.282 16.3345 167.148 15.9074 167.031 15.4973Z" fill="white"/>
<path d="M166.513 15.6682C166.33 15.2581 166.162 14.8651 165.995 14.4551C165.828 14.045 165.661 13.6349 165.494 13.2419C165.327 12.8319 165.143 12.4389 164.976 12.0288C164.626 11.2257 164.258 10.4227 163.891 9.63672H163.874C164.191 10.4569 164.542 11.2599 164.893 12.0801C165.06 12.4901 165.244 12.8831 165.427 13.2932C165.611 13.7033 165.795 14.0962 165.979 14.4892C166.162 14.8822 166.346 15.2923 166.513 15.6853C166.68 16.0954 166.847 16.5054 167.014 16.8984C167.332 17.6502 167.666 18.3849 168.017 19.1196V19.0684C167.716 18.3337 167.415 17.5819 167.081 16.8642C166.881 16.4712 166.697 16.0783 166.513 15.6682Z" fill="white"/>
<path d="M166.029 15.9245C165.795 15.5486 165.578 15.1727 165.344 14.7968C165.127 14.4209 164.893 14.045 164.676 13.6691C164.442 13.2932 164.225 12.9173 163.991 12.5414C163.523 11.7896 163.055 11.0549 162.588 10.3202C163.022 11.0891 163.473 11.8409 163.924 12.5927C164.158 12.9686 164.375 13.3445 164.609 13.7033C164.843 14.0792 165.077 14.438 165.311 14.8139C165.544 15.1898 165.778 15.5486 166.012 15.9245C166.246 16.3004 166.446 16.6763 166.68 17.0522C167.098 17.7698 167.549 18.4704 168 19.1538V19.1367C167.599 18.4191 167.181 17.7186 166.747 17.018C166.497 16.6592 166.263 16.3004 166.029 15.9245Z" fill="white"/>
<path d="M165.595 16.2491C165.311 15.9074 165.043 15.5657 164.776 15.224C164.509 14.8822 164.242 14.5405 163.958 14.1988C163.69 13.8571 163.406 13.5153 163.122 13.1736C162.571 12.5072 162.003 11.8409 161.418 11.1745C161.953 11.875 162.504 12.5585 163.039 13.2249C163.323 13.5666 163.59 13.8912 163.874 14.233C164.158 14.5747 164.442 14.8993 164.726 15.241C165.01 15.5657 165.294 15.9074 165.561 16.2491C165.828 16.5909 166.096 16.9326 166.38 17.2743C166.898 17.9236 167.449 18.5558 168 19.188V19.1709C167.499 18.5045 166.981 17.8552 166.447 17.2231C166.163 16.9155 165.862 16.5738 165.595 16.2491Z" fill="white"/>
<path d="M165.194 16.625C164.876 16.3345 164.559 16.027 164.241 15.7365C163.924 15.429 163.607 15.1385 163.289 14.8309C162.972 14.5405 162.654 14.2329 162.337 13.9425C161.686 13.3615 161.051 12.7806 160.383 12.1996C161.001 12.8148 161.635 13.4128 162.27 14.0108C162.588 14.3013 162.905 14.5917 163.239 14.8993C163.557 15.1898 163.891 15.4802 164.208 15.7707C164.542 16.0612 164.86 16.3516 165.177 16.6421C165.494 16.9326 165.812 17.2401 166.129 17.5477C166.73 18.1115 167.365 18.6754 168 19.2221C167.332 18.7266 166.647 18.2482 165.962 17.7698C165.595 17.5306 165.244 17.2914 164.876 17.0522C164.525 16.813 164.158 16.5567 163.807 16.3004C163.456 16.0441 163.106 15.7878 162.738 15.5486C162.387 15.2923 162.02 15.0531 161.669 14.7968C160.951 14.3013 160.232 13.8228 159.497 13.3615C160.199 13.8741 160.9 14.3867 161.619 14.8822C161.97 15.1214 162.337 15.3777 162.688 15.6169C163.039 15.8561 163.406 16.0953 163.774 16.3345C164.141 16.5737 164.492 16.813 164.86 17.0692C165.21 17.3255 165.561 17.5818 165.912 17.821C166.597 18.2995 167.282 18.7608 167.983 19.205C167.248 18.8121 166.513 18.4191 165.762 18.0603C165.377 17.8723 164.976 17.6844 164.592 17.4964C164.208 17.3085 163.824 17.1034 163.44 16.8984C163.055 16.6933 162.671 16.5054 162.287 16.3004C161.903 16.1124 161.519 15.9074 161.134 15.7194C160.349 15.3435 159.581 14.9676 158.796 14.6088V14.6259C159.564 15.036 160.333 15.429 161.101 15.8219C161.485 16.0099 161.869 16.1978 162.27 16.4029C162.654 16.5908 163.055 16.7788 163.44 16.9667C163.824 17.1547 164.225 17.3426 164.609 17.5306C164.993 17.7356 165.377 17.9406 165.762 18.1286C166.497 18.5045 167.248 18.8633 168 19.205C167.215 18.9146 166.43 18.6412 165.645 18.3849C165.227 18.2482 164.826 18.1286 164.408 17.9919C163.991 17.8552 163.59 17.7185 163.189 17.5648C162.788 17.4281 162.371 17.2743 161.97 17.1376C161.569 17.0009 161.151 16.8642 160.733 16.7275C159.915 16.4541 159.096 16.1978 158.261 15.9586V15.9757C159.08 16.2833 159.881 16.5567 160.7 16.83C161.118 16.9667 161.519 17.1034 161.936 17.2401C162.354 17.3768 162.755 17.4964 163.172 17.6331C163.59 17.7698 163.991 17.8894 164.408 18.0261C164.809 18.1628 165.227 18.3165 165.628 18.4532C166.413 18.7266 167.198 18.9658 168 19.205C167.181 19.0342 166.38 18.8633 165.561 18.7266C165.143 18.6583 164.709 18.5899 164.275 18.5216C163.857 18.4532 163.423 18.3678 163.005 18.2824C162.588 18.1969 162.153 18.1115 161.736 18.0261C161.318 17.9407 160.884 17.8723 160.466 17.7869C159.614 17.6331 158.762 17.4964 157.91 17.3768V17.3939C158.762 17.5818 159.598 17.7356 160.449 17.9065C160.867 17.9919 161.301 18.0603 161.719 18.1286C162.137 18.1969 162.571 18.2653 162.989 18.3336C163.423 18.402 163.841 18.4703 164.258 18.5558C164.676 18.6412 165.11 18.7266 165.528 18.8121C166.346 18.9658 167.165 19.1025 167.983 19.2221C167.148 19.1709 166.33 19.1196 165.494 19.1025C165.06 19.1025 164.626 19.0854 164.208 19.0854C163.774 19.0683 163.339 19.0513 162.922 19.0342C162.487 19.0171 162.053 18.9829 161.635 18.9658C161.201 18.9487 160.767 18.9317 160.349 18.9146C159.481 18.8804 158.629 18.8633 157.76 18.8633V18.8804C158.629 18.9487 159.481 18.9829 160.349 19.0171C160.784 19.0342 161.218 19.0513 161.635 19.0513C162.07 19.0683 162.504 19.0683 162.922 19.0854C163.356 19.0854 163.79 19.1025 164.208 19.1196C164.642 19.1367 165.077 19.1709 165.494 19.188C166.313 19.2221 167.148 19.2392 167.967 19.2392C167.131 19.2905 166.313 19.3759 165.494 19.4784C165.06 19.5297 164.642 19.598 164.208 19.6493C163.774 19.7005 163.356 19.7347 162.922 19.7689C162.487 19.8031 162.07 19.8372 161.635 19.8885C161.201 19.9398 160.784 19.9739 160.349 20.0252C159.497 20.1277 158.629 20.2302 157.777 20.3498V20.3669C158.645 20.2986 159.497 20.2302 160.349 20.1448C160.784 20.0935 161.201 20.0423 161.635 20.0081C162.07 19.9568 162.487 19.9056 162.922 19.8543C163.356 19.8031 163.774 19.7518 164.208 19.7005C164.642 19.6664 165.06 19.6322 165.494 19.5809C166.313 19.4955 167.131 19.393 167.95 19.2905C167.131 19.4613 166.33 19.6664 165.528 19.8714C165.11 19.991 164.692 20.1106 164.275 20.2131C163.857 20.3156 163.44 20.4182 163.022 20.5207C162.604 20.6232 162.187 20.7257 161.769 20.8282C161.352 20.9308 160.934 21.0333 160.516 21.1358C159.681 21.3579 158.846 21.58 158.011 21.8192V21.8363C158.863 21.6484 159.698 21.4433 160.533 21.2383C160.951 21.1358 161.368 21.0162 161.786 20.9137C162.203 20.8112 162.621 20.6915 163.039 20.5719C163.456 20.4523 163.874 20.3498 164.292 20.2473C164.709 20.1448 165.127 20.0594 165.544 19.9568C166.346 19.7518 167.148 19.5468 167.95 19.3076C167.165 19.598 166.396 19.9056 165.628 20.2302C165.227 20.4011 164.843 20.5719 164.442 20.7428C164.041 20.9137 163.64 21.0674 163.239 21.2212C162.838 21.375 162.437 21.5288 162.036 21.6996C161.635 21.8534 161.235 22.0243 160.834 22.1951C160.032 22.5369 159.247 22.8786 158.445 23.2374V23.2545C159.263 22.9469 160.065 22.6394 160.867 22.2977C161.268 22.1268 161.669 21.973 162.07 21.8022C162.471 21.6313 162.872 21.4604 163.256 21.2896C163.657 21.1187 164.058 20.9478 164.459 20.777C164.86 20.6232 165.26 20.4694 165.661 20.2986C166.43 19.991 167.198 19.6664 167.95 19.3246C167.215 19.7176 166.497 20.1448 165.778 20.5719C165.411 20.7941 165.043 21.0333 164.676 21.2554C164.308 21.4775 163.924 21.6996 163.557 21.9047C163.172 22.1097 162.805 22.3318 162.421 22.554C162.053 22.7761 161.669 22.9811 161.301 23.2032C160.55 23.6475 159.815 24.0917 159.08 24.5701C159.848 24.1601 160.6 23.7158 161.335 23.2887C161.702 23.0665 162.087 22.8444 162.454 22.6223C162.822 22.4002 163.189 22.1781 163.573 21.9388C163.941 21.7167 164.308 21.4946 164.692 21.2725C165.06 21.0504 165.444 20.8453 165.828 20.6403C166.547 20.2302 167.265 19.786 167.967 19.3417C167.298 19.8372 166.63 20.3498 165.979 20.8795C165.645 21.1529 165.311 21.4433 164.976 21.7167C164.642 21.9901 164.292 22.2635 163.957 22.5198C163.607 22.7761 163.273 23.0495 162.922 23.3228C162.588 23.5962 162.237 23.8525 161.903 24.1259C161.218 24.6727 160.55 25.2194 159.898 25.7833C160.6 25.2707 161.285 24.7239 161.97 24.1942C162.304 23.9209 162.654 23.6475 162.989 23.3741C163.323 23.1007 163.657 22.8273 163.991 22.5369C164.325 22.2635 164.659 21.9901 165.01 21.7167C165.344 21.4433 165.695 21.1871 166.046 20.9137C166.697 20.4011 167.349 19.8714 167.983 19.3246C167.382 19.9227 166.797 20.5207 166.229 21.1358C165.929 21.4604 165.645 21.7851 165.344 22.1097C165.043 22.4344 164.743 22.7419 164.442 23.0495C164.141 23.357 163.824 23.6646 163.523 23.9892C163.222 24.2968 162.922 24.6214 162.621 24.929C162.02 25.5611 161.435 26.2104 160.85 26.8597C161.468 26.2446 162.07 25.6124 162.688 24.9802C162.989 24.6556 163.289 24.348 163.59 24.0234C163.891 23.6987 164.175 23.3741 164.475 23.0665C164.776 22.7419 165.06 22.4173 165.361 22.1097C165.661 21.8022 165.979 21.4946 166.279 21.17C166.864 20.5719 167.432 19.9568 167.983 19.3246C167.465 19.991 166.981 20.6745 166.497 21.3579C166.246 21.7167 166.012 22.0755 165.762 22.4344C165.511 22.7932 165.26 23.152 164.993 23.4937C164.726 23.8525 164.475 24.1942 164.225 24.5531C163.974 24.9119 163.707 25.2707 163.456 25.6124C162.955 26.33 162.454 27.0477 161.97 27.7824C162.504 27.0818 163.022 26.3813 163.523 25.6637C163.774 25.3049 164.024 24.946 164.275 24.5872C164.525 24.2284 164.776 23.8696 165.027 23.5108C165.277 23.152 165.528 22.7932 165.778 22.4344C166.029 22.0755 166.296 21.7338 166.563 21.375C167.048 20.6915 167.532 20.0081 168 19.3076C167.582 20.0423 167.181 20.7941 166.797 21.5459C166.597 21.9388 166.413 22.3318 166.213 22.7248C166.012 23.1178 165.812 23.5108 165.595 23.8867C165.377 24.2797 165.177 24.6556 164.976 25.0486C164.776 25.4415 164.559 25.8174 164.358 26.2104C163.957 26.9964 163.557 27.7824 163.189 28.5683C163.623 27.7995 164.041 27.0306 164.442 26.2617C164.642 25.8687 164.843 25.4757 165.043 25.0827C165.244 24.6897 165.444 24.2968 165.628 23.9038C165.828 23.5108 166.029 23.1178 166.229 22.7248C166.43 22.3318 166.647 21.9559 166.864 21.563C167.265 20.8282 167.633 20.0764 168 19.3076C167.683 20.0935 167.399 20.8795 167.115 21.6826C166.981 22.0926 166.831 22.5198 166.697 22.9299C166.547 23.3399 166.396 23.75 166.246 24.1772C166.096 24.5872 165.929 24.9973 165.778 25.4074C165.628 25.8174 165.478 26.2275 165.327 26.6547C165.043 27.4919 164.759 28.312 164.492 29.1493H164.509C164.826 28.3291 165.143 27.509 165.444 26.6718C165.595 26.2617 165.745 25.8345 165.879 25.4245C166.029 25.0144 166.162 24.5872 166.296 24.1772C166.43 23.7671 166.58 23.3399 166.73 22.9299C166.881 22.5198 167.048 22.1097 167.198 21.6996C167.482 20.9137 167.766 20.1106 168.017 19.3076C167.816 20.1277 167.633 20.9649 167.465 21.7851C167.382 22.2122 167.298 22.6565 167.215 23.0836C167.131 23.5108 167.031 23.9379 166.931 24.3822C166.831 24.8094 166.73 25.2365 166.647 25.6808C166.547 26.1079 166.463 26.5351 166.38 26.9793C166.213 27.8507 166.029 28.705 165.879 29.5764H165.895C166.096 28.7221 166.296 27.8678 166.48 26.9964C166.563 26.5692 166.664 26.125 166.747 25.6978C166.831 25.2707 166.914 24.8264 166.998 24.3993C167.081 23.9721 167.165 23.5279 167.248 23.1007C167.349 22.6736 167.449 22.2464 167.532 21.8192C167.716 20.9991 167.866 20.1619 168.017 19.3246C167.933 20.1619 167.866 21.0162 167.816 21.8534C167.8 22.2977 167.783 22.7419 167.749 23.1691C167.716 23.6133 167.683 24.0405 167.649 24.4847C167.616 24.929 167.566 25.3561 167.532 25.8004C167.499 26.2446 167.465 26.6718 167.432 27.116C167.382 28.0045 167.332 28.8759 167.298 29.7644H167.315C167.399 28.893 167.482 28.0045 167.549 27.1331C167.582 26.6888 167.599 26.2446 167.633 25.8174C167.666 25.3732 167.683 24.929 167.699 24.5018C167.716 24.0576 167.749 23.6133 167.783 23.1862C167.816 22.7419 167.866 22.3147 167.9 21.8705C167.967 21.0333 168.017 20.179 168.033 19.3417C168.033 19.4101 168.033 19.4784 168.05 19.5468V19.2563V19.1538C167.449 18.5728 166.847 17.9919 166.229 17.4281C165.845 17.2059 165.511 16.9155 165.194 16.625Z" fill="white"/>
<path d="M145.365 2.15289L149.558 16.9326L153.734 2.15289H145.365Z" fill="url(#paint17_linear_87_1504)"/>
<path d="M143.594 38H155.505L149.558 16.9326L143.594 38Z" fill="url(#paint18_linear_87_1504)"/>
<path d="M18.3586 18.2653L18.2583 18.419L18.5924 17.9748H18.4922L18.3252 18.2482C18.3252 18.2482 18.3419 18.2482 18.3586 18.2653Z" fill="white"/>
<path d="M22.184 0.461323C22.1672 0.461323 22.1672 0.461323 22.184 0.461323C22.1672 0.461323 22.1672 0.461323 22.1672 0.461323H22.1505C22.1505 0.461323 22.1505 0.461323 22.1338 0.461323H22.1171C22.1171 0.461323 22.1171 0.461323 22.1004 0.461323C21.8666 0.410064 21.616 0.358805 21.3821 0.324632C21.3654 0.324632 21.3654 0.324632 21.3487 0.324632C21.332 0.324632 21.332 0.324632 21.3153 0.324632C21.2986 0.324632 21.2986 0.324632 21.2819 0.324632C21.2485 0.324632 21.1984 0.307546 21.165 0.307546C21.1483 0.307546 21.1483 0.307546 21.1315 0.307546H21.1148H21.0981C21.0981 0.307546 21.0981 0.307546 21.0814 0.307546H21.0647C21.0647 0.307546 21.0647 0.307546 21.048 0.307546H21.0313C21.0313 0.307546 21.0313 0.307546 21.0146 0.307546H20.9979H20.9812C20.9645 0.307546 20.9645 0.307546 20.9478 0.307546C20.9311 0.307546 20.9144 0.307546 20.8977 0.290459H20.881H20.8643H20.8476H20.8309C20.8142 0.290459 20.8142 0.290459 20.7975 0.290459C20.7139 0.273373 20.6304 0.273373 20.5469 0.256287L18.1748 19.2563H18.2583L22.184 0.461323Z" fill="url(#paint19_linear_87_1504)"/>
<path d="M31.2212 5.26259C31.1711 5.21133 31.121 5.16007 31.0709 5.1259C31.0709 5.1259 31.0542 5.1259 31.0542 5.10882C31.0542 5.10882 31.0542 5.10882 31.0375 5.10882C31.0375 5.10882 31.0375 5.10882 31.0208 5.09173C31.0208 5.09173 31.0208 5.09173 31.0041 5.07464C31.0041 5.07464 31.0041 5.07464 30.9874 5.05756C30.9874 5.05756 30.9707 5.05756 30.9707 5.04047L30.954 5.02338L30.9373 5.0063L30.9206 4.98921L30.9039 4.97213L30.8871 4.95504C30.7201 4.80126 30.5363 4.64748 30.3526 4.49371L30.3359 4.47662C30.3025 4.44245 30.2691 4.42536 30.2357 4.39119L30.219 4.3741L30.2023 4.35702C30.2023 4.35702 30.2023 4.35702 30.1855 4.35702C30.1855 4.35702 30.1688 4.35702 30.1688 4.33993C30.1688 4.33993 30.1688 4.33993 30.1521 4.33993C30.1521 4.33993 30.1521 4.33993 30.1354 4.33993C30.1187 4.33993 30.1187 4.32284 30.102 4.32284L30.0853 4.30576L30.0686 4.28867L30.0519 4.27159C30.0018 4.23741 29.9684 4.20324 29.9183 4.16907L18.6593 19.188H18.8263L31.2212 5.26259Z" fill="url(#paint20_linear_87_1504)"/>
<path d="M33.5432 7.84263C33.4764 7.75719 33.4263 7.68885 33.3594 7.60342L33.3427 7.58633L33.326 7.56924C33.3093 7.55216 33.2926 7.53507 33.2926 7.51798C33.2926 7.51798 33.2926 7.51798 33.2926 7.5009C33.2926 7.5009 33.2926 7.5009 33.2926 7.48381C33.2926 7.48381 33.2926 7.48381 33.2759 7.46673C33.2759 7.46673 33.2759 7.46673 33.2759 7.44964C33.2759 7.44964 33.2759 7.43255 33.2592 7.43255L33.2425 7.41547L33.2258 7.39838C33.1924 7.36421 33.1757 7.33004 33.1423 7.29586L33.1256 7.27878C33.042 7.17626 32.9585 7.07374 32.8583 6.97122L32.8416 6.95414C32.8249 6.93705 32.8082 6.90288 32.7748 6.88579L32.7581 6.8687L32.7414 6.85162L32.7247 6.83453C32.7247 6.83453 32.7247 6.83453 32.7247 6.81745C32.7247 6.81745 32.7247 6.80036 32.708 6.80036C32.708 6.80036 32.708 6.80036 32.708 6.78327C32.708 6.78327 32.7079 6.78327 32.6912 6.76619C32.6745 6.7491 32.6578 6.73201 32.6578 6.71493L32.6411 6.69784L32.6244 6.68075C32.5743 6.6295 32.5242 6.57824 32.4741 6.52698L19.0434 19.188H19.2439L33.5432 7.84263Z" fill="url(#paint21_linear_87_1504)"/>
<path d="M5.94692 4.20325C5.79657 4.32285 5.64623 4.44246 5.49589 4.57915L5.47918 4.59623L5.46248 4.61332C5.42907 4.63041 5.41236 4.66458 5.37895 4.68166C5.37895 4.68166 5.36225 4.68166 5.36225 4.69875C5.36225 4.69875 5.34554 4.69875 5.34554 4.71584C5.34554 4.71584 5.34554 4.71584 5.32884 4.71584C5.32884 4.71584 5.32884 4.71584 5.31213 4.73292C5.31213 4.73292 5.31213 4.73292 5.29543 4.75001C5.29543 4.75001 5.29543 4.75001 5.27873 4.7671C5.27873 4.7671 5.26202 4.7671 5.26202 4.78418L5.24532 4.80127L5.22861 4.81836L5.21191 4.83544L5.1952 4.85253C5.1952 4.85253 5.1785 4.85253 5.1785 4.86961L5.16179 4.8867C5.14509 4.90379 5.12838 4.92087 5.11168 4.92087L5.09497 4.93796L5.07827 4.95505L5.06156 4.97213L5.04486 4.98922L5.02815 5.0063L5.01145 5.02339L4.99474 5.04048C4.99474 5.04048 4.99474 5.04048 4.97804 5.05756C4.97804 5.05756 4.97804 5.05756 4.96133 5.07465C4.96133 5.07465 4.96133 5.07465 4.94463 5.09174C4.94463 5.09174 4.94463 5.09174 4.92792 5.10882C4.92792 5.10882 4.92792 5.10882 4.91122 5.12591C4.91122 5.12591 4.91122 5.12591 4.89451 5.12591C4.89451 5.12591 4.87781 5.12591 4.87781 5.143C4.81099 5.21134 4.74417 5.2626 4.67735 5.33095L17.1892 19.1538H17.3229L5.94692 4.20325Z" fill="url(#paint22_linear_87_1504)"/>
<path d="M25.4581 1.5036C25.3913 1.46943 25.3244 1.45234 25.2576 1.41817C25.2576 1.41817 25.2409 1.41817 25.2409 1.40108H25.2242C25.2242 1.40108 25.2242 1.40108 25.2075 1.40108H25.1908C25.1741 1.40108 25.1574 1.384 25.1407 1.384C25.124 1.384 25.124 1.384 25.1073 1.36691C25.1073 1.36691 25.0906 1.36691 25.0906 1.34982C24.6897 1.19605 24.272 1.04227 23.8544 0.905579L18.2917 19.1538H18.3752L25.4581 1.5036Z" fill="url(#paint23_linear_87_1504)"/>
<path d="M35.3974 10.7986C35.3473 10.7131 35.3139 10.6277 35.2638 10.5594C35.2638 10.5594 35.2638 10.5594 35.2638 10.5423C35.2638 10.5423 35.2638 10.5252 35.2471 10.5252V10.5081C35.2471 10.5081 35.2471 10.5081 35.2471 10.491C35.2471 10.491 35.2471 10.4739 35.2304 10.4739C35.2304 10.4739 35.2304 10.4569 35.2137 10.4569C35.1135 10.2689 35.0132 10.081 34.8963 9.893C34.8963 9.893 34.8963 9.87591 34.8796 9.87591C34.8796 9.87591 34.8796 9.85883 34.8629 9.85883C34.8629 9.85883 34.8629 9.84174 34.8462 9.84174C34.8462 9.84174 34.8462 9.84174 34.8462 9.82466V9.80757V9.79048C34.8462 9.79048 34.8462 9.79048 34.8462 9.7734C34.746 9.60253 34.6457 9.44876 34.5455 9.27789L19.4444 19.1538H19.7451L35.3974 10.7986Z" fill="url(#paint24_linear_87_1504)"/>
<path d="M15.3517 0.187927C15.3016 0.187927 15.2348 0.205014 15.1847 0.205014H15.168H15.1513C15.1513 0.205014 15.1513 0.205014 15.1345 0.205014H15.1178C15.1178 0.205014 15.1178 0.205014 15.1011 0.205014H15.0844H15.0677H15.051C14.7336 0.256273 14.4162 0.307532 14.0989 0.375877H14.0821C14.0821 0.375877 14.0821 0.375877 14.0654 0.375877H14.0487C14.0487 0.375877 14.0487 0.375877 14.032 0.375877H14.0153H13.9986C13.9986 0.375877 13.9986 0.375877 13.9819 0.375877H13.9652C13.9652 0.375877 13.9652 0.375877 13.9485 0.375877H13.9318H13.9151C13.8316 0.392963 13.7481 0.41005 13.6812 0.427136L17.7739 19.1025H17.8574L15.3517 0.187927Z" fill="url(#paint25_linear_87_1504)"/>
<path d="M11.994 0.939758C11.9272 0.956845 11.8771 0.973931 11.8102 1.0081C11.7935 1.0081 11.7935 1.0081 11.7768 1.02519H11.7601H11.7434H11.7267C11.7267 1.02519 11.71 1.02519 11.6933 1.04228C11.6766 1.04228 11.6599 1.05936 11.6432 1.05936C11.6265 1.05936 11.6265 1.05936 11.6098 1.07645H11.5931H11.5764H11.5597H11.543H11.5263C11.5263 1.07645 11.5096 1.07645 11.5096 1.09354C11.4762 1.11062 11.4427 1.12771 11.3926 1.12771C11.3926 1.12771 11.3759 1.12771 11.3592 1.14479C11.3592 1.14479 11.3425 1.14479 11.3258 1.16188C11.3091 1.16188 11.3091 1.16188 11.2924 1.17897C11.0084 1.28148 10.7411 1.40109 10.4572 1.52069L17.6402 19.1196H17.7237L11.994 0.939758Z" fill="url(#paint26_linear_87_1504)"/>
<path d="M28.4984 3.12677C28.0139 2.80213 27.5128 2.51167 27.0117 2.25537L18.4421 19.1708H18.5423L28.4984 3.12677Z" fill="url(#paint27_linear_87_1504)"/>
<path d="M18.7762 0.0170863C18.4755 0 18.1748 0 17.8741 0C17.8574 0 17.8574 0 17.8407 0C17.824 0 17.824 0 17.824 0H17.8073H17.7906H17.7739C17.7405 0 17.7238 0 17.6904 0H17.6737H17.6569C17.6569 0 17.6569 0 17.6402 0H17.6235C17.6235 0 17.6235 0 17.6068 0H17.5901C17.5901 0 17.5901 0 17.5734 0H17.5567C17.5567 0 17.5567 0 17.54 0H17.5233C17.5233 0 17.5233 0 17.5066 0H17.4899C17.4899 0 17.4899 0 17.4732 0H17.4565C17.4565 0 17.4565 0 17.4398 0C17.4231 0 17.4064 0 17.3897 0C17.3897 0 17.3897 0 17.373 0H17.3563C17.3563 0 17.3563 0 17.3396 0H17.3228C17.3228 0 17.3228 0 17.3061 0H17.2894C17.2894 0 17.2894 0 17.2727 0H17.256C17.256 0 17.256 0 17.2393 0H17.2226C17.2226 0 17.2226 0 17.2059 0H17.1892C17.1892 0 17.1892 0 17.1725 0H17.1558C17.1558 0 17.1558 0 17.1391 0H17.1224C17.1057 0 17.089 0 17.0723 0L17.9409 19.1367H18.0245L18.7762 0.0170863Z" fill="url(#paint28_linear_87_1504)"/>
<path d="M8.83676 2.30664C8.63631 2.42624 8.41914 2.52876 8.21869 2.64837L8.20198 2.66545L8.18528 2.68254L8.16857 2.69963C8.15187 2.71671 8.13516 2.71671 8.11846 2.7338C8.11846 2.7338 8.11846 2.7338 8.10175 2.7338C8.10175 2.7338 8.08505 2.7338 8.08505 2.75089H8.06834C8.06834 2.75089 8.06834 2.75089 8.05164 2.75089C8.05164 2.75089 8.03493 2.75089 8.03493 2.76797C8.03493 2.76797 8.01823 2.76797 8.01823 2.78506C8.01823 2.78506 8.00152 2.78506 8.00152 2.80214C7.80107 2.92175 7.5839 3.05844 7.38345 3.19513L17.423 19.1708H17.5233L8.83676 2.30664Z" fill="url(#paint29_linear_87_1504)"/>
<path d="M3.42445 6.57825C3.224 6.80037 3.04024 7.02249 2.85649 7.24461C2.85649 7.24461 2.85649 7.2617 2.83979 7.2617C2.83979 7.2617 2.83979 7.2617 2.83979 7.27879C2.83979 7.27879 2.83979 7.27879 2.82308 7.29587C2.82308 7.29587 2.82308 7.29587 2.80638 7.31296C2.80638 7.31296 2.80638 7.31296 2.80638 7.33005L2.78967 7.34713C2.77297 7.36422 2.75626 7.3813 2.75626 7.39839L2.73956 7.41548L2.72285 7.43256C2.58921 7.60343 2.45558 7.77429 2.33864 7.92807L16.7382 19.1538H16.972L3.42445 6.57825Z" fill="url(#paint30_linear_87_1504)"/>
<path d="M1.33643 9.38037C1.16938 9.63667 1.01904 9.91005 0.868695 10.1663C0.868695 10.1834 0.85199 10.1834 0.85199 10.2005C0.835285 10.2347 0.818581 10.2689 0.785171 10.303L0.768466 10.3201C0.768466 10.3201 0.768466 10.3372 0.751762 10.3372C0.751762 10.3372 0.751762 10.3543 0.735057 10.3543C0.735057 10.3543 0.735057 10.3543 0.735057 10.3714C0.735057 10.3714 0.735057 10.3885 0.718352 10.3885C0.718352 10.3885 0.718352 10.3885 0.718352 10.4056C0.718352 10.4056 0.718352 10.4226 0.701647 10.4226C0.701647 10.4226 0.701647 10.4397 0.684942 10.4397C0.684942 10.4397 0.684942 10.4568 0.668238 10.4568C0.668238 10.4568 0.668238 10.4568 0.668238 10.4739V10.491C0.668238 10.491 0.668238 10.491 0.668238 10.5081C0.668238 10.5081 0.668238 10.5081 0.668238 10.5252V10.5422C0.668238 10.5422 0.668238 10.5422 0.668238 10.5593V10.5764C0.668238 10.5764 0.668238 10.5764 0.668238 10.5935V10.6106C0.668238 10.6106 0.668238 10.6106 0.668238 10.6277V10.6448C0.651533 10.6618 0.651533 10.6789 0.634828 10.696C0.634828 10.696 0.634828 10.7131 0.618123 10.7131C0.618123 10.7131 0.618123 10.7302 0.601419 10.7302C0.601419 10.7302 0.601419 10.7302 0.601419 10.7473C0.601419 10.7473 0.601419 10.7644 0.584714 10.7644C0.584714 10.7644 0.584714 10.7644 0.584714 10.7815V10.7985C0.584714 10.7985 0.584714 10.7985 0.584714 10.8156C0.584714 10.8156 0.584714 10.8327 0.568009 10.8327C0.517895 10.8498 0.50119 10.8669 0.50119 10.884C0.50119 10.884 0.50119 10.884 0.50119 10.9011L16.1536 19.1538H16.471L1.33643 9.38037Z" fill="url(#paint31_linear_87_1504)"/>
<path d="M35.932 17.9577H19.578H19.3107H19.0936H18.9098H18.7261H18.5757L18.2416 18.4019L18.3419 18.2482C18.3251 18.2482 18.3084 18.2311 18.3084 18.2311L18.4755 17.9577H18.392H18.3084H18.2416H18.1748H18.0913H18.0078H17.9242H17.8407H17.7572H17.6737H17.5901H17.5066H17.4231H17.3229H17.2059H17.0389H16.8217H16.5878H16.3039H0V18.6412V18.6582C0 18.6582 0 18.6582 0 18.6753V19.4271H13.4139C13.4474 21.2212 13.297 23.0153 12.9128 24.7581C12.4785 26.7401 11.7435 28.6367 10.6409 30.294C9.53843 31.9514 8.06841 33.3525 6.31441 34.2922C4.56041 35.2491 2.53913 35.7275 0.484439 35.83V37.1456C2.68947 37.2482 4.97803 36.9235 7.09953 36.018C9.22104 35.1295 11.1254 33.6259 12.5787 31.7976C14.0487 29.9694 15.1011 27.8165 15.8027 25.5953C16.4375 23.5962 16.7883 21.5287 16.9219 19.4442H19.9121C19.9121 21.4091 20.0791 23.3741 20.5302 25.3219C21.0313 27.509 21.8833 29.6789 23.2364 31.5926C23.3867 31.8489 23.5872 32.0539 23.7709 32.2931L24.3389 32.9766C24.7398 33.4037 25.1741 33.7967 25.6084 34.2068C26.0762 34.5485 26.5439 34.9244 27.0283 35.2491L27.7968 35.6933C28.0473 35.83 28.2979 36.0009 28.5819 36.1034C30.7034 37.1115 33.0254 37.5386 35.2805 37.6241V33.9847C33.3929 34.0359 31.5386 33.7796 29.8514 33.1133C29.6343 33.0449 29.4338 32.9253 29.2334 32.8399L28.6153 32.5323C28.2144 32.3102 27.8636 32.0368 27.4627 31.7976C27.1119 31.4901 26.7611 31.2167 26.427 30.9091L25.9592 30.3965C25.8089 30.2257 25.6251 30.0719 25.5082 29.8669C24.3389 28.3975 23.4869 26.6205 22.9357 24.7239C22.4512 23.0494 22.184 21.2725 22.067 19.4784H35.9487V17.9577H35.932Z" fill="white"/>
</g>
<defs>
<linearGradient id="paint0_linear_87_1504" x1="58.3734" y1="14.2655" x2="76.4264" y2="14.2655" gradientUnits="userSpaceOnUse">
<stop stop-color="white" stop-opacity="0.6"/>
<stop offset="0.0113241" stop-color="white" stop-opacity="0.6045"/>
<stop offset="1" stop-color="white"/>
</linearGradient>
<linearGradient id="paint1_linear_87_1504" x1="58.3733" y1="18.314" x2="76.4263" y2="18.314" gradientUnits="userSpaceOnUse">
<stop stop-color="white" stop-opacity="0.6"/>
<stop offset="0.0113241" stop-color="white" stop-opacity="0.6045"/>
<stop offset="1" stop-color="white"/>
</linearGradient>
<linearGradient id="paint2_linear_87_1504" x1="58.3732" y1="18.2793" x2="76.4264" y2="18.2793" gradientUnits="userSpaceOnUse">
<stop stop-color="white" stop-opacity="0.6"/>
<stop offset="0.0113241" stop-color="white" stop-opacity="0.6045"/>
<stop offset="1" stop-color="white"/>
</linearGradient>
<linearGradient id="paint3_linear_87_1504" x1="58.3733" y1="14.2655" x2="76.4264" y2="14.2655" gradientUnits="userSpaceOnUse">
<stop stop-color="white" stop-opacity="0.6"/>
<stop offset="0.0113241" stop-color="white" stop-opacity="0.6045"/>
<stop offset="1" stop-color="white"/>
</linearGradient>
<linearGradient id="paint4_linear_87_1504" x1="58.3733" y1="9.71744" x2="76.4264" y2="9.71744" gradientUnits="userSpaceOnUse">
<stop stop-color="white" stop-opacity="0.6"/>
<stop offset="0.0113241" stop-color="white" stop-opacity="0.6045"/>
<stop offset="1" stop-color="white"/>
</linearGradient>
<linearGradient id="paint5_linear_87_1504" x1="58.3733" y1="9.71744" x2="76.4264" y2="9.71744" gradientUnits="userSpaceOnUse">
<stop stop-color="white" stop-opacity="0.6"/>
<stop offset="0.0113241" stop-color="white" stop-opacity="0.6045"/>
<stop offset="1" stop-color="white"/>
</linearGradient>
<linearGradient id="paint6_linear_87_1504" x1="45.6177" y1="28.6372" x2="45.6177" y2="10.553" gradientUnits="userSpaceOnUse">
<stop stop-color="white" stop-opacity="0.8"/>
<stop offset="0.4818" stop-color="white" stop-opacity="0"/>
<stop offset="1" stop-color="white"/>
</linearGradient>
<linearGradient id="paint7_linear_87_1504" x1="45.7334" y1="28.6373" x2="45.7334" y2="10.5532" gradientUnits="userSpaceOnUse">
<stop stop-color="white" stop-opacity="0.8"/>
<stop offset="0.4818" stop-color="white" stop-opacity="0"/>
<stop offset="1" stop-color="white"/>
</linearGradient>
<linearGradient id="paint8_linear_87_1504" x1="93.2925" y1="18.1358" x2="93.2925" y2="4.17038" gradientUnits="userSpaceOnUse">
<stop stop-color="white" stop-opacity="0.3"/>
<stop offset="1" stop-color="white"/>
</linearGradient>
<linearGradient id="paint9_linear_87_1504" x1="93.2925" y1="18.1358" x2="93.2925" y2="4.17044" gradientUnits="userSpaceOnUse">
<stop stop-color="white" stop-opacity="0.3"/>
<stop offset="1" stop-color="white"/>
</linearGradient>
<linearGradient id="paint10_linear_87_1504" x1="93.2925" y1="36.4019" x2="93.2925" y2="22.4364" gradientUnits="userSpaceOnUse">
<stop stop-color="white" stop-opacity="0.3"/>
<stop offset="1" stop-color="white"/>
</linearGradient>
<linearGradient id="paint11_linear_87_1504" x1="93.2925" y1="36.4018" x2="93.2925" y2="22.4364" gradientUnits="userSpaceOnUse">
<stop stop-color="white" stop-opacity="0.3"/>
<stop offset="1" stop-color="white"/>
</linearGradient>
<radialGradient id="paint12_radial_87_1504" cx="0" cy="0" r="1" gradientUnits="userSpaceOnUse" gradientTransform="translate(130.91 19.3813) scale(11.91 11.7243)">
<stop stop-color="white" stop-opacity="0"/>
<stop offset="0.8549" stop-color="white" stop-opacity="0.8549"/>
<stop offset="1" stop-color="white"/>
</radialGradient>
<radialGradient id="paint13_radial_87_1504" cx="0" cy="0" r="1" gradientUnits="userSpaceOnUse" gradientTransform="translate(130.909 19.3813) scale(11.9288 11.7256)">
<stop stop-color="white" stop-opacity="0"/>
<stop offset="0.8549" stop-color="white" stop-opacity="0.8549"/>
<stop offset="1" stop-color="white"/>
</radialGradient>
<radialGradient id="paint14_radial_87_1504" cx="0" cy="0" r="1" gradientUnits="userSpaceOnUse" gradientTransform="translate(130.915 19.3813) scale(11.4632 11.725)">
<stop stop-color="white" stop-opacity="0"/>
<stop offset="0.8549" stop-color="white" stop-opacity="0.8549"/>
<stop offset="1" stop-color="white"/>
</radialGradient>
<radialGradient id="paint15_radial_87_1504" cx="0" cy="0" r="1" gradientUnits="userSpaceOnUse" gradientTransform="translate(168.17 19.3886) rotate(180) scale(13.3726 12.9263)">
<stop stop-color="white" stop-opacity="0"/>
<stop offset="0.8549" stop-color="white" stop-opacity="0.8549"/>
<stop offset="1" stop-color="white"/>
</radialGradient>
<radialGradient id="paint16_radial_87_1504" cx="0" cy="0" r="1" gradientUnits="userSpaceOnUse" gradientTransform="translate(168.143 19.3813) rotate(180) scale(11.4632 11.725)">
<stop stop-color="white" stop-opacity="0"/>
<stop offset="0.8549" stop-color="white" stop-opacity="0.8549"/>
<stop offset="1" stop-color="white"/>
</radialGradient>
<linearGradient id="paint17_linear_87_1504" x1="149.55" y1="2.15117" x2="149.55" y2="38.001" gradientUnits="userSpaceOnUse">
<stop stop-color="white"/>
<stop offset="0.9887" stop-color="white" stop-opacity="0.6045"/>
<stop offset="1" stop-color="white" stop-opacity="0.6"/>
</linearGradient>
<linearGradient id="paint18_linear_87_1504" x1="149.55" y1="2.15114" x2="149.55" y2="38.0011" gradientUnits="userSpaceOnUse">
<stop stop-color="white"/>
<stop offset="0.9887" stop-color="white" stop-opacity="0.6045"/>
<stop offset="1" stop-color="white" stop-opacity="0.6"/>
</linearGradient>
<linearGradient id="paint19_linear_87_1504" x1="20.1396" y1="20.0395" x2="20.1396" y2="-2.02591e-06" gradientUnits="userSpaceOnUse">
<stop stop-color="white" stop-opacity="0"/>
<stop offset="1" stop-color="white"/>
</linearGradient>
<linearGradient id="paint20_linear_87_1504" x1="24.9347" y1="20.0395" x2="24.9347" y2="8.2288e-05" gradientUnits="userSpaceOnUse">
<stop stop-color="white" stop-opacity="0"/>
<stop offset="1" stop-color="white"/>
</linearGradient>
<linearGradient id="paint21_linear_87_1504" x1="26.2752" y1="20.0395" x2="26.2752" y2="-6.13933e-06" gradientUnits="userSpaceOnUse">
<stop stop-color="white" stop-opacity="0"/>
<stop offset="1" stop-color="white"/>
</linearGradient>
<linearGradient id="paint22_linear_87_1504" x1="10.9568" y1="20.0395" x2="10.9568" y2="1.99946e-05" gradientUnits="userSpaceOnUse">
<stop stop-color="white" stop-opacity="0"/>
<stop offset="1" stop-color="white"/>
</linearGradient>
<linearGradient id="paint23_linear_87_1504" x1="21.8609" y1="20.0395" x2="21.8609" y2="4.81112e-05" gradientUnits="userSpaceOnUse">
<stop stop-color="white" stop-opacity="0"/>
<stop offset="1" stop-color="white"/>
</linearGradient>
<linearGradient id="paint24_linear_87_1504" x1="27.4167" y1="20.0395" x2="27.4167" y2="5.41171e-06" gradientUnits="userSpaceOnUse">
<stop stop-color="white" stop-opacity="0"/>
<stop offset="1" stop-color="white"/>
</linearGradient>
<linearGradient id="paint25_linear_87_1504" x1="15.7432" y1="20.0395" x2="15.7432" y2="-3.81426e-05" gradientUnits="userSpaceOnUse">
<stop stop-color="white" stop-opacity="0"/>
<stop offset="1" stop-color="white"/>
</linearGradient>
<linearGradient id="paint26_linear_87_1504" x1="14.019" y1="20.0395" x2="14.019" y2="6.78744e-05" gradientUnits="userSpaceOnUse">
<stop stop-color="white" stop-opacity="0"/>
<stop offset="1" stop-color="white"/>
</linearGradient>
<linearGradient id="paint27_linear_87_1504" x1="23.466" y1="20.0395" x2="23.466" y2="-3.02116e-05" gradientUnits="userSpaceOnUse">
<stop stop-color="white" stop-opacity="0"/>
<stop offset="1" stop-color="white"/>
</linearGradient>
<linearGradient id="paint28_linear_87_1504" x1="17.9134" y1="20.0395" x2="17.9134" y2="-1.91112e-05" gradientUnits="userSpaceOnUse">
<stop stop-color="white" stop-opacity="0"/>
<stop offset="1" stop-color="white"/>
</linearGradient>
<linearGradient id="paint29_linear_87_1504" x1="12.4134" y1="20.0395" x2="12.4134" y2="-1.49607e-05" gradientUnits="userSpaceOnUse">
<stop stop-color="white" stop-opacity="0"/>
<stop offset="1" stop-color="white"/>
</linearGradient>
<linearGradient id="paint30_linear_87_1504" x1="9.63524" y1="20.0395" x2="9.63524" y2="-2.67786e-05" gradientUnits="userSpaceOnUse">
<stop stop-color="white" stop-opacity="0"/>
<stop offset="1" stop-color="white"/>
</linearGradient>
<linearGradient id="paint31_linear_87_1504" x1="8.47696" y1="20.0395" x2="8.47696" y2="-5.71004e-05" gradientUnits="userSpaceOnUse">
<stop stop-color="white" stop-opacity="0"/>
<stop offset="1" stop-color="white"/>
</linearGradient>
<clipPath id="clip0_87_1504">
<rect width="168" height="38" fill="white"/>
</clipPath>
</defs>
</svg>
