<svg width="200" height="120" viewBox="0 0 200 120" fill="none" xmlns="http://www.w3.org/2000/svg">
<path d="M100.04 118.08C132.095 118.08 158.08 92.0946 158.08 60.04C158.08 27.9854 132.095 2 100.04 2C67.9854 2 42 27.9854 42 60.04C42 92.0946 67.9854 118.08 100.04 118.08Z" fill="url(#paint0_linear_105_1120)"/>
<path d="M5.33002 68.8699C17.14 70.3399 12.14 79.2899 7.47998 75.6299C7.25625 73.2635 6.39963 71.001 5 69.0799L5.33002 68.8699ZM18.52 64.9599C17.01 70.4199 14.45 80.4999 13.9 83.0699C13.5451 84.47 13.3505 85.9059 13.32 87.3499C13.4 89.8299 15.32 91.1299 15.25 95.0799C15.2469 95.6029 15.1372 96.1198 14.9277 96.599C14.7182 97.0783 14.4132 97.5098 14.0314 97.8672C13.6496 98.2247 13.199 98.5006 12.707 98.6782C12.2151 98.8557 11.6921 98.9312 11.17 98.8999C10.5252 98.9153 9.89609 98.7002 9.39569 98.2932C8.89529 97.8863 8.55644 97.3143 8.44 96.6799C9.33 92.2299 9.20002 87.9399 8.15002 87.2299C7.46928 86.7957 6.68659 86.5474 5.88 86.5099V85.7599H7.81C8.49 85.7599 8.64997 85.7599 9.15997 84.8699C10.16 83.1899 10.16 83.1899 17.89 64.7899L18.52 64.9599ZM8.35999 59.5799C20.96 60.2199 16.68 69.7899 11.55 66.5199C10.8571 64.0654 9.66943 61.7785 8.06 59.7999L8.35999 59.5799ZM44.07 77.1899C43.77 77.6899 43.35 77.8199 42.3 77.9399C40.9505 81.9797 38.8239 85.7165 36.04 88.9399C39.0742 90.9503 42.3859 92.5067 45.87 93.5599L45.79 94.0199C44.5417 94.2618 43.387 94.8508 42.4583 95.7193C41.5297 96.5878 40.8647 97.7006 40.54 98.9299C37.4574 97.2377 34.7388 94.9542 32.54 92.2099C28.1732 95.5357 23.1211 97.8482 17.75 98.9799L17.5 98.5099C22.5098 96.4103 26.9138 93.0892 30.31 88.8499C28.3312 85.1057 27.0215 81.0447 26.44 76.8499H25.2C25.04 83.9499 23.78 93.1499 15.2 98.9899L14.82 98.6899C19.15 91.5499 19.48 82.5199 19.48 74.9199V63.9199L26.03 66.1499H28.72V59.1499L36.37 59.7399C36.28 60.4499 35.95 60.9499 34.48 61.1599V66.1599H37.63L40.44 63.3499L45.32 67.9699C45.1009 68.1716 44.8412 68.324 44.5583 68.4172C44.2755 68.5103 43.976 68.5419 43.68 68.5099C41.7976 70.1026 39.8171 71.5755 37.75 72.9199L37.42 72.7099C37.63 71.2899 37.84 69.0199 38.01 67.3399H34.48V75.6499H35.91L39.01 72.6499L44.07 77.1899ZM25.2 75.6699H28.73V67.3599H25.2V75.6699ZM27.2 76.8499C28.1892 80.2246 29.9762 83.3115 32.41 85.8499C34.1128 83.0557 35.387 80.022 36.19 76.8499H27.2Z" fill="#48535F"/>
<path d="M93.8399 91.47C95.3899 92.14 95.7299 92.85 95.7299 94.07C95.7299 96.51 93.7299 97.73 86.6499 97.73H82.7899C77.9999 97.73 76.8599 96.68 76.8599 92.6V77.02H73.2499C72.4499 87.31 68.6299 95.33 55.7799 98.86L55.6099 98.44C64.1799 93.23 66.1499 85.71 66.3199 77.02H55.9399L55.6099 75.84H72.3299V59L80.1799 59.63C80.0999 60.22 79.7999 60.63 78.6299 60.8V75.8H86.7399L89.9299 71.8C89.9299 71.8 93.5399 74.49 95.6799 76.34C95.5599 76.8 95.0998 77.01 94.4698 77.01H83.0799V90.96C83.0799 91.64 83.3299 91.85 84.3799 91.85H87.3799C88.2599 91.85 89.1399 91.85 89.6899 91.85C89.918 91.8528 90.1428 91.795 90.3413 91.6826C90.5398 91.5701 90.7049 91.4071 90.8199 91.21C91.7902 89.2775 92.6061 87.2712 93.2599 85.21H93.6399L93.8399 91.47ZM59.6399 61.81C74.6399 65.81 68.8399 77.81 62.9999 72.81C62.7203 68.9647 61.4489 65.2576 59.3099 62.05L59.6399 61.81ZM93.4599 64.88C93.2499 65.38 92.6199 65.72 91.6099 65.59C88.5582 68.8769 85.0847 71.7451 81.2799 74.12L80.8999 73.82C82.1999 70.82 84.0499 65.76 85.3899 61.39L93.4599 64.88Z" fill="#48535F"/>
<path d="M145.5 70.25C145.29 70.67 144.87 70.93 143.81 70.8C140.487 73.4073 136.948 75.7257 133.23 77.73C136.25 82.6418 140.728 86.4876 146.04 88.73L145.83 89.19C143.31 89.69 141.46 91.88 140.62 94.69C134.32 89.11 130.75 82.43 129.07 68.61V91.84C129.07 96 128.07 98.22 121.17 98.84C121 96.84 120.71 95.44 119.87 94.47C119.03 93.5 118.06 92.87 115.5 92.41V91.87C115.5 91.87 120.79 92.2 121.89 92.2C122.6 92.2 122.89 91.95 122.89 91.45V73.55C122.68 73.55 122.39 73.6401 122.05 73.6801C120.12 82.0401 115.75 90.14 106.05 94.81L105.71 94.39C111.63 89.09 114.71 80.78 115.88 72.8H107.18L106.8 71.62H115.54L118.48 68.55L122.89 72.29V59.04L130.58 59.8C130.5 60.38 130.2 60.8001 129.11 60.9301V65.84C129.686 69.584 130.879 73.2065 132.64 76.56C134.947 73.1517 136.984 69.5673 138.73 65.84L145.5 70.25Z" fill="#48535F"/>
<path d="M166.87 81.14C166.87 86.64 166.03 94.24 156.66 98.65L156.41 98.36C160.32 93.36 160.65 86.76 160.65 81.14V71.26L167.75 73.62H188L189.76 71.22C188.871 71.3718 187.972 71.4554 187.07 71.47H186.07V69.62H167.58L165.82 72.19L159.82 69.25C160.29 68.6951 160.828 68.2013 161.42 67.78V60.68L168.94 61.39C168.85 62.02 168.52 62.44 167.38 62.61V68.45H173.68V59L181.25 59.54C181.16 60.13 180.87 60.54 179.73 60.76V68.45H186.08V60.76L193.72 61.39C193.64 61.94 193.34 62.39 192.17 62.57V70.36C192.17 70.45 192.08 70.53 191.87 70.61C192.97 71.54 194.69 72.96 195.87 74.1C195.75 74.56 195.29 74.77 194.7 74.77H166.87V81.14ZM190.94 83.14C190.94 83.14 194.09 85.74 195.94 87.51C195.81 87.97 195.35 88.18 194.76 88.18H182.87V97.59C182.87 97.88 180.98 98.89 177.75 98.89H176.57V88.15H167.16L166.83 86.97H176.57V80.13H168.88L168.55 78.95H185.94L188.63 75.21C188.63 75.21 191.74 77.73 193.54 79.45C193.42 79.92 192.96 80.13 192.37 80.13H182.87V86.97H188.12L190.94 83.14Z" fill="#48535F"/>
<defs>
<linearGradient id="paint0_linear_105_1120" x1="100.04" y1="118.08" x2="100.04" y2="2" gradientUnits="userSpaceOnUse">
<stop stop-color="#FFD800" stop-opacity="0"/>
<stop offset="0.19" stop-color="#FDD000" stop-opacity="0.1"/>
<stop offset="0.6" stop-color="#F9BA00" stop-opacity="0.36"/>
<stop offset="1" stop-color="#F4A300" stop-opacity="0.64"/>
</linearGradient>
</defs>
</svg>
