<svg width="200" height="120" viewBox="0 0 200 120" fill="none" xmlns="http://www.w3.org/2000/svg">
<path d="M100.04 118.08C132.095 118.08 158.08 92.0946 158.08 60.04C158.08 27.9854 132.095 2 100.04 2C67.9854 2 42 27.9854 42 60.04C42 92.0946 67.9854 118.08 100.04 118.08Z" fill="url(#paint0_linear_105_1100)"/>
<path d="M19.1 66.1998V90.4398C19.1 90.8098 16.46 91.9498 14.57 91.9498H13.68V88.5898H10.37V92.4098C10.37 92.7898 8.73 94.0498 6 94.0498H5V60.7798L10.92 63.3398H13.23L15.75 60.5698L20.75 64.5698C20.5777 64.7791 20.3629 64.9495 20.12 65.0698H27.31V59.0698L34.7 59.6598C34.7 60.2398 34.36 60.6598 33.19 60.8298V64.9998H35.71L38.48 61.2598C38.48 61.2598 41.59 63.7798 43.4 65.5098C43.31 65.9698 42.85 66.1798 42.22 66.1798H33.22V72.9998H34.06L37 68.9998C37 68.9998 40.32 71.6898 42.25 73.4998C42.12 73.9598 41.66 74.1698 41.03 74.1698H21.33L20.99 72.9898H27.34V66.1998H19.1ZM10.37 64.5198V75.0998H13.68V64.5198H10.37ZM13.68 87.4098V76.2798H10.37V87.4098H13.68ZM40.27 75.8198C40.27 75.8198 43.01 78.2998 44.52 79.9298C44.43 80.3998 43.97 80.6098 43.38 80.6098H37.96V91.8598C37.96 95.8098 37.08 97.9598 30.61 98.5398C30.49 96.6498 30.28 95.3098 29.52 94.3898C28.76 93.4698 27.92 92.8698 25.66 92.4498V91.9098C25.66 91.9098 30.36 92.1998 31.29 92.1998C31.87 92.1998 32.08 91.9898 32.08 91.5298V80.6098H19.44L19.1 79.4298H32.1V74.4298L39.41 75.0598C39.33 75.6898 38.91 76.0598 37.98 76.1598V79.2598L40.27 75.8198ZM21.58 81.3198C34.31 83.7598 28.43 93.4198 23.43 89.0498C23.3445 86.4002 22.5949 83.8144 21.25 81.5298L21.58 81.3198Z" fill="white"/>
<path d="M92.3599 91.1101C93.9099 91.7801 94.2499 92.4901 94.2499 93.7101C94.2499 96.1501 92.2499 97.3701 85.1699 97.3701H81.3099C76.5199 97.3701 75.3799 96.3201 75.3799 92.2401V76.6601H71.7699C70.9699 86.9501 67.1499 94.9701 54.2999 98.5001L54.1299 98.0801C62.6999 92.8701 64.6699 85.3501 64.8399 76.6601H54.4599L54.1299 75.4801H70.8499V58.6401L78.6999 59.2701C78.6199 59.8501 78.3199 60.2701 77.1499 60.4401V75.4401H85.2599L88.4499 71.4401C88.4499 71.4401 92.0599 74.1301 94.1999 75.9801C94.0799 76.4401 93.6199 76.6501 92.9899 76.6501H81.5999V90.6001C81.5999 91.2801 81.8499 91.4901 82.8999 91.4901H85.8999C86.7799 91.4901 87.6599 91.4901 88.2099 91.4401C88.4376 91.4471 88.663 91.3922 88.8619 91.2812C89.0609 91.1703 89.2261 91.0075 89.3399 90.8101C90.3102 88.8776 91.1261 86.8714 91.7799 84.8101H92.1599L92.3599 91.1101ZM58.1599 61.4501C73.1599 65.4501 67.3599 77.4501 61.5199 72.4501C61.2403 68.6049 59.969 64.8977 57.8299 61.6901L58.1599 61.4501ZM91.9799 64.5201C91.7699 65.0201 91.1399 65.3601 90.1299 65.2301C87.0782 68.517 83.6047 71.3853 79.7999 73.7601L79.4199 73.4701C80.7199 70.4701 82.5699 65.4001 83.9099 61.0301L91.9799 64.5201Z" fill="white"/>
<path d="M136.37 71.7902V76.1102L138.64 73.6802L143.64 77.5002C143.249 77.9453 142.708 78.2302 142.12 78.3002V96.6502C142.12 97.0302 139.39 98.0802 137.5 98.0802H136.5V95.1402H130.03V96.6502C130.03 97.2402 127.72 98.5002 125.37 98.5002H124.53V74.1002L130.24 76.3602H130.74V71.7902H123.74V75.5702C123.74 82.7502 123.32 92.2802 115.42 98.4602L115 98.0402C118.19 91.3202 118.28 82.7902 118.28 75.4002V70.6902C118.07 71.0702 117.65 71.2802 116.72 71.2002C115.67 72.5402 114.37 74.0502 112.94 75.6102L116.22 76.8302C116.094 77.0665 115.907 77.2646 115.678 77.4036C115.45 77.5426 115.188 77.6175 114.92 77.6202V96.5702C114.92 97.0702 112.65 98.5702 110.13 98.5702H109.03V79.4702C107.682 80.7143 106.252 81.8669 104.75 82.9202L104.37 82.5802C107.271 77.6155 109.618 72.3472 111.37 66.8702C109.245 68.4151 106.978 69.7545 104.6 70.8702L104.23 70.4902C107.033 66.8325 109.296 62.7912 110.95 58.4902L117.54 62.4002C117.33 62.8202 116.95 63.0702 115.9 62.9502C114.49 64.3222 112.99 65.5984 111.41 66.7702L118.26 70.4602V62.6102L124.52 64.5402C128.997 62.9868 133.314 61.0042 137.41 58.6202L143.5 63.8302C142.96 64.2902 141.95 64.3702 140.5 63.9102C134.972 64.9777 129.367 65.5964 123.74 65.7602V70.5502H130.74V65.5502L137.67 66.2202C137.59 66.7202 137.3 67.1402 136.33 67.3102V70.5902H136.58L139.31 66.9302C139.31 66.9302 142.42 69.4102 144.23 71.0902C144.14 71.5602 143.68 71.7702 143.05 71.7702L136.37 71.7902ZM130.07 77.5402V82.0002H136.52V77.5502L130.07 77.5402ZM136.54 83.1702H130.07V87.7102H136.52L136.54 83.1702ZM136.54 93.9702V88.8802H130.07V94.0002L136.54 93.9702Z" fill="white"/>
<path d="M188.58 73.6302C199.33 80.5202 194.46 90.0602 190.13 85.5202C190.149 81.7778 189.537 78.0591 188.32 74.5202V91.8702C188.32 95.3502 187.48 97.7902 181.81 98.2102C181.905 96.9207 181.613 95.6321 180.97 94.5102C180.39 93.7102 179.55 93.1302 177.49 92.7902V92.2402C177.49 92.2402 181.39 92.5002 182.28 92.5002C182.91 92.5002 183.07 92.2002 183.07 91.7002V68.3002H181.52C181.31 82.5002 181.14 92.3702 168.03 98.8002L167.57 98.1702C174.92 92.1702 176.1 84.8902 176.27 75.4402C174.67 81.1102 172.27 85.6502 168.83 88.6702L168.24 88.3402C169.076 86.3309 169.726 84.2487 170.18 82.1202H165.89V90.0002L171.14 89.0002L171.23 89.4602C166.879 92.1324 162.389 94.5725 157.78 96.7702C157.682 97.0297 157.526 97.2632 157.323 97.4522C157.12 97.6413 156.876 97.7809 156.61 97.8602L154.42 91.8602C154.88 91.8602 155.42 91.7402 156.02 91.6502V77.6502L160.85 78.0702C160.85 78.4502 160.6 78.7002 160.01 78.8302V91.0002L161.23 90.8302V73.0502H161.02V73.8402C161.02 74.1802 159.55 75.1902 157.19 75.1902H156.35V59.7302L161.56 61.8302H164.71L166.81 59.6502L171.14 62.8802C170.78 63.2456 170.308 63.4812 169.8 63.5502V73.3802C169.8 73.7202 167.4 74.5602 165.89 74.5602V80.9402H166.23L168.03 77.7102C168.03 77.7102 169.42 79.1802 170.51 80.5202C170.994 78.0661 171.328 75.5849 171.51 73.0902L176.38 74.0902V68.3002H170.67L170.33 67.1202H187.33L190.15 63.2602C190.15 63.2602 193.3 65.8602 195.15 67.6302C195.02 68.0902 194.56 68.3002 193.97 68.3002H188.32V73.7202L188.58 73.6302ZM160.98 71.8302H165.05V63.0002H160.98V71.8302ZM177.11 58.4302C189.25 60.4302 183.79 69.6802 179.11 65.6502C179.031 63.1428 178.229 60.7118 176.8 58.6502L177.11 58.4302Z" fill="white"/>
<defs>
<linearGradient id="paint0_linear_105_1100" x1="100.04" y1="118.08" x2="100.04" y2="2" gradientUnits="userSpaceOnUse">
<stop stop-color="#FFF000" stop-opacity="0"/>
<stop offset="0.12" stop-color="#FFF000" stop-opacity="0.05"/>
<stop offset="0.35" stop-color="#FFF000" stop-opacity="0.2"/>
<stop offset="0.67" stop-color="#FFF000" stop-opacity="0.43"/>
<stop offset="1" stop-color="#FFF000" stop-opacity="0.7"/>
</linearGradient>
</defs>
</svg>
