<svg width="200" height="120" viewBox="0 0 200 120" fill="none" xmlns="http://www.w3.org/2000/svg">
<path d="M100.04 118.08C132.095 118.08 158.08 92.0946 158.08 60.04C158.08 27.9854 132.095 2 100.04 2C67.9854 2 42 27.9854 42 60.04C42 92.0946 67.9854 118.08 100.04 118.08Z" fill="url(#paint0_linear_105_1133)"/>
<path d="M5.33002 49.51C17.14 50.98 12.14 59.9301 7.47998 56.2701C7.25625 53.9037 6.39963 51.6412 5 49.72L5.33002 49.51ZM18.52 45.6001C17.01 51.0601 14.45 61.1401 13.9 63.7101C13.5451 65.1101 13.3505 66.546 13.32 67.9901C13.4 70.4701 15.32 71.77 15.25 75.72C15.2469 76.2431 15.1372 76.7599 14.9277 77.2392C14.7182 77.7184 14.4132 78.1499 14.0314 78.5074C13.6496 78.8648 13.199 79.1407 12.707 79.3183C12.2151 79.4958 11.6921 79.5713 11.17 79.54C10.5252 79.5554 9.89609 79.3403 9.39569 78.9334C8.89529 78.5265 8.55644 77.9544 8.44 77.3201C9.33 72.8701 9.20002 68.58 8.15002 67.87C7.46928 67.4358 6.68659 67.1875 5.88 67.15V66.4H7.81C8.49 66.4 8.64997 66.4 9.15997 65.51C10.16 63.83 10.16 63.83 17.89 45.43L18.52 45.6001ZM8.35999 40.22C20.96 40.86 16.68 50.43 11.55 47.16C10.8571 44.7055 9.66943 42.4186 8.06 40.44L8.35999 40.22ZM44.07 57.83C43.77 58.33 43.35 58.46 42.3 58.58C40.9505 62.6198 38.8239 66.3566 36.04 69.58C39.0742 71.5904 42.3859 73.1468 45.87 74.2L45.79 74.66C44.5417 74.9019 43.387 75.4909 42.4583 76.3594C41.5297 77.2279 40.8647 78.3407 40.54 79.5701C37.4574 77.8779 34.7388 75.5943 32.54 72.8501C28.1732 76.1759 23.1211 78.4884 17.75 79.62L17.5 79.15C22.5098 77.0504 26.9138 73.7294 30.31 69.4901C28.3312 65.7459 27.0215 61.6849 26.44 57.4901H25.2C25.04 64.5901 23.78 73.7901 15.2 79.6301L14.82 79.33C19.15 72.19 19.48 63.16 19.48 55.56V44.56L26.03 46.79H28.72V39.79L36.37 40.3801C36.28 41.0901 35.95 41.59 34.48 41.8V46.8H37.63L40.44 43.9901L45.32 48.61C45.1009 48.8117 44.8412 48.9642 44.5583 49.0573C44.2755 49.1504 43.976 49.1821 43.68 49.15C41.7976 50.7428 39.8171 52.2157 37.75 53.56L37.42 53.3501C37.63 51.9301 37.84 49.66 38.01 47.98H34.48V56.29H35.91L39.01 53.29L44.07 57.83ZM25.2 56.31H28.73V48H25.2V56.31V56.31ZM27.2 57.4901C28.1892 60.8647 29.9762 63.9516 32.41 66.4901C34.1128 63.6959 35.387 60.6621 36.19 57.4901H27.2Z" fill="white"/>
<path d="M93.8399 72.1101C95.3899 72.7801 95.7299 73.4901 95.7299 74.7101C95.7299 77.1501 93.7299 78.3701 86.6499 78.3701H82.7899C77.9999 78.3701 76.8599 77.3201 76.8599 73.2401V57.6601H73.2499C72.4499 67.9501 68.6299 75.9701 55.7799 79.5001L55.6099 79.0801C64.1799 73.8701 66.1499 66.3501 66.3199 57.6601H55.9399L55.6099 56.4801H72.3299V39.6401L80.1799 40.2701C80.0999 40.8601 79.7999 41.2701 78.6299 41.4401V56.4401H86.7399L89.9299 52.4401C89.9299 52.4401 93.5399 55.1301 95.6799 56.9801C95.5599 57.4401 95.0998 57.6501 94.4698 57.6501H83.0799V71.6001C83.0799 72.2801 83.3299 72.4901 84.3799 72.4901H87.3799C88.2599 72.4901 89.1399 72.4901 89.6899 72.4901C89.918 72.4929 90.1428 72.4351 90.3413 72.3227C90.5398 72.2103 90.7049 72.0472 90.8199 71.8501C91.7902 69.9176 92.6061 67.9114 93.2599 65.8501H93.6399L93.8399 72.1101ZM59.6399 42.4501C74.6399 46.4501 68.8399 58.4501 62.9999 53.4501C62.7203 49.6049 61.4489 45.8977 59.3099 42.6901L59.6399 42.4501ZM93.4599 45.5201C93.2499 46.0201 92.6199 46.3601 91.6099 46.2301C88.5582 49.517 85.0847 52.3853 81.2799 54.7601L80.8999 54.4601C82.1999 51.4601 84.0499 46.4001 85.3899 42.0301L93.4599 45.5201Z" fill="white"/>
<path d="M145.5 50.8902C145.29 51.3102 144.87 51.5702 143.81 51.4402C140.487 54.0474 136.948 56.3659 133.23 58.3702C136.25 63.2819 140.728 67.1277 146.04 69.3702L145.83 69.8302C143.31 70.3302 141.46 72.5202 140.62 75.3302C134.32 69.7502 130.75 63.0702 129.07 49.2502V72.4802C129.07 76.6402 128.07 78.8602 121.17 79.4802C121 77.4802 120.71 76.0802 119.87 75.1102C119.03 74.1402 118.06 73.5102 115.5 73.0502V72.5102C115.5 72.5102 120.79 72.8402 121.89 72.8402C122.6 72.8402 122.89 72.5902 122.89 72.0902V54.1902C122.68 54.1902 122.39 54.2802 122.05 54.3202C120.12 62.6802 115.75 70.7802 106.05 75.4502L105.71 75.0302C111.63 69.7302 114.71 61.4202 115.88 53.4402H107.18L106.8 52.2602H115.54L118.48 49.1902L122.89 52.9302V39.6802L130.58 40.4402C130.5 41.0202 130.2 41.4402 129.11 41.5702V46.4802C129.686 50.2241 130.879 53.8466 132.64 57.2002C134.947 53.7918 136.984 50.2074 138.73 46.4802L145.5 50.8902Z" fill="white"/>
<path d="M166.87 61.7801C166.87 67.2801 166.03 74.8801 156.66 79.2901L156.41 79.0001C160.32 74.0001 160.65 67.4001 160.65 61.7801V51.9001L167.75 54.2601H188L189.76 51.8601C188.871 52.012 187.972 52.0955 187.07 52.1101H186.07V50.2601H167.58L165.82 52.8301L159.82 49.8901C160.29 49.3353 160.828 48.8414 161.42 48.4201V41.3201L168.94 42.0301C168.85 42.6601 168.52 43.0801 167.38 43.2501V49.0901H173.68V39.6401L181.25 40.1801C181.16 40.7701 180.87 41.1801 179.73 41.4001V49.0901H186.08V41.4001L193.72 42.0301C193.64 42.5801 193.34 43.0301 192.17 43.2101V51.0001C192.17 51.0901 192.08 51.1701 191.87 51.2501C192.97 52.1801 194.69 53.6001 195.87 54.7401C195.75 55.2001 195.29 55.4101 194.7 55.4101H166.87V61.7801ZM190.94 63.7801C190.94 63.7801 194.09 66.3801 195.94 68.1501C195.81 68.6101 195.35 68.8201 194.76 68.8201H182.87V78.2301C182.87 78.5201 180.98 79.5301 177.75 79.5301H176.57V68.7901H167.16L166.83 67.6101H176.57V60.7701H168.88L168.55 59.5901H185.94L188.63 55.8501C188.63 55.8501 191.74 58.3701 193.54 60.0901C193.42 60.5601 192.96 60.7701 192.37 60.7701H182.87V67.6101H188.12L190.94 63.7801Z" fill="white"/>
<defs>
<linearGradient id="paint0_linear_105_1133" x1="100.04" y1="118.08" x2="100.04" y2="2" gradientUnits="userSpaceOnUse">
<stop stop-color="#FFF000" stop-opacity="0"/>
<stop offset="0.12" stop-color="#FFF000" stop-opacity="0.05"/>
<stop offset="0.35" stop-color="#FFF000" stop-opacity="0.2"/>
<stop offset="0.67" stop-color="#FFF000" stop-opacity="0.43"/>
<stop offset="1" stop-color="#FFF000" stop-opacity="0.7"/>
</linearGradient>
</defs>
</svg>
