<svg width="200" height="120" viewBox="0 0 200 120" fill="none" xmlns="http://www.w3.org/2000/svg">
<path d="M29.0001 29.7203C28.7901 30.3103 28.2401 30.6103 26.7701 30.7203C30.5501 35.7203 38.3301 37.9903 44.3301 39.1603V39.8403C41.7301 40.6303 40.17 43.3203 39.8 45.5903C33.62 42.5903 28.4501 38.1103 26.1401 31.2303C22.1401 37.8203 13.2901 44.2303 4.59009 47.2303L4.34009 46.7703C11.6101 42.1903 18.8401 33.5003 20.3401 27.5303L29.0001 29.7203ZM33.7101 48.5403L39.5001 53.0003C39.0283 53.5094 38.4096 53.859 37.73 54.0003V65.7603C37.73 66.0603 34.45 67.1103 32.35 67.1103H31.2601V63.8703H17.5701V65.6003C17.5701 66.1803 14.7101 67.6003 12.0601 67.6003H11.1401V49.2003L17.9001 51.7603H30.8L33.7101 48.5403ZM28.5001 40.2703C28.5001 40.2703 32.1101 43.0803 34.2501 45.0103C34.1301 45.4803 33.6601 45.6903 33.0301 45.6903H14.9301L14.5901 44.5103H25.3L28.5001 40.2703ZM31.3101 62.6603V52.8703H17.5701V62.6603H31.3101Z" fill="#48535F"/>
<path d="M67.2499 41.3201C67.1299 41.7001 66.7899 41.9901 65.9499 42.1601V65.8901C65.8699 66.3101 63.3899 67.5701 60.9499 67.5701H59.8199V46.2301C58.2003 47.8488 56.4438 49.3243 54.5699 50.6401L54.1499 50.3101C58.4708 43.309 61.6063 35.6426 63.4299 27.6201L71.4299 30.2301C71.2199 30.7701 70.6799 31.1101 69.6699 31.0701C68.3027 34.3284 66.6285 37.4491 64.6699 40.3901L67.2499 41.3201ZM83.3799 38.1201V46.0001H85.0599L87.9999 42.1401C87.9999 42.1401 91.3199 44.7401 93.3399 46.5001C93.2099 46.9701 92.7499 47.1801 92.1199 47.1801H83.3799V55.1801H85.2299L88.4199 50.9801C88.4199 50.9801 92.0398 53.7901 94.2198 55.6801C94.0998 56.1501 93.5899 56.3601 92.9599 56.3601H83.3799V66.0001C83.3799 66.3301 81.4899 67.5101 78.2599 67.5101H77.0799V38.3301C74.3925 42.2792 70.9703 45.6743 66.9999 48.3301L66.5799 48.0401C70.3488 41.7195 73.1404 34.8654 74.8599 27.7101L82.9199 30.5201C82.7099 31.0701 82.1699 31.4001 81.1599 31.3201C80.22 33.2744 79.1648 35.1711 77.9999 37.0001H85.9999L89.1899 32.8401C89.1899 32.8401 92.7599 35.6101 94.8999 37.5001C94.7799 37.9601 94.2699 38.1701 93.6399 38.1701L83.3799 38.1201Z" fill="#48535F"/>
<path d="M139.87 31.1096C139.87 31.1096 143.15 33.7997 145.04 35.5997C144.92 36.0697 144.45 36.2796 143.87 36.2796H114.8V45.7697C114.8 52.7697 114.29 61.9396 105.26 67.6996L104.92 67.4496C108.54 61.0996 108.71 52.9997 108.71 45.7697V32.7697L115.71 35.1196H125.54L125.2 34.9097C124.631 32.2984 123.418 29.8713 121.67 27.8497L121.93 27.6396C131.8 27.8096 132.17 33.3096 129.49 35.1196H137L139.87 31.1096ZM138.11 39.5497C138.11 39.5497 141.6 42.4097 143.61 44.2997C143.49 44.7597 143.03 44.9697 142.39 44.9697H131.05V51.9697H134L136.73 48.8996L141.73 52.7197C141.48 53.0997 141.06 53.3496 140.1 53.5596V66.0396C140.1 66.2896 138.29 67.2596 135.22 67.2596H134.22V63.2596H121.85V66.3596C121.85 66.6996 120.13 67.6196 117.23 67.6196H116.18V49.7197L122.27 51.9897H125V36.7796L132.61 37.3696C132.52 37.9596 132.27 38.3696 131.09 38.5896V43.7997H135.09L138.11 39.5497ZM121.85 53.1597V62.0697H134.2V53.1597H121.85Z" fill="#48535F"/>
<path d="M192.71 45.7704C192.46 46.1104 192.04 46.3204 191.07 46.0604C187.839 47.1858 184.543 48.1141 181.2 48.8404C184.02 54.5104 189.64 57.3604 195.2 59.1304L195.12 59.5904C192.85 60.0904 191.17 61.9404 190.33 64.7604C185.2 61.2304 181.97 56.8604 180.25 49.0504C179.32 49.2104 178.4 49.4204 177.47 49.5904C181 55.5904 180.75 62.7004 178.57 65.5904C177.39 67.1004 174.95 67.5904 171.64 67.5904C171.716 66.2687 171.366 64.9575 170.64 63.8504C169.621 62.9094 168.361 62.269 167 62.0004V61.5804C168.77 61.7404 171.42 61.9104 172.42 61.9104C173.01 61.9104 173.42 61.8304 173.68 61.4504C174.121 60.4112 174.366 59.2989 174.4 58.1704C168.747 61.2766 162.611 63.4065 156.25 64.4704L156 64.0004C163 61.4804 170 56.4004 173.94 51.1904L173.89 50.8904C168.761 53.875 163.232 56.111 157.47 57.5304L157.26 57.0704C162.672 54.2424 167.439 50.3233 171.26 45.5604C166.991 47.7862 162.458 49.4661 157.77 50.5604L157.52 50.0904C162.104 47.7718 166.22 44.6256 169.66 40.8104H162.48L162.14 39.6304H181.46L184.4 35.9004C184.4 35.9004 186.04 37.1604 187.72 38.5004C187.81 37.3704 187.81 35.9404 187.81 34.7604H162.68C163.05 37.8704 162 40.0504 160.45 41.0204C160.078 41.252 159.659 41.3993 159.224 41.4519C158.789 41.5046 158.348 41.4612 157.931 41.3249C157.515 41.1886 157.133 40.9626 156.813 40.663C156.493 40.3633 156.243 39.9972 156.08 39.5904C155.856 38.8239 155.94 38.0006 156.313 37.2949C156.687 36.5892 157.32 36.0567 158.08 35.8104C158.952 35.3333 159.69 34.6446 160.227 33.8076C160.763 32.9706 161.081 32.0121 161.15 31.0204H161.66C161.999 31.8567 162.279 32.7154 162.5 33.5904H173.75L173.29 33.3304C173.074 31.3101 172.098 29.4474 170.56 28.1204L170.81 27.9204C180.06 26.7804 180.06 31.9904 177.28 33.5904H187.36L190.22 30.6904L195.22 35.3904C194.88 35.7704 194.46 35.9004 193.58 35.9404C191.996 37.1886 190.279 38.2584 188.46 39.1304C188.881 39.4414 189.285 39.7752 189.67 40.1304C189.59 40.5904 189.09 40.8004 188.5 40.8004H177.88C176.425 42.235 174.803 43.4906 173.05 44.5404C174.496 45.6721 175.758 47.0215 176.79 48.5404C180.356 46.2806 183.704 43.6927 186.79 40.8104L192.71 45.7704Z" fill="#48535F"/>
<path d="M195 87H4V93H195V87Z" fill="#48535F"/>
</svg>
