<svg width="200" height="120" viewBox="0 0 200 120" fill="none" xmlns="http://www.w3.org/2000/svg">
<path d="M100.04 118.08C132.095 118.08 158.08 92.0946 158.08 60.04C158.08 27.9854 132.095 2 100.04 2C67.9854 2 42 27.9854 42 60.04C42 92.0946 67.9854 118.08 100.04 118.08Z" fill="url(#paint0_linear_105_1107)"/>
<path d="M42.56 69.7721C42.39 70.1921 41.97 70.4821 40.92 70.3521C37.4583 73.9835 33.6162 77.2321 29.46 80.0421C32.23 85.9221 36.89 89.6621 44.7 92.0421V92.5021C41.76 93.1321 39.87 95.3621 39.24 98.5921C29.58 93.9721 26.64 85.0721 25.63 71.5921C24.87 83.6921 21.63 92.7721 4.41998 98.5921L4 98.0421C20.26 88.2921 19 76.1121 19 58.9321L27.4 59.6821C27.27 60.3621 26.85 60.7321 25.8 60.9021V61.5321C26.18 68.7121 27.02 74.4721 28.96 79.0121C31.3762 74.6583 33.4137 70.1049 35.05 65.4021L42.56 69.7721ZM5.56 66.7721C21.06 72.4421 16.36 84.3721 10.48 79.7121C9.39352 75.2101 7.59056 70.912 5.14001 66.9821L5.56 66.7721Z" fill="white"/>
<path d="M92.8399 91.1521C94.3899 91.8221 94.7299 92.5321 94.7299 93.7521C94.7299 96.1921 92.7299 97.4121 85.6499 97.4121H81.7899C76.9999 97.4121 75.8599 96.3621 75.8599 92.2821V76.7021H72.2499C71.4499 86.9921 67.6299 95.0121 54.7799 98.5421L54.6099 98.1221C63.1799 92.9121 65.1499 85.3921 65.3199 76.7021H54.9399L54.6099 75.5221H71.3299V58.6821L79.1799 59.3121C79.0999 59.9021 78.7999 60.3121 77.6299 60.4821V75.4821H85.7399L88.9299 71.4821C88.9299 71.4821 92.5399 74.1721 94.6799 76.0221C94.5599 76.4821 94.0998 76.6921 93.4698 76.6921H82.0799V90.6421C82.0799 91.3221 82.3299 91.5321 83.3799 91.5321H86.3799C87.2599 91.5321 88.1399 91.5321 88.6899 91.5321C88.918 91.5349 89.1428 91.4771 89.3413 91.3647C89.5398 91.2523 89.7049 91.0892 89.8199 90.8921C90.7902 88.9596 91.6061 86.9534 92.2599 84.8921H92.6399L92.8399 91.1521ZM58.6399 61.4921C73.6399 65.4921 67.8399 77.4921 61.9999 72.4921C61.7203 68.6469 60.4489 64.9397 58.3099 61.7321L58.6399 61.4921ZM92.4599 64.5621C92.2499 65.0621 91.6199 65.4021 90.6099 65.2721C87.5582 68.559 84.0847 71.4273 80.2799 73.8021L79.8999 73.5021C81.1999 70.5021 83.0499 65.4421 84.3899 61.0721L92.4599 64.5621Z" fill="white"/>
<path d="M138.61 69.8921C138.61 69.8921 142.61 73.2121 144.96 75.3521C144.83 75.8221 144.33 76.0321 143.7 76.0321H128.15V95.9821C128.15 96.6121 125.34 98.2521 122.61 98.2521H121.43V76.0421H105.43L105.09 74.8621H121.43V58.9321L130.09 59.7321C130 60.4821 129.62 61.0321 128.15 61.2421V74.8521H135L138.61 69.8921Z" fill="white"/>
<path d="M192.12 90.9421C194.6 91.6921 195.44 92.0721 195.44 93.2921C195.44 95.9821 193.51 97.6621 184.56 97.6621H170.7C163.7 97.6621 160.7 95.8521 160.7 89.8021V73.8021C159.045 75.0143 157.288 76.0816 155.45 76.9921L155.15 76.7021C159.57 72.5021 163.98 64.7721 165.95 58.4321L174.18 60.4321C174.02 60.9421 173.68 61.1521 172.5 61.1021C171.96 61.9921 171.33 62.9121 170.7 63.7921H176.49L179.56 60.6821L184.9 65.1821C184.56 65.6021 184.1 65.7221 183.22 65.8121C180.869 67.7656 178.303 69.4432 175.57 70.8121H184L186.73 67.8121L192.41 72.1021C191.939 72.6537 191.279 73.0101 190.56 73.1021V83.6521C190.56 83.9921 187.56 85.1621 185.56 85.1621H184.56V82.3921H166.62V89.9921C166.62 91.5121 167.62 91.9921 170.53 91.9921H184C186.35 91.9921 187.57 91.8221 188.53 90.9921C189.802 89.2412 190.847 87.336 191.64 85.3221H192.06L192.12 90.9421ZM169.73 64.9421C168.339 66.7533 166.808 68.4519 165.15 70.0221L167.21 70.7821H174.35C175.269 68.9027 176.029 66.9491 176.62 64.9421H169.73ZM166.62 81.1521H172.51V72.0421H166.62V81.1521ZM178.34 71.9521V81.1521H184.44V72.0421L178.34 71.9521Z" fill="white"/>
<defs>
<linearGradient id="paint0_linear_105_1107" x1="100.04" y1="118.08" x2="100.04" y2="2" gradientUnits="userSpaceOnUse">
<stop stop-color="#FFF000" stop-opacity="0"/>
<stop offset="0.12" stop-color="#FFF000" stop-opacity="0.05"/>
<stop offset="0.35" stop-color="#FFF000" stop-opacity="0.2"/>
<stop offset="0.67" stop-color="#FFF000" stop-opacity="0.43"/>
<stop offset="1" stop-color="#FFF000" stop-opacity="0.7"/>
</linearGradient>
</defs>
</svg>
